M48
METRIC,TZ
T1C0.500
T2C0.750
T3C1.000
T4C1.016
%
G90
G05
T1
X111252Y-119673
X111713Y-111205
X111760Y-106133
X112268Y-108712
X113284Y-115570
X113284Y-117641
X116840Y-110236
X117282Y-117324
X117348Y-120396
X119380Y-138684
X120904Y-134112
X120904Y-136652
X122460Y-129032
X124460Y-129032
X125476Y-135636
X128524Y-127508
T2
X105156Y-133604
X114808Y-140208
X115697Y-108585
X116332Y-147320
X118298Y-112202
X144272Y-107696
X144272Y-116840
X144272Y-128016
X144272Y-137160
T3
X128778Y-111252
X128778Y-120396
X129286Y-142748
X131826Y-142748
X132334Y-124460
X132334Y-133604
X133858Y-111252
X133858Y-120396
X134366Y-142748
X134874Y-124460
X134874Y-133604
X136906Y-142748
X137414Y-124460
X137414Y-133604
X138938Y-111252
X138938Y-120396
X139954Y-124460
X139954Y-133604
X141478Y-111252
X141478Y-120396
T4
X103886Y-140208
X103886Y-142748
X103886Y-145288
X103886Y-147828
X106426Y-140208
X106426Y-142748
X106426Y-145288
X106426Y-147828
X145288Y-145288
X145288Y-147828
X147828Y-145288
X147828Y-147828
T0
M30
