G04 #@! TF.FileFunction,Copper,L1,Top,Signal*
%FSLAX46Y46*%
G04 Gerber Fmt 4.6, Leading zero omitted, Abs format (unit mm)*
G04 Created by KiCad (PCBNEW 4.0.1-3.201512221402+6198~38~ubuntu14.04.1-stable) date Thu 18 Feb 2016 18:05:38 GMT*
%MOMM*%
G01*
G04 APERTURE LIST*
%ADD10C,0.100000*%
%ADD11R,1.250000X1.000000*%
%ADD12R,1.000000X1.250000*%
%ADD13R,1.230000X1.800000*%
%ADD14C,1.800000*%
%ADD15R,1.520000X3.050000*%
%ADD16R,0.700000X1.300000*%
%ADD17R,1.300000X0.700000*%
%ADD18R,2.032000X3.657600*%
%ADD19R,2.032000X1.016000*%
%ADD20R,2.032000X2.032000*%
%ADD21O,2.032000X2.032000*%
%ADD22R,1.727200X1.727200*%
%ADD23O,1.727200X1.727200*%
%ADD24R,0.590000X0.450000*%
%ADD25R,0.450000X0.590000*%
%ADD26C,1.500000*%
%ADD27C,1.000000*%
%ADD28C,1.500000*%
%ADD29C,1.016000*%
%ADD30C,0.508000*%
%ADD31C,0.254000*%
G04 APERTURE END LIST*
D10*
D11*
X147320000Y-140732000D03*
X147320000Y-142732000D03*
D12*
X147304000Y-128016000D03*
X145304000Y-128016000D03*
X147304000Y-137160000D03*
X145304000Y-137160000D03*
X147304000Y-116840000D03*
X145304000Y-116840000D03*
X147304000Y-107696000D03*
X145304000Y-107696000D03*
D11*
X122428000Y-145812000D03*
X122428000Y-147812000D03*
X127508000Y-127524000D03*
X127508000Y-129524000D03*
D12*
X125492000Y-137160000D03*
X127492000Y-137160000D03*
X119904000Y-116840000D03*
X121904000Y-116840000D03*
X120412000Y-111252000D03*
X122412000Y-111252000D03*
D13*
X109728000Y-146598000D03*
X109728000Y-143978000D03*
X113284000Y-137962000D03*
X113284000Y-135342000D03*
D14*
X131826000Y-142748000D03*
X129286000Y-142748000D03*
X134366000Y-142748000D03*
X136906000Y-142748000D03*
X134874000Y-124460000D03*
X132334000Y-124460000D03*
X137414000Y-124460000D03*
X139954000Y-124460000D03*
X134874000Y-133604000D03*
X132334000Y-133604000D03*
X137414000Y-133604000D03*
X139954000Y-133604000D03*
X141478000Y-120396000D03*
X138938000Y-120396000D03*
X133858000Y-120396000D03*
X128778000Y-120396000D03*
X141478000Y-111252000D03*
X138938000Y-111252000D03*
X133858000Y-111252000D03*
X128778000Y-111252000D03*
D15*
X145163000Y-141732000D03*
X142873000Y-141732000D03*
X147449000Y-124968000D03*
X145159000Y-124968000D03*
X147449000Y-134112000D03*
X145159000Y-134112000D03*
X147449000Y-119888000D03*
X145159000Y-119888000D03*
X147449000Y-110744000D03*
X145159000Y-110744000D03*
X124589000Y-143256000D03*
X122299000Y-143256000D03*
X127637000Y-124968000D03*
X125347000Y-124968000D03*
X127637000Y-134112000D03*
X125347000Y-134112000D03*
X122049000Y-119888000D03*
X119759000Y-119888000D03*
X122303000Y-106426000D03*
X120013000Y-106426000D03*
D16*
X122494000Y-129032000D03*
X124394000Y-129032000D03*
X116398000Y-111252000D03*
X118298000Y-111252000D03*
X121478000Y-126492000D03*
X123378000Y-126492000D03*
D17*
X117348000Y-117922000D03*
X117348000Y-119822000D03*
D18*
X107950000Y-117856000D03*
D19*
X114554000Y-117856000D03*
X114554000Y-115570000D03*
X114554000Y-120142000D03*
D18*
X112522000Y-145288000D03*
D19*
X119126000Y-145288000D03*
X119126000Y-143002000D03*
X119126000Y-147574000D03*
D18*
X112522000Y-127000000D03*
D19*
X119126000Y-127000000D03*
X119126000Y-124714000D03*
X119126000Y-129286000D03*
D18*
X107442000Y-108712000D03*
D19*
X114046000Y-108712000D03*
X114046000Y-106426000D03*
X114046000Y-110998000D03*
D18*
X116078000Y-135128000D03*
D19*
X122682000Y-135128000D03*
X122682000Y-132842000D03*
X122682000Y-137414000D03*
D13*
X109728000Y-128310000D03*
X109728000Y-125690000D03*
D20*
X145288000Y-147828000D03*
D21*
X147828000Y-147828000D03*
D22*
X103886000Y-140208000D03*
D23*
X106426000Y-140208000D03*
X103886000Y-142748000D03*
X106426000Y-142748000D03*
X103886000Y-145288000D03*
X106426000Y-145288000D03*
X103886000Y-147828000D03*
X106426000Y-147828000D03*
D20*
X145288000Y-145288000D03*
D21*
X147828000Y-145288000D03*
D24*
X120357000Y-108966000D03*
X122467000Y-108966000D03*
X119595000Y-114808000D03*
X121705000Y-114808000D03*
D25*
X124714000Y-145757000D03*
X124714000Y-147867000D03*
D26*
X144272000Y-107696000D03*
X144272000Y-116840000D03*
X144272000Y-128016000D03*
X144272000Y-137160000D03*
X116332000Y-147320000D03*
D27*
X128524000Y-127508000D03*
X113284000Y-115570000D03*
D26*
X108481990Y-136971817D03*
D27*
X119380000Y-138684000D03*
D26*
X116586000Y-127762000D03*
D27*
X122460000Y-129032000D03*
X111252000Y-119673000D03*
X117348000Y-120396000D03*
X111712504Y-111204504D03*
X116840000Y-110236000D03*
D26*
X110236000Y-135636000D03*
D27*
X124460000Y-129032000D03*
X120904000Y-134112000D03*
X125476000Y-135636000D03*
X111760000Y-106133000D03*
D26*
X115697000Y-108585000D03*
X103886000Y-134389990D03*
X103886000Y-137922000D03*
X118298000Y-112202000D03*
D27*
X113284000Y-117641000D03*
X117282000Y-117324002D03*
X120904000Y-136652000D03*
D28*
X147304000Y-137160000D02*
X147449000Y-137015000D01*
X147449000Y-137015000D02*
X147449000Y-134112000D01*
X147320000Y-140732000D02*
X147304000Y-140716000D01*
X147304000Y-140716000D02*
X147304000Y-137160000D01*
X147449000Y-134112000D02*
X147304000Y-133967000D01*
X147304000Y-133967000D02*
X147304000Y-128016000D01*
X147304000Y-134257000D02*
X147449000Y-134112000D01*
X147449000Y-124968000D02*
X147449000Y-119888000D01*
X147304000Y-116840000D02*
X147449000Y-116695000D01*
X147449000Y-116695000D02*
X147449000Y-107841000D01*
X147449000Y-107841000D02*
X147304000Y-107696000D01*
X147320000Y-140732000D02*
X146163000Y-140732000D01*
X146163000Y-140732000D02*
X145163000Y-141732000D01*
X147304000Y-124823000D02*
X147304000Y-128016000D01*
X147449000Y-116695000D02*
X147449000Y-119888000D01*
X147304000Y-124823000D02*
X147449000Y-124968000D01*
X147449000Y-134112000D02*
X147304000Y-134257000D01*
X145163000Y-145163000D02*
X145163000Y-141732000D01*
X145288000Y-145288000D02*
X145163000Y-145163000D01*
X145288000Y-147828000D02*
X145288000Y-145288000D01*
X147320000Y-142732000D02*
X147574000Y-142732000D01*
X147574000Y-142732000D02*
X147828000Y-142986000D01*
X147828000Y-142986000D02*
X147320000Y-142732000D01*
X145304000Y-107696000D02*
X144272000Y-107696000D01*
X145304000Y-116840000D02*
X144272000Y-116840000D01*
X145304000Y-137160000D02*
X144272000Y-137160000D01*
X145304000Y-128016000D02*
X144272000Y-128016000D01*
X147828000Y-142986000D02*
X147828000Y-145288000D01*
D29*
X109728000Y-146598000D02*
X109260000Y-146598000D01*
X109260000Y-146598000D02*
X108051601Y-145389601D01*
X108051601Y-145389601D02*
X108051601Y-141833601D01*
X108051601Y-141833601D02*
X106426000Y-140208000D01*
D28*
X118618000Y-148336000D02*
X117348000Y-148336000D01*
X118618000Y-148336000D02*
X118634000Y-148066000D01*
X119364000Y-147812000D02*
X122428000Y-147812000D01*
X128286000Y-147812000D02*
X122428000Y-147812000D01*
X131826000Y-142748000D02*
X131826000Y-144272000D01*
X131826000Y-144272000D02*
X128286000Y-147812000D01*
X119142000Y-147812000D02*
X119364000Y-147812000D01*
X118618000Y-148336000D02*
X119142000Y-147812000D01*
X116332000Y-147320000D02*
X115316000Y-148336000D01*
X116332000Y-147320000D02*
X117348000Y-148336000D01*
X117348000Y-148336000D02*
X115316000Y-148336000D01*
X115316000Y-148336000D02*
X110744000Y-148336000D01*
X110744000Y-148336000D02*
X109728000Y-147320000D01*
X109728000Y-147320000D02*
X109728000Y-146598000D01*
D30*
X124714000Y-145757000D02*
X124659000Y-145812000D01*
D28*
X122045000Y-143002000D02*
X122299000Y-143256000D01*
X119126000Y-143002000D02*
X122045000Y-143002000D01*
X122299000Y-145683000D02*
X122299000Y-143256000D01*
X122428000Y-145812000D02*
X122299000Y-145683000D01*
D30*
X124659000Y-145812000D02*
X122428000Y-145812000D01*
D28*
X125347000Y-124968000D02*
X124839000Y-124460000D01*
X124839000Y-124460000D02*
X119380000Y-124460000D01*
X119380000Y-124460000D02*
X119126000Y-124714000D01*
X125347000Y-126109000D02*
X125347000Y-126871000D01*
X125347000Y-124968000D02*
X125347000Y-126871000D01*
X126000000Y-127524000D02*
X127508000Y-127524000D01*
X125347000Y-126871000D02*
X126000000Y-127524000D01*
D29*
X127524000Y-127508000D02*
X128524000Y-127508000D01*
X127508000Y-127524000D02*
X127524000Y-127508000D01*
D30*
X114554000Y-115570000D02*
X113284000Y-115570000D01*
D28*
X119759000Y-116985000D02*
X119904000Y-116840000D01*
X119759000Y-119888000D02*
X119759000Y-116985000D01*
X119634000Y-116570000D02*
X118634000Y-115570000D01*
X119904000Y-116840000D02*
X119634000Y-116570000D01*
X118634000Y-115570000D02*
X114554000Y-115570000D01*
D29*
X118833000Y-115570000D02*
X118634000Y-115570000D01*
X119595000Y-115863000D02*
X119634000Y-115824000D01*
X119634000Y-115824000D02*
X119634000Y-116570000D01*
X119595000Y-116531000D02*
X119595000Y-115863000D01*
X119595000Y-114808000D02*
X118833000Y-115570000D01*
X119595000Y-114808000D02*
X119595000Y-116531000D01*
D28*
X108481990Y-136971817D02*
X109472173Y-137962000D01*
X109472173Y-137962000D02*
X113284000Y-137962000D01*
X113284000Y-137962000D02*
X113284000Y-138247000D01*
X128524000Y-137160000D02*
X127492000Y-138192000D01*
X127492000Y-137160000D02*
X127492000Y-138192000D01*
X127492000Y-138192000D02*
X126492000Y-139192000D01*
X127492000Y-137160000D02*
X128524000Y-137160000D01*
X128524000Y-137160000D02*
X132080000Y-137160000D01*
X132080000Y-137160000D02*
X134874000Y-134366000D01*
X134874000Y-134366000D02*
X134874000Y-133604000D01*
X116626000Y-137962000D02*
X113284000Y-137962000D01*
X126492000Y-139192000D02*
X119380000Y-139192000D01*
X117856000Y-139192000D02*
X116626000Y-137962000D01*
D30*
X119380000Y-138684000D02*
X119380000Y-139192000D01*
D28*
X119380000Y-139192000D02*
X117856000Y-139192000D01*
D29*
X103886000Y-140208000D02*
X105511601Y-138582399D01*
X105511601Y-138582399D02*
X107206289Y-138582399D01*
X107206289Y-138582399D02*
X110744000Y-142120110D01*
X110744000Y-142120110D02*
X110744000Y-142240000D01*
D28*
X119126000Y-145288000D02*
X117348000Y-145288000D01*
X114300000Y-142240000D02*
X110744000Y-142240000D01*
X114300000Y-142240000D02*
X117348000Y-145288000D01*
X110744000Y-142240000D02*
X109728000Y-143256000D01*
X109728000Y-143256000D02*
X109728000Y-143978000D01*
X116586000Y-127762000D02*
X117348000Y-127000000D01*
X119126000Y-127000000D02*
X120970000Y-127000000D01*
X119126000Y-127000000D02*
X117348000Y-127000000D01*
X117348000Y-127000000D02*
X114300000Y-123952000D01*
X114300000Y-123952000D02*
X110744000Y-123952000D01*
X110744000Y-123952000D02*
X109982000Y-124714000D01*
X109982000Y-124714000D02*
X109982000Y-125436000D01*
X108498000Y-125690000D02*
X109006000Y-125690000D01*
X109006000Y-125690000D02*
X109982000Y-124714000D01*
X109982000Y-125436000D02*
X109728000Y-125690000D01*
X108498000Y-125690000D02*
X109728000Y-125690000D01*
X109982000Y-124714000D02*
X109728000Y-124968000D01*
X120970000Y-127000000D02*
X121478000Y-126492000D01*
X128778000Y-143256000D02*
X124589000Y-143256000D01*
X129286000Y-142748000D02*
X128778000Y-143256000D01*
X134366000Y-142748000D02*
X134366000Y-142470078D01*
X134366000Y-142470078D02*
X135992079Y-140843999D01*
X135992079Y-140843999D02*
X139724999Y-140843999D01*
X139724999Y-140843999D02*
X140613000Y-141732000D01*
X140613000Y-141732000D02*
X142873000Y-141732000D01*
X132334000Y-124460000D02*
X131826000Y-124968000D01*
X131826000Y-124968000D02*
X127637000Y-124968000D01*
X137414000Y-124460000D02*
X137414000Y-123187208D01*
X137414000Y-123187208D02*
X138045209Y-122555999D01*
X138045209Y-122555999D02*
X142746999Y-122555999D01*
X142746999Y-122555999D02*
X145159000Y-124968000D01*
X137414000Y-133604000D02*
X137414000Y-133326078D01*
X137414000Y-133326078D02*
X139653078Y-131087000D01*
X139653078Y-131087000D02*
X142899000Y-131087000D01*
X142899000Y-131087000D02*
X145159000Y-133347000D01*
X145159000Y-133347000D02*
X145159000Y-134112000D01*
X144651000Y-120396000D02*
X141478000Y-120396000D01*
X145159000Y-119888000D02*
X144651000Y-120396000D01*
X122557000Y-120396000D02*
X122049000Y-119888000D01*
X128778000Y-120396000D02*
X122557000Y-120396000D01*
X144651000Y-111252000D02*
X141478000Y-111252000D01*
X145159000Y-110744000D02*
X144651000Y-111252000D01*
D30*
X119126000Y-129286000D02*
X122240000Y-129286000D01*
X122240000Y-129286000D02*
X123378000Y-128148000D01*
X123378000Y-128148000D02*
X123378000Y-126492000D01*
X111760000Y-120142000D02*
X111291000Y-119673000D01*
X111291000Y-119673000D02*
X111252000Y-119673000D01*
X114554000Y-120142000D02*
X111760000Y-120142000D01*
X114874000Y-119822000D02*
X117348000Y-119822000D01*
X114554000Y-120142000D02*
X114874000Y-119822000D01*
X117348000Y-119822000D02*
X117348000Y-120396000D01*
X114046000Y-110998000D02*
X111919008Y-110998000D01*
X111919008Y-110998000D02*
X111712504Y-111204504D01*
X116840000Y-110236000D02*
X116398000Y-110678000D01*
X116398000Y-110678000D02*
X116398000Y-111252000D01*
X116144000Y-110998000D02*
X116398000Y-111252000D01*
X114046000Y-110998000D02*
X116144000Y-110998000D01*
D28*
X110236000Y-135636000D02*
X112990000Y-135636000D01*
X112990000Y-135636000D02*
X113284000Y-135342000D01*
X109728000Y-128310000D02*
X109728000Y-129032000D01*
X109728000Y-129032000D02*
X112776000Y-132080000D01*
X112776000Y-132080000D02*
X114808000Y-132080000D01*
X124452000Y-130040000D02*
X124452000Y-129090000D01*
X124452000Y-129090000D02*
X124394000Y-129032000D01*
X113284000Y-135342000D02*
X113284000Y-135128000D01*
X113284000Y-135342000D02*
X113284000Y-133604000D01*
X113284000Y-133604000D02*
X114808000Y-132080000D01*
X124968000Y-129524000D02*
X124452000Y-130040000D01*
X124452000Y-130040000D02*
X123428000Y-131064000D01*
X123428000Y-131064000D02*
X121412000Y-131064000D01*
X127508000Y-129524000D02*
X124968000Y-129524000D01*
X124968000Y-129524000D02*
X124886000Y-129524000D01*
X124886000Y-129524000D02*
X124394000Y-129032000D01*
X120904000Y-134112000D02*
X121920000Y-135128000D01*
X121920000Y-135128000D02*
X122682000Y-135128000D01*
X127508000Y-129524000D02*
X131080000Y-129524000D01*
X134874000Y-125730000D02*
X134874000Y-124460000D01*
X131080000Y-129524000D02*
X134874000Y-125730000D01*
X119634000Y-132842000D02*
X120904000Y-134112000D01*
X120396000Y-132080000D02*
X119634000Y-132842000D01*
X118872000Y-132080000D02*
X119634000Y-132842000D01*
X114808000Y-132080000D02*
X118872000Y-132080000D01*
X118872000Y-132080000D02*
X120396000Y-132080000D01*
X121412000Y-131064000D02*
X120396000Y-132080000D01*
X122682000Y-132842000D02*
X124077000Y-132842000D01*
X124077000Y-132842000D02*
X125347000Y-134112000D01*
X125347000Y-134112000D02*
X125347000Y-137015000D01*
X125347000Y-137015000D02*
X125492000Y-137160000D01*
D29*
X125347000Y-135507000D02*
X125476000Y-135636000D01*
X125347000Y-134112000D02*
X125347000Y-135507000D01*
D30*
X114046000Y-106426000D02*
X112053000Y-106426000D01*
X112053000Y-106426000D02*
X111760000Y-106133000D01*
D28*
X120013000Y-106426000D02*
X117602000Y-106426000D01*
X117602000Y-106426000D02*
X114046000Y-106426000D01*
D30*
X117602000Y-106348000D02*
X117602000Y-106426000D01*
D28*
X120013000Y-106426000D02*
X120158000Y-106571000D01*
X120357000Y-106770000D02*
X120013000Y-106426000D01*
X120412000Y-111252000D02*
X120357000Y-111197000D01*
X120357000Y-106770000D02*
X120013000Y-106426000D01*
X120357000Y-108966000D02*
X120357000Y-106770000D01*
X120052002Y-111252000D02*
X120412000Y-111252000D01*
X120357000Y-110947002D02*
X120052002Y-111252000D01*
X120412000Y-109021000D02*
X120357000Y-108966000D01*
X120357000Y-108966000D02*
X120357000Y-110947002D01*
X120412000Y-111252000D02*
X120412000Y-109021000D01*
X127637000Y-134112000D02*
X128145000Y-133604000D01*
X128145000Y-133604000D02*
X132334000Y-133604000D01*
X123952000Y-106426000D02*
X128778000Y-111252000D01*
X122303000Y-106426000D02*
X123952000Y-106426000D01*
D29*
X121904000Y-115007000D02*
X121904000Y-116840000D01*
X121705000Y-114808000D02*
X121904000Y-115007000D01*
D28*
X115570000Y-108712000D02*
X115697000Y-108585000D01*
X114046000Y-108712000D02*
X115570000Y-108712000D01*
X128016000Y-116840000D02*
X131572000Y-120396000D01*
X131572000Y-120396000D02*
X133858000Y-120396000D01*
X121904000Y-116840000D02*
X128016000Y-116840000D01*
X103886000Y-134389990D02*
X103886000Y-114867456D01*
X103886000Y-114867456D02*
X105801457Y-112951999D01*
X105801457Y-112951999D02*
X117548001Y-112951999D01*
X117548001Y-112951999D02*
X118298000Y-112202000D01*
D29*
X103124000Y-137922000D02*
X103886000Y-137922000D01*
X102260399Y-138785601D02*
X103124000Y-137922000D01*
X103886000Y-142748000D02*
X102664686Y-142748000D01*
X102664686Y-142748000D02*
X102260399Y-142343713D01*
X102260399Y-142343713D02*
X102260399Y-138785601D01*
D28*
X118298000Y-111252000D02*
X118298000Y-112202000D01*
X118298000Y-112202000D02*
X119380000Y-113284000D01*
X121412000Y-113284000D02*
X122412000Y-112284000D01*
X124444000Y-113284000D02*
X121412000Y-113284000D01*
X121412000Y-113284000D02*
X121920000Y-113284000D01*
X122412000Y-112792000D02*
X122428000Y-112776000D01*
X122428000Y-112776000D02*
X122428000Y-112268000D01*
X122428000Y-112268000D02*
X122428000Y-112776000D01*
X119380000Y-113284000D02*
X121920000Y-113284000D01*
X121920000Y-113284000D02*
X122428000Y-112776000D01*
X122428000Y-112776000D02*
X123182000Y-112022000D01*
X124444000Y-113284000D02*
X123182000Y-112022000D01*
X131826000Y-113284000D02*
X124444000Y-113284000D01*
X122412000Y-112284000D02*
X122412000Y-111252000D01*
X122412000Y-111252000D02*
X122412000Y-112792000D01*
X133858000Y-111252000D02*
X131826000Y-113284000D01*
X123182000Y-112022000D02*
X122412000Y-111252000D01*
D29*
X122467000Y-111197000D02*
X122412000Y-111252000D01*
X122467000Y-108966000D02*
X122467000Y-111197000D01*
D28*
X105664000Y-115570000D02*
X105664000Y-135636000D01*
X105664000Y-135636000D02*
X105156000Y-136144000D01*
X106210801Y-115023199D02*
X105664000Y-115570000D01*
X114554000Y-117856000D02*
X112602002Y-117856000D01*
X112602002Y-117856000D02*
X109769201Y-115023199D01*
X109769201Y-115023199D02*
X106210801Y-115023199D01*
X102616000Y-136144000D02*
X105156000Y-136144000D01*
X101600000Y-137160000D02*
X102616000Y-136144000D01*
D29*
X100990389Y-137769611D02*
X101600000Y-137160000D01*
X103886000Y-147828000D02*
X100990389Y-144932389D01*
X100990389Y-144932389D02*
X100990389Y-137769611D01*
D30*
X113538000Y-117856000D02*
X113323000Y-117641000D01*
X113323000Y-117641000D02*
X113284000Y-117641000D01*
X114554000Y-117856000D02*
X113538000Y-117856000D01*
D28*
X117282000Y-117856000D02*
X117282000Y-117324002D01*
X117348000Y-117922000D02*
X117282000Y-117856000D01*
X117282000Y-117856000D02*
X114554000Y-117856000D01*
D30*
X120904000Y-136652000D02*
X121666000Y-137414000D01*
X121666000Y-137414000D02*
X122682000Y-137414000D01*
D31*
G36*
X149175000Y-141351000D02*
X147594109Y-141351000D01*
X147574000Y-141347000D01*
X147320000Y-141347000D01*
X147299891Y-141351000D01*
X146685000Y-141351000D01*
X146685000Y-137180109D01*
X146689000Y-137160000D01*
X146685000Y-137139891D01*
X146685000Y-128036109D01*
X146689000Y-128016000D01*
X146685000Y-127995891D01*
X146685000Y-116860109D01*
X146689000Y-116840000D01*
X146685000Y-116819891D01*
X146685000Y-107716109D01*
X146689000Y-107696000D01*
X146685000Y-107675891D01*
X146685000Y-100761000D01*
X149175000Y-100761000D01*
X149175000Y-141351000D01*
X149175000Y-141351000D01*
G37*
X149175000Y-141351000D02*
X147594109Y-141351000D01*
X147574000Y-141347000D01*
X147320000Y-141347000D01*
X147299891Y-141351000D01*
X146685000Y-141351000D01*
X146685000Y-137180109D01*
X146689000Y-137160000D01*
X146685000Y-137139891D01*
X146685000Y-128036109D01*
X146689000Y-128016000D01*
X146685000Y-127995891D01*
X146685000Y-116860109D01*
X146689000Y-116840000D01*
X146685000Y-116819891D01*
X146685000Y-107716109D01*
X146689000Y-107696000D01*
X146685000Y-107675891D01*
X146685000Y-100761000D01*
X149175000Y-100761000D01*
X149175000Y-141351000D01*
G36*
X139633657Y-142711343D02*
X140082983Y-143011573D01*
X140613000Y-143117000D01*
X141465560Y-143117000D01*
X141465560Y-143257000D01*
X141509838Y-143492317D01*
X141648910Y-143708441D01*
X141861110Y-143853431D01*
X142113000Y-143904440D01*
X143633000Y-143904440D01*
X143772543Y-143878183D01*
X143675569Y-144020110D01*
X143624560Y-144272000D01*
X143624560Y-146304000D01*
X143668838Y-146539317D01*
X143678993Y-146555099D01*
X143675569Y-146560110D01*
X143624560Y-146812000D01*
X143624560Y-148844000D01*
X143668838Y-149079317D01*
X143730408Y-149175000D01*
X128396601Y-149175000D01*
X128816017Y-149091573D01*
X129265343Y-148791343D01*
X132805343Y-145251343D01*
X132933121Y-145060110D01*
X133105573Y-144802017D01*
X133211000Y-144272000D01*
X133211000Y-143763696D01*
X133495357Y-144048551D01*
X134059330Y-144282733D01*
X134669991Y-144283265D01*
X135234371Y-144050068D01*
X135456668Y-143828159D01*
X136005446Y-143828159D01*
X136091852Y-144084643D01*
X136665336Y-144294458D01*
X137275460Y-144268839D01*
X137720148Y-144084643D01*
X137806554Y-143828159D01*
X136906000Y-142927605D01*
X136005446Y-143828159D01*
X135456668Y-143828159D01*
X135666551Y-143618643D01*
X135675203Y-143597806D01*
X135825841Y-143648554D01*
X136726395Y-142748000D01*
X136712253Y-142733858D01*
X136891858Y-142554253D01*
X136906000Y-142568395D01*
X136920143Y-142554253D01*
X137099748Y-142733858D01*
X137085605Y-142748000D01*
X137986159Y-143648554D01*
X138242643Y-143562148D01*
X138452458Y-142988664D01*
X138426839Y-142378540D01*
X138364897Y-142228999D01*
X139151313Y-142228999D01*
X139633657Y-142711343D01*
X139633657Y-142711343D01*
G37*
X139633657Y-142711343D02*
X140082983Y-143011573D01*
X140613000Y-143117000D01*
X141465560Y-143117000D01*
X141465560Y-143257000D01*
X141509838Y-143492317D01*
X141648910Y-143708441D01*
X141861110Y-143853431D01*
X142113000Y-143904440D01*
X143633000Y-143904440D01*
X143772543Y-143878183D01*
X143675569Y-144020110D01*
X143624560Y-144272000D01*
X143624560Y-146304000D01*
X143668838Y-146539317D01*
X143678993Y-146555099D01*
X143675569Y-146560110D01*
X143624560Y-146812000D01*
X143624560Y-148844000D01*
X143668838Y-149079317D01*
X143730408Y-149175000D01*
X128396601Y-149175000D01*
X128816017Y-149091573D01*
X129265343Y-148791343D01*
X132805343Y-145251343D01*
X132933121Y-145060110D01*
X133105573Y-144802017D01*
X133211000Y-144272000D01*
X133211000Y-143763696D01*
X133495357Y-144048551D01*
X134059330Y-144282733D01*
X134669991Y-144283265D01*
X135234371Y-144050068D01*
X135456668Y-143828159D01*
X136005446Y-143828159D01*
X136091852Y-144084643D01*
X136665336Y-144294458D01*
X137275460Y-144268839D01*
X137720148Y-144084643D01*
X137806554Y-143828159D01*
X136906000Y-142927605D01*
X136005446Y-143828159D01*
X135456668Y-143828159D01*
X135666551Y-143618643D01*
X135675203Y-143597806D01*
X135825841Y-143648554D01*
X136726395Y-142748000D01*
X136712253Y-142733858D01*
X136891858Y-142554253D01*
X136906000Y-142568395D01*
X136920143Y-142554253D01*
X137099748Y-142733858D01*
X137085605Y-142748000D01*
X137986159Y-143648554D01*
X138242643Y-143562148D01*
X138452458Y-142988664D01*
X138426839Y-142378540D01*
X138364897Y-142228999D01*
X139151313Y-142228999D01*
X139633657Y-142711343D01*
G36*
X147955000Y-145161000D02*
X147975000Y-145161000D01*
X147975000Y-145415000D01*
X147955000Y-145415000D01*
X147955000Y-147701000D01*
X147975000Y-147701000D01*
X147975000Y-147955000D01*
X147955000Y-147955000D01*
X147955000Y-147975000D01*
X147701000Y-147975000D01*
X147701000Y-147955000D01*
X147681000Y-147955000D01*
X147681000Y-147701000D01*
X147701000Y-147701000D01*
X147701000Y-145415000D01*
X147681000Y-145415000D01*
X147681000Y-145161000D01*
X147701000Y-145161000D01*
X147701000Y-145141000D01*
X147955000Y-145141000D01*
X147955000Y-145161000D01*
X147955000Y-145161000D01*
G37*
X147955000Y-145161000D02*
X147975000Y-145161000D01*
X147975000Y-145415000D01*
X147955000Y-145415000D01*
X147955000Y-147701000D01*
X147975000Y-147701000D01*
X147975000Y-147955000D01*
X147955000Y-147955000D01*
X147955000Y-147975000D01*
X147701000Y-147975000D01*
X147701000Y-147955000D01*
X147681000Y-147955000D01*
X147681000Y-147701000D01*
X147701000Y-147701000D01*
X147701000Y-145415000D01*
X147681000Y-145415000D01*
X147681000Y-145161000D01*
X147701000Y-145161000D01*
X147701000Y-145141000D01*
X147955000Y-145141000D01*
X147955000Y-145161000D01*
G36*
X149175000Y-144340991D02*
X149165188Y-144319621D01*
X148692818Y-143881615D01*
X148339679Y-143735347D01*
X148483327Y-143591698D01*
X148580000Y-143358309D01*
X148580000Y-143017750D01*
X148421250Y-142859000D01*
X147447000Y-142859000D01*
X147447000Y-142879000D01*
X147193000Y-142879000D01*
X147193000Y-142859000D01*
X147173000Y-142859000D01*
X147173000Y-142605000D01*
X147193000Y-142605000D01*
X147193000Y-142585000D01*
X147447000Y-142585000D01*
X147447000Y-142605000D01*
X148421250Y-142605000D01*
X148580000Y-142446250D01*
X148580000Y-142113000D01*
X149175000Y-142113000D01*
X149175000Y-144340991D01*
X149175000Y-144340991D01*
G37*
X149175000Y-144340991D02*
X149165188Y-144319621D01*
X148692818Y-143881615D01*
X148339679Y-143735347D01*
X148483327Y-143591698D01*
X148580000Y-143358309D01*
X148580000Y-143017750D01*
X148421250Y-142859000D01*
X147447000Y-142859000D01*
X147447000Y-142879000D01*
X147193000Y-142879000D01*
X147193000Y-142859000D01*
X147173000Y-142859000D01*
X147173000Y-142605000D01*
X147193000Y-142605000D01*
X147193000Y-142585000D01*
X147447000Y-142585000D01*
X147447000Y-142605000D01*
X148421250Y-142605000D01*
X148580000Y-142446250D01*
X148580000Y-142113000D01*
X149175000Y-142113000D01*
X149175000Y-144340991D01*
G36*
X143751560Y-133898246D02*
X143751560Y-135637000D01*
X143795838Y-135872317D01*
X143934910Y-136088441D01*
X144147110Y-136233431D01*
X144234283Y-136251084D01*
X144169000Y-136408690D01*
X144169000Y-136874250D01*
X144327750Y-137033000D01*
X145177000Y-137033000D01*
X145177000Y-137013000D01*
X145431000Y-137013000D01*
X145431000Y-137033000D01*
X145451000Y-137033000D01*
X145451000Y-137287000D01*
X145431000Y-137287000D01*
X145431000Y-138261250D01*
X145589750Y-138420000D01*
X145919000Y-138420000D01*
X145919000Y-139395534D01*
X145632984Y-139452426D01*
X145472647Y-139559560D01*
X144403000Y-139559560D01*
X144167683Y-139603838D01*
X144016973Y-139700817D01*
X143884890Y-139610569D01*
X143633000Y-139559560D01*
X142113000Y-139559560D01*
X141877683Y-139603838D01*
X141661559Y-139742910D01*
X141516569Y-139955110D01*
X141465560Y-140207000D01*
X141465560Y-140347000D01*
X141186686Y-140347000D01*
X140704342Y-139864656D01*
X140559551Y-139767910D01*
X140255016Y-139564426D01*
X139724999Y-139458999D01*
X135992079Y-139458999D01*
X135462062Y-139564426D01*
X135157527Y-139767910D01*
X135012736Y-139864656D01*
X133386657Y-141490735D01*
X133254271Y-141688865D01*
X133095677Y-141847182D01*
X132696643Y-141447449D01*
X132132670Y-141213267D01*
X131522009Y-141212735D01*
X130957629Y-141445932D01*
X130555677Y-141847182D01*
X130156643Y-141447449D01*
X129592670Y-141213267D01*
X128982009Y-141212735D01*
X128417629Y-141445932D01*
X127991817Y-141871000D01*
X126619000Y-141871000D01*
X126619000Y-140551738D01*
X127022017Y-140471573D01*
X127471343Y-140171343D01*
X127815686Y-139827000D01*
X129286000Y-139827000D01*
X129335410Y-139816994D01*
X129377035Y-139788553D01*
X129404315Y-139746159D01*
X129413000Y-139700000D01*
X129413000Y-138545000D01*
X132080000Y-138545000D01*
X132610017Y-138439573D01*
X133059343Y-138139343D01*
X133752936Y-137445750D01*
X144169000Y-137445750D01*
X144169000Y-137911310D01*
X144265673Y-138144699D01*
X144444302Y-138323327D01*
X144677691Y-138420000D01*
X145018250Y-138420000D01*
X145177000Y-138261250D01*
X145177000Y-137287000D01*
X144327750Y-137287000D01*
X144169000Y-137445750D01*
X133752936Y-137445750D01*
X135853343Y-135345343D01*
X136153574Y-134896016D01*
X136216922Y-134577544D01*
X136543357Y-134904551D01*
X137107330Y-135138733D01*
X137717991Y-135139265D01*
X138282371Y-134906068D01*
X138504668Y-134684159D01*
X139053446Y-134684159D01*
X139139852Y-134940643D01*
X139713336Y-135150458D01*
X140323460Y-135124839D01*
X140768148Y-134940643D01*
X140854554Y-134684159D01*
X139954000Y-133783605D01*
X139053446Y-134684159D01*
X138504668Y-134684159D01*
X138714551Y-134474643D01*
X138723203Y-134453806D01*
X138873841Y-134504554D01*
X139774395Y-133604000D01*
X140133605Y-133604000D01*
X141034159Y-134504554D01*
X141290643Y-134418148D01*
X141500458Y-133844664D01*
X141474839Y-133234540D01*
X141290643Y-132789852D01*
X141034159Y-132703446D01*
X140133605Y-133604000D01*
X139774395Y-133604000D01*
X139760253Y-133589858D01*
X139939858Y-133410253D01*
X139954000Y-133424395D01*
X140854554Y-132523841D01*
X140837089Y-132472000D01*
X142325314Y-132472000D01*
X143751560Y-133898246D01*
X143751560Y-133898246D01*
G37*
X143751560Y-133898246D02*
X143751560Y-135637000D01*
X143795838Y-135872317D01*
X143934910Y-136088441D01*
X144147110Y-136233431D01*
X144234283Y-136251084D01*
X144169000Y-136408690D01*
X144169000Y-136874250D01*
X144327750Y-137033000D01*
X145177000Y-137033000D01*
X145177000Y-137013000D01*
X145431000Y-137013000D01*
X145431000Y-137033000D01*
X145451000Y-137033000D01*
X145451000Y-137287000D01*
X145431000Y-137287000D01*
X145431000Y-138261250D01*
X145589750Y-138420000D01*
X145919000Y-138420000D01*
X145919000Y-139395534D01*
X145632984Y-139452426D01*
X145472647Y-139559560D01*
X144403000Y-139559560D01*
X144167683Y-139603838D01*
X144016973Y-139700817D01*
X143884890Y-139610569D01*
X143633000Y-139559560D01*
X142113000Y-139559560D01*
X141877683Y-139603838D01*
X141661559Y-139742910D01*
X141516569Y-139955110D01*
X141465560Y-140207000D01*
X141465560Y-140347000D01*
X141186686Y-140347000D01*
X140704342Y-139864656D01*
X140559551Y-139767910D01*
X140255016Y-139564426D01*
X139724999Y-139458999D01*
X135992079Y-139458999D01*
X135462062Y-139564426D01*
X135157527Y-139767910D01*
X135012736Y-139864656D01*
X133386657Y-141490735D01*
X133254271Y-141688865D01*
X133095677Y-141847182D01*
X132696643Y-141447449D01*
X132132670Y-141213267D01*
X131522009Y-141212735D01*
X130957629Y-141445932D01*
X130555677Y-141847182D01*
X130156643Y-141447449D01*
X129592670Y-141213267D01*
X128982009Y-141212735D01*
X128417629Y-141445932D01*
X127991817Y-141871000D01*
X126619000Y-141871000D01*
X126619000Y-140551738D01*
X127022017Y-140471573D01*
X127471343Y-140171343D01*
X127815686Y-139827000D01*
X129286000Y-139827000D01*
X129335410Y-139816994D01*
X129377035Y-139788553D01*
X129404315Y-139746159D01*
X129413000Y-139700000D01*
X129413000Y-138545000D01*
X132080000Y-138545000D01*
X132610017Y-138439573D01*
X133059343Y-138139343D01*
X133752936Y-137445750D01*
X144169000Y-137445750D01*
X144169000Y-137911310D01*
X144265673Y-138144699D01*
X144444302Y-138323327D01*
X144677691Y-138420000D01*
X145018250Y-138420000D01*
X145177000Y-138261250D01*
X145177000Y-137287000D01*
X144327750Y-137287000D01*
X144169000Y-137445750D01*
X133752936Y-137445750D01*
X135853343Y-135345343D01*
X136153574Y-134896016D01*
X136216922Y-134577544D01*
X136543357Y-134904551D01*
X137107330Y-135138733D01*
X137717991Y-135139265D01*
X138282371Y-134906068D01*
X138504668Y-134684159D01*
X139053446Y-134684159D01*
X139139852Y-134940643D01*
X139713336Y-135150458D01*
X140323460Y-135124839D01*
X140768148Y-134940643D01*
X140854554Y-134684159D01*
X139954000Y-133783605D01*
X139053446Y-134684159D01*
X138504668Y-134684159D01*
X138714551Y-134474643D01*
X138723203Y-134453806D01*
X138873841Y-134504554D01*
X139774395Y-133604000D01*
X140133605Y-133604000D01*
X141034159Y-134504554D01*
X141290643Y-134418148D01*
X141500458Y-133844664D01*
X141474839Y-133234540D01*
X141290643Y-132789852D01*
X141034159Y-132703446D01*
X140133605Y-133604000D01*
X139774395Y-133604000D01*
X139760253Y-133589858D01*
X139939858Y-133410253D01*
X139954000Y-133424395D01*
X140854554Y-132523841D01*
X140837089Y-132472000D01*
X142325314Y-132472000D01*
X143751560Y-133898246D01*
G36*
X143751560Y-125519246D02*
X143751560Y-126493000D01*
X143795838Y-126728317D01*
X143934910Y-126944441D01*
X144147110Y-127089431D01*
X144234283Y-127107084D01*
X144169000Y-127264690D01*
X144169000Y-127730250D01*
X144327750Y-127889000D01*
X145177000Y-127889000D01*
X145177000Y-127869000D01*
X145431000Y-127869000D01*
X145431000Y-127889000D01*
X145451000Y-127889000D01*
X145451000Y-128143000D01*
X145431000Y-128143000D01*
X145431000Y-129117250D01*
X145589750Y-129276000D01*
X145919000Y-129276000D01*
X145919000Y-131939560D01*
X145710246Y-131939560D01*
X143878343Y-130107657D01*
X143798065Y-130054017D01*
X143429017Y-129807427D01*
X142899000Y-129702000D01*
X139653078Y-129702000D01*
X139123061Y-129807427D01*
X138754013Y-130054017D01*
X138673735Y-130107657D01*
X136434657Y-132346735D01*
X136302271Y-132544865D01*
X136143677Y-132703182D01*
X135744643Y-132303449D01*
X135180670Y-132069267D01*
X134570009Y-132068735D01*
X134005629Y-132301932D01*
X133603677Y-132703182D01*
X133204643Y-132303449D01*
X132640670Y-132069267D01*
X132030009Y-132068735D01*
X131666340Y-132219000D01*
X129413000Y-132219000D01*
X129413000Y-130909000D01*
X131080000Y-130909000D01*
X131610017Y-130803573D01*
X132059343Y-130503343D01*
X134260936Y-128301750D01*
X144169000Y-128301750D01*
X144169000Y-128767310D01*
X144265673Y-129000699D01*
X144444302Y-129179327D01*
X144677691Y-129276000D01*
X145018250Y-129276000D01*
X145177000Y-129117250D01*
X145177000Y-128143000D01*
X144327750Y-128143000D01*
X144169000Y-128301750D01*
X134260936Y-128301750D01*
X135853343Y-126709343D01*
X135962998Y-126545233D01*
X136153573Y-126260017D01*
X136259000Y-125730000D01*
X136259000Y-125475696D01*
X136543357Y-125760551D01*
X137107330Y-125994733D01*
X137717991Y-125995265D01*
X138282371Y-125762068D01*
X138504668Y-125540159D01*
X139053446Y-125540159D01*
X139139852Y-125796643D01*
X139713336Y-126006458D01*
X140323460Y-125980839D01*
X140768148Y-125796643D01*
X140854554Y-125540159D01*
X139954000Y-124639605D01*
X139053446Y-125540159D01*
X138504668Y-125540159D01*
X138714551Y-125330643D01*
X138723203Y-125309806D01*
X138873841Y-125360554D01*
X139774395Y-124460000D01*
X139760253Y-124445858D01*
X139939858Y-124266253D01*
X139954000Y-124280395D01*
X139968143Y-124266253D01*
X140147748Y-124445858D01*
X140133605Y-124460000D01*
X141034159Y-125360554D01*
X141290643Y-125274148D01*
X141500458Y-124700664D01*
X141474839Y-124090540D01*
X141412897Y-123940999D01*
X142173313Y-123940999D01*
X143751560Y-125519246D01*
X143751560Y-125519246D01*
G37*
X143751560Y-125519246D02*
X143751560Y-126493000D01*
X143795838Y-126728317D01*
X143934910Y-126944441D01*
X144147110Y-127089431D01*
X144234283Y-127107084D01*
X144169000Y-127264690D01*
X144169000Y-127730250D01*
X144327750Y-127889000D01*
X145177000Y-127889000D01*
X145177000Y-127869000D01*
X145431000Y-127869000D01*
X145431000Y-127889000D01*
X145451000Y-127889000D01*
X145451000Y-128143000D01*
X145431000Y-128143000D01*
X145431000Y-129117250D01*
X145589750Y-129276000D01*
X145919000Y-129276000D01*
X145919000Y-131939560D01*
X145710246Y-131939560D01*
X143878343Y-130107657D01*
X143798065Y-130054017D01*
X143429017Y-129807427D01*
X142899000Y-129702000D01*
X139653078Y-129702000D01*
X139123061Y-129807427D01*
X138754013Y-130054017D01*
X138673735Y-130107657D01*
X136434657Y-132346735D01*
X136302271Y-132544865D01*
X136143677Y-132703182D01*
X135744643Y-132303449D01*
X135180670Y-132069267D01*
X134570009Y-132068735D01*
X134005629Y-132301932D01*
X133603677Y-132703182D01*
X133204643Y-132303449D01*
X132640670Y-132069267D01*
X132030009Y-132068735D01*
X131666340Y-132219000D01*
X129413000Y-132219000D01*
X129413000Y-130909000D01*
X131080000Y-130909000D01*
X131610017Y-130803573D01*
X132059343Y-130503343D01*
X134260936Y-128301750D01*
X144169000Y-128301750D01*
X144169000Y-128767310D01*
X144265673Y-129000699D01*
X144444302Y-129179327D01*
X144677691Y-129276000D01*
X145018250Y-129276000D01*
X145177000Y-129117250D01*
X145177000Y-128143000D01*
X144327750Y-128143000D01*
X144169000Y-128301750D01*
X134260936Y-128301750D01*
X135853343Y-126709343D01*
X135962998Y-126545233D01*
X136153573Y-126260017D01*
X136259000Y-125730000D01*
X136259000Y-125475696D01*
X136543357Y-125760551D01*
X137107330Y-125994733D01*
X137717991Y-125995265D01*
X138282371Y-125762068D01*
X138504668Y-125540159D01*
X139053446Y-125540159D01*
X139139852Y-125796643D01*
X139713336Y-126006458D01*
X140323460Y-125980839D01*
X140768148Y-125796643D01*
X140854554Y-125540159D01*
X139954000Y-124639605D01*
X139053446Y-125540159D01*
X138504668Y-125540159D01*
X138714551Y-125330643D01*
X138723203Y-125309806D01*
X138873841Y-125360554D01*
X139774395Y-124460000D01*
X139760253Y-124445858D01*
X139939858Y-124266253D01*
X139954000Y-124280395D01*
X139968143Y-124266253D01*
X140147748Y-124445858D01*
X140133605Y-124460000D01*
X141034159Y-125360554D01*
X141290643Y-125274148D01*
X141500458Y-124700664D01*
X141474839Y-124090540D01*
X141412897Y-123940999D01*
X142173313Y-123940999D01*
X143751560Y-125519246D01*
G36*
X145923000Y-106436000D02*
X145589750Y-106436000D01*
X145431000Y-106594750D01*
X145431000Y-107569000D01*
X145451000Y-107569000D01*
X145451000Y-107823000D01*
X145431000Y-107823000D01*
X145431000Y-107843000D01*
X145177000Y-107843000D01*
X145177000Y-107823000D01*
X144327750Y-107823000D01*
X144169000Y-107981750D01*
X144169000Y-108447310D01*
X144233375Y-108602725D01*
X144163683Y-108615838D01*
X143947559Y-108754910D01*
X143802569Y-108967110D01*
X143751560Y-109219000D01*
X143751560Y-109867000D01*
X142145267Y-109867000D01*
X141784670Y-109717267D01*
X141174009Y-109716735D01*
X140609629Y-109949932D01*
X140177449Y-110381357D01*
X140168797Y-110402194D01*
X140018159Y-110351446D01*
X139117605Y-111252000D01*
X140018159Y-112152554D01*
X140168327Y-112101965D01*
X140175932Y-112120371D01*
X140607357Y-112552551D01*
X141171330Y-112786733D01*
X141781991Y-112787265D01*
X142145660Y-112637000D01*
X143881217Y-112637000D01*
X143934910Y-112720441D01*
X144147110Y-112865431D01*
X144399000Y-112916440D01*
X145919000Y-112916440D01*
X145923000Y-112915687D01*
X145923000Y-115580000D01*
X145589750Y-115580000D01*
X145431000Y-115738750D01*
X145431000Y-116713000D01*
X145451000Y-116713000D01*
X145451000Y-116967000D01*
X145431000Y-116967000D01*
X145431000Y-116987000D01*
X145177000Y-116987000D01*
X145177000Y-116967000D01*
X144327750Y-116967000D01*
X144169000Y-117125750D01*
X144169000Y-117591310D01*
X144233375Y-117746725D01*
X144163683Y-117759838D01*
X143947559Y-117898910D01*
X143802569Y-118111110D01*
X143751560Y-118363000D01*
X143751560Y-119011000D01*
X142145267Y-119011000D01*
X141784670Y-118861267D01*
X141174009Y-118860735D01*
X140609629Y-119093932D01*
X140177449Y-119525357D01*
X140168797Y-119546194D01*
X140018159Y-119495446D01*
X139117605Y-120396000D01*
X139131748Y-120410143D01*
X138952143Y-120589748D01*
X138938000Y-120575605D01*
X138923858Y-120589748D01*
X138744253Y-120410143D01*
X138758395Y-120396000D01*
X137857841Y-119495446D01*
X137601357Y-119581852D01*
X137391542Y-120155336D01*
X137417161Y-120765460D01*
X137601357Y-121210148D01*
X137693068Y-121241044D01*
X137515192Y-121276426D01*
X137065866Y-121576656D01*
X136434657Y-122207865D01*
X136134427Y-122657191D01*
X136029000Y-123187208D01*
X136029000Y-123444304D01*
X135744643Y-123159449D01*
X135180670Y-122925267D01*
X134570009Y-122924735D01*
X134005629Y-123157932D01*
X133603677Y-123559182D01*
X133204643Y-123159449D01*
X132640670Y-122925267D01*
X132030009Y-122924735D01*
X131465629Y-123157932D01*
X131039817Y-123583000D01*
X129413000Y-123583000D01*
X129413000Y-122682000D01*
X129402994Y-122632590D01*
X129374553Y-122590965D01*
X129332159Y-122563685D01*
X129286000Y-122555000D01*
X124079000Y-122555000D01*
X124079000Y-121781000D01*
X128110733Y-121781000D01*
X128471330Y-121930733D01*
X129081991Y-121931265D01*
X129646371Y-121698068D01*
X130078551Y-121266643D01*
X130197499Y-120980185D01*
X130592657Y-121375343D01*
X131041983Y-121675573D01*
X131572000Y-121781000D01*
X133190733Y-121781000D01*
X133551330Y-121930733D01*
X134161991Y-121931265D01*
X134726371Y-121698068D01*
X135158551Y-121266643D01*
X135392733Y-120702670D01*
X135393265Y-120092009D01*
X135160068Y-119527629D01*
X134948650Y-119315841D01*
X138037446Y-119315841D01*
X138938000Y-120216395D01*
X139838554Y-119315841D01*
X139752148Y-119059357D01*
X139178664Y-118849542D01*
X138568540Y-118875161D01*
X138123852Y-119059357D01*
X138037446Y-119315841D01*
X134948650Y-119315841D01*
X134728643Y-119095449D01*
X134164670Y-118861267D01*
X133554009Y-118860735D01*
X133190340Y-119011000D01*
X132145686Y-119011000D01*
X129223376Y-116088690D01*
X144169000Y-116088690D01*
X144169000Y-116554250D01*
X144327750Y-116713000D01*
X145177000Y-116713000D01*
X145177000Y-115738750D01*
X145018250Y-115580000D01*
X144677691Y-115580000D01*
X144444302Y-115676673D01*
X144265673Y-115855301D01*
X144169000Y-116088690D01*
X129223376Y-116088690D01*
X128995343Y-115860657D01*
X128987327Y-115855301D01*
X128546017Y-115560427D01*
X128016000Y-115455000D01*
X124079000Y-115455000D01*
X124079000Y-114669000D01*
X131826000Y-114669000D01*
X132356017Y-114563573D01*
X132805343Y-114263343D01*
X134365516Y-112703170D01*
X134726371Y-112554068D01*
X134948668Y-112332159D01*
X138037446Y-112332159D01*
X138123852Y-112588643D01*
X138697336Y-112798458D01*
X139307460Y-112772839D01*
X139752148Y-112588643D01*
X139838554Y-112332159D01*
X138938000Y-111431605D01*
X138037446Y-112332159D01*
X134948668Y-112332159D01*
X135158551Y-112122643D01*
X135392733Y-111558670D01*
X135393209Y-111011336D01*
X137391542Y-111011336D01*
X137417161Y-111621460D01*
X137601357Y-112066148D01*
X137857841Y-112152554D01*
X138758395Y-111252000D01*
X137857841Y-110351446D01*
X137601357Y-110437852D01*
X137391542Y-111011336D01*
X135393209Y-111011336D01*
X135393265Y-110948009D01*
X135160068Y-110383629D01*
X134948650Y-110171841D01*
X138037446Y-110171841D01*
X138938000Y-111072395D01*
X139838554Y-110171841D01*
X139752148Y-109915357D01*
X139178664Y-109705542D01*
X138568540Y-109731161D01*
X138123852Y-109915357D01*
X138037446Y-110171841D01*
X134948650Y-110171841D01*
X134728643Y-109951449D01*
X134164670Y-109717267D01*
X133554009Y-109716735D01*
X132989629Y-109949932D01*
X132557449Y-110381357D01*
X132406549Y-110744765D01*
X131252314Y-111899000D01*
X130171416Y-111899000D01*
X130312733Y-111558670D01*
X130313265Y-110948009D01*
X130080068Y-110383629D01*
X129648643Y-109951449D01*
X129285235Y-109800549D01*
X126429376Y-106944690D01*
X144169000Y-106944690D01*
X144169000Y-107410250D01*
X144327750Y-107569000D01*
X145177000Y-107569000D01*
X145177000Y-106594750D01*
X145018250Y-106436000D01*
X144677691Y-106436000D01*
X144444302Y-106532673D01*
X144265673Y-106711301D01*
X144169000Y-106944690D01*
X126429376Y-106944690D01*
X124931343Y-105446657D01*
X124482017Y-105146427D01*
X124079000Y-105066262D01*
X124079000Y-100761000D01*
X145923000Y-100761000D01*
X145923000Y-106436000D01*
X145923000Y-106436000D01*
G37*
X145923000Y-106436000D02*
X145589750Y-106436000D01*
X145431000Y-106594750D01*
X145431000Y-107569000D01*
X145451000Y-107569000D01*
X145451000Y-107823000D01*
X145431000Y-107823000D01*
X145431000Y-107843000D01*
X145177000Y-107843000D01*
X145177000Y-107823000D01*
X144327750Y-107823000D01*
X144169000Y-107981750D01*
X144169000Y-108447310D01*
X144233375Y-108602725D01*
X144163683Y-108615838D01*
X143947559Y-108754910D01*
X143802569Y-108967110D01*
X143751560Y-109219000D01*
X143751560Y-109867000D01*
X142145267Y-109867000D01*
X141784670Y-109717267D01*
X141174009Y-109716735D01*
X140609629Y-109949932D01*
X140177449Y-110381357D01*
X140168797Y-110402194D01*
X140018159Y-110351446D01*
X139117605Y-111252000D01*
X140018159Y-112152554D01*
X140168327Y-112101965D01*
X140175932Y-112120371D01*
X140607357Y-112552551D01*
X141171330Y-112786733D01*
X141781991Y-112787265D01*
X142145660Y-112637000D01*
X143881217Y-112637000D01*
X143934910Y-112720441D01*
X144147110Y-112865431D01*
X144399000Y-112916440D01*
X145919000Y-112916440D01*
X145923000Y-112915687D01*
X145923000Y-115580000D01*
X145589750Y-115580000D01*
X145431000Y-115738750D01*
X145431000Y-116713000D01*
X145451000Y-116713000D01*
X145451000Y-116967000D01*
X145431000Y-116967000D01*
X145431000Y-116987000D01*
X145177000Y-116987000D01*
X145177000Y-116967000D01*
X144327750Y-116967000D01*
X144169000Y-117125750D01*
X144169000Y-117591310D01*
X144233375Y-117746725D01*
X144163683Y-117759838D01*
X143947559Y-117898910D01*
X143802569Y-118111110D01*
X143751560Y-118363000D01*
X143751560Y-119011000D01*
X142145267Y-119011000D01*
X141784670Y-118861267D01*
X141174009Y-118860735D01*
X140609629Y-119093932D01*
X140177449Y-119525357D01*
X140168797Y-119546194D01*
X140018159Y-119495446D01*
X139117605Y-120396000D01*
X139131748Y-120410143D01*
X138952143Y-120589748D01*
X138938000Y-120575605D01*
X138923858Y-120589748D01*
X138744253Y-120410143D01*
X138758395Y-120396000D01*
X137857841Y-119495446D01*
X137601357Y-119581852D01*
X137391542Y-120155336D01*
X137417161Y-120765460D01*
X137601357Y-121210148D01*
X137693068Y-121241044D01*
X137515192Y-121276426D01*
X137065866Y-121576656D01*
X136434657Y-122207865D01*
X136134427Y-122657191D01*
X136029000Y-123187208D01*
X136029000Y-123444304D01*
X135744643Y-123159449D01*
X135180670Y-122925267D01*
X134570009Y-122924735D01*
X134005629Y-123157932D01*
X133603677Y-123559182D01*
X133204643Y-123159449D01*
X132640670Y-122925267D01*
X132030009Y-122924735D01*
X131465629Y-123157932D01*
X131039817Y-123583000D01*
X129413000Y-123583000D01*
X129413000Y-122682000D01*
X129402994Y-122632590D01*
X129374553Y-122590965D01*
X129332159Y-122563685D01*
X129286000Y-122555000D01*
X124079000Y-122555000D01*
X124079000Y-121781000D01*
X128110733Y-121781000D01*
X128471330Y-121930733D01*
X129081991Y-121931265D01*
X129646371Y-121698068D01*
X130078551Y-121266643D01*
X130197499Y-120980185D01*
X130592657Y-121375343D01*
X131041983Y-121675573D01*
X131572000Y-121781000D01*
X133190733Y-121781000D01*
X133551330Y-121930733D01*
X134161991Y-121931265D01*
X134726371Y-121698068D01*
X135158551Y-121266643D01*
X135392733Y-120702670D01*
X135393265Y-120092009D01*
X135160068Y-119527629D01*
X134948650Y-119315841D01*
X138037446Y-119315841D01*
X138938000Y-120216395D01*
X139838554Y-119315841D01*
X139752148Y-119059357D01*
X139178664Y-118849542D01*
X138568540Y-118875161D01*
X138123852Y-119059357D01*
X138037446Y-119315841D01*
X134948650Y-119315841D01*
X134728643Y-119095449D01*
X134164670Y-118861267D01*
X133554009Y-118860735D01*
X133190340Y-119011000D01*
X132145686Y-119011000D01*
X129223376Y-116088690D01*
X144169000Y-116088690D01*
X144169000Y-116554250D01*
X144327750Y-116713000D01*
X145177000Y-116713000D01*
X145177000Y-115738750D01*
X145018250Y-115580000D01*
X144677691Y-115580000D01*
X144444302Y-115676673D01*
X144265673Y-115855301D01*
X144169000Y-116088690D01*
X129223376Y-116088690D01*
X128995343Y-115860657D01*
X128987327Y-115855301D01*
X128546017Y-115560427D01*
X128016000Y-115455000D01*
X124079000Y-115455000D01*
X124079000Y-114669000D01*
X131826000Y-114669000D01*
X132356017Y-114563573D01*
X132805343Y-114263343D01*
X134365516Y-112703170D01*
X134726371Y-112554068D01*
X134948668Y-112332159D01*
X138037446Y-112332159D01*
X138123852Y-112588643D01*
X138697336Y-112798458D01*
X139307460Y-112772839D01*
X139752148Y-112588643D01*
X139838554Y-112332159D01*
X138938000Y-111431605D01*
X138037446Y-112332159D01*
X134948668Y-112332159D01*
X135158551Y-112122643D01*
X135392733Y-111558670D01*
X135393209Y-111011336D01*
X137391542Y-111011336D01*
X137417161Y-111621460D01*
X137601357Y-112066148D01*
X137857841Y-112152554D01*
X138758395Y-111252000D01*
X137857841Y-110351446D01*
X137601357Y-110437852D01*
X137391542Y-111011336D01*
X135393209Y-111011336D01*
X135393265Y-110948009D01*
X135160068Y-110383629D01*
X134948650Y-110171841D01*
X138037446Y-110171841D01*
X138938000Y-111072395D01*
X139838554Y-110171841D01*
X139752148Y-109915357D01*
X139178664Y-109705542D01*
X138568540Y-109731161D01*
X138123852Y-109915357D01*
X138037446Y-110171841D01*
X134948650Y-110171841D01*
X134728643Y-109951449D01*
X134164670Y-109717267D01*
X133554009Y-109716735D01*
X132989629Y-109949932D01*
X132557449Y-110381357D01*
X132406549Y-110744765D01*
X131252314Y-111899000D01*
X130171416Y-111899000D01*
X130312733Y-111558670D01*
X130313265Y-110948009D01*
X130080068Y-110383629D01*
X129648643Y-109951449D01*
X129285235Y-109800549D01*
X126429376Y-106944690D01*
X144169000Y-106944690D01*
X144169000Y-107410250D01*
X144327750Y-107569000D01*
X145177000Y-107569000D01*
X145177000Y-106594750D01*
X145018250Y-106436000D01*
X144677691Y-106436000D01*
X144444302Y-106532673D01*
X144265673Y-106711301D01*
X144169000Y-106944690D01*
X126429376Y-106944690D01*
X124931343Y-105446657D01*
X124482017Y-105146427D01*
X124079000Y-105066262D01*
X124079000Y-100761000D01*
X145923000Y-100761000D01*
X145923000Y-106436000D01*
G36*
X123063000Y-104253560D02*
X121543000Y-104253560D01*
X121307683Y-104297838D01*
X121156973Y-104394817D01*
X121024890Y-104304569D01*
X120773000Y-104253560D01*
X119253000Y-104253560D01*
X119017683Y-104297838D01*
X118801559Y-104436910D01*
X118656569Y-104649110D01*
X118605560Y-104901000D01*
X118605560Y-105041000D01*
X114046000Y-105041000D01*
X113515983Y-105146427D01*
X113330205Y-105270560D01*
X113030000Y-105270560D01*
X112794683Y-105314838D01*
X112643873Y-105411882D01*
X112403765Y-105171355D01*
X111986756Y-104998197D01*
X111535225Y-104997803D01*
X111117914Y-105170233D01*
X110798355Y-105489235D01*
X110625197Y-105906244D01*
X110624803Y-106357775D01*
X110797233Y-106775086D01*
X111116235Y-107094645D01*
X111533244Y-107267803D01*
X111816966Y-107268051D01*
X112053000Y-107315000D01*
X112520582Y-107315000D01*
X112565910Y-107385441D01*
X112778110Y-107530431D01*
X112968569Y-107569000D01*
X112903690Y-107569000D01*
X112670301Y-107665673D01*
X112491673Y-107844302D01*
X112395000Y-108077691D01*
X112395000Y-108426250D01*
X112553750Y-108585000D01*
X113919000Y-108585000D01*
X113919000Y-108565000D01*
X114173000Y-108565000D01*
X114173000Y-108585000D01*
X115538250Y-108585000D01*
X115697000Y-108426250D01*
X115697000Y-108077691D01*
X115600327Y-107844302D01*
X115567025Y-107811000D01*
X118605560Y-107811000D01*
X118605560Y-107951000D01*
X118649838Y-108186317D01*
X118788910Y-108402441D01*
X118972000Y-108527541D01*
X118972000Y-110054840D01*
X118899890Y-110005569D01*
X118867932Y-109999097D01*
X118828017Y-109972427D01*
X118298000Y-109867000D01*
X117944646Y-109937286D01*
X117802767Y-109593914D01*
X117483765Y-109274355D01*
X117066756Y-109101197D01*
X116615225Y-109100803D01*
X116197914Y-109273233D01*
X115878355Y-109592235D01*
X115705197Y-110009244D01*
X115705146Y-110068036D01*
X115641486Y-110109000D01*
X115571418Y-110109000D01*
X115526090Y-110038559D01*
X115313890Y-109893569D01*
X115123431Y-109855000D01*
X115188310Y-109855000D01*
X115421699Y-109758327D01*
X115600327Y-109579698D01*
X115697000Y-109346309D01*
X115697000Y-108997750D01*
X115538250Y-108839000D01*
X114173000Y-108839000D01*
X114173000Y-108859000D01*
X113919000Y-108859000D01*
X113919000Y-108839000D01*
X112553750Y-108839000D01*
X112395000Y-108997750D01*
X112395000Y-109346309D01*
X112491673Y-109579698D01*
X112670301Y-109758327D01*
X112903690Y-109855000D01*
X112963887Y-109855000D01*
X112794683Y-109886838D01*
X112578559Y-110025910D01*
X112521786Y-110109000D01*
X112033902Y-110109000D01*
X111939260Y-110069701D01*
X111487729Y-110069307D01*
X111070418Y-110241737D01*
X110750859Y-110560739D01*
X110577701Y-110977748D01*
X110577307Y-111429279D01*
X110634212Y-111566999D01*
X105801457Y-111566999D01*
X105271440Y-111672426D01*
X104932348Y-111899000D01*
X104822114Y-111972656D01*
X102906657Y-113888113D01*
X102606427Y-114337439D01*
X102501000Y-114867456D01*
X102501000Y-134389354D01*
X102500760Y-134664275D01*
X102545679Y-134772988D01*
X102085983Y-134864427D01*
X101691518Y-135128000D01*
X101636657Y-135164657D01*
X100761000Y-136040314D01*
X100761000Y-106883200D01*
X105778560Y-106883200D01*
X105778560Y-110540800D01*
X105822838Y-110776117D01*
X105961910Y-110992241D01*
X106174110Y-111137231D01*
X106426000Y-111188240D01*
X108458000Y-111188240D01*
X108693317Y-111143962D01*
X108909441Y-111004890D01*
X109054431Y-110792690D01*
X109105440Y-110540800D01*
X109105440Y-106883200D01*
X109061162Y-106647883D01*
X108922090Y-106431759D01*
X108709890Y-106286769D01*
X108458000Y-106235760D01*
X106426000Y-106235760D01*
X106190683Y-106280038D01*
X105974559Y-106419110D01*
X105829569Y-106631310D01*
X105778560Y-106883200D01*
X100761000Y-106883200D01*
X100761000Y-100761000D01*
X123063000Y-100761000D01*
X123063000Y-104253560D01*
X123063000Y-104253560D01*
G37*
X123063000Y-104253560D02*
X121543000Y-104253560D01*
X121307683Y-104297838D01*
X121156973Y-104394817D01*
X121024890Y-104304569D01*
X120773000Y-104253560D01*
X119253000Y-104253560D01*
X119017683Y-104297838D01*
X118801559Y-104436910D01*
X118656569Y-104649110D01*
X118605560Y-104901000D01*
X118605560Y-105041000D01*
X114046000Y-105041000D01*
X113515983Y-105146427D01*
X113330205Y-105270560D01*
X113030000Y-105270560D01*
X112794683Y-105314838D01*
X112643873Y-105411882D01*
X112403765Y-105171355D01*
X111986756Y-104998197D01*
X111535225Y-104997803D01*
X111117914Y-105170233D01*
X110798355Y-105489235D01*
X110625197Y-105906244D01*
X110624803Y-106357775D01*
X110797233Y-106775086D01*
X111116235Y-107094645D01*
X111533244Y-107267803D01*
X111816966Y-107268051D01*
X112053000Y-107315000D01*
X112520582Y-107315000D01*
X112565910Y-107385441D01*
X112778110Y-107530431D01*
X112968569Y-107569000D01*
X112903690Y-107569000D01*
X112670301Y-107665673D01*
X112491673Y-107844302D01*
X112395000Y-108077691D01*
X112395000Y-108426250D01*
X112553750Y-108585000D01*
X113919000Y-108585000D01*
X113919000Y-108565000D01*
X114173000Y-108565000D01*
X114173000Y-108585000D01*
X115538250Y-108585000D01*
X115697000Y-108426250D01*
X115697000Y-108077691D01*
X115600327Y-107844302D01*
X115567025Y-107811000D01*
X118605560Y-107811000D01*
X118605560Y-107951000D01*
X118649838Y-108186317D01*
X118788910Y-108402441D01*
X118972000Y-108527541D01*
X118972000Y-110054840D01*
X118899890Y-110005569D01*
X118867932Y-109999097D01*
X118828017Y-109972427D01*
X118298000Y-109867000D01*
X117944646Y-109937286D01*
X117802767Y-109593914D01*
X117483765Y-109274355D01*
X117066756Y-109101197D01*
X116615225Y-109100803D01*
X116197914Y-109273233D01*
X115878355Y-109592235D01*
X115705197Y-110009244D01*
X115705146Y-110068036D01*
X115641486Y-110109000D01*
X115571418Y-110109000D01*
X115526090Y-110038559D01*
X115313890Y-109893569D01*
X115123431Y-109855000D01*
X115188310Y-109855000D01*
X115421699Y-109758327D01*
X115600327Y-109579698D01*
X115697000Y-109346309D01*
X115697000Y-108997750D01*
X115538250Y-108839000D01*
X114173000Y-108839000D01*
X114173000Y-108859000D01*
X113919000Y-108859000D01*
X113919000Y-108839000D01*
X112553750Y-108839000D01*
X112395000Y-108997750D01*
X112395000Y-109346309D01*
X112491673Y-109579698D01*
X112670301Y-109758327D01*
X112903690Y-109855000D01*
X112963887Y-109855000D01*
X112794683Y-109886838D01*
X112578559Y-110025910D01*
X112521786Y-110109000D01*
X112033902Y-110109000D01*
X111939260Y-110069701D01*
X111487729Y-110069307D01*
X111070418Y-110241737D01*
X110750859Y-110560739D01*
X110577701Y-110977748D01*
X110577307Y-111429279D01*
X110634212Y-111566999D01*
X105801457Y-111566999D01*
X105271440Y-111672426D01*
X104932348Y-111899000D01*
X104822114Y-111972656D01*
X102906657Y-113888113D01*
X102606427Y-114337439D01*
X102501000Y-114867456D01*
X102501000Y-134389354D01*
X102500760Y-134664275D01*
X102545679Y-134772988D01*
X102085983Y-134864427D01*
X101691518Y-135128000D01*
X101636657Y-135164657D01*
X100761000Y-136040314D01*
X100761000Y-106883200D01*
X105778560Y-106883200D01*
X105778560Y-110540800D01*
X105822838Y-110776117D01*
X105961910Y-110992241D01*
X106174110Y-111137231D01*
X106426000Y-111188240D01*
X108458000Y-111188240D01*
X108693317Y-111143962D01*
X108909441Y-111004890D01*
X109054431Y-110792690D01*
X109105440Y-110540800D01*
X109105440Y-106883200D01*
X109061162Y-106647883D01*
X108922090Y-106431759D01*
X108709890Y-106286769D01*
X108458000Y-106235760D01*
X106426000Y-106235760D01*
X106190683Y-106280038D01*
X105974559Y-106419110D01*
X105829569Y-106631310D01*
X105778560Y-106883200D01*
X100761000Y-106883200D01*
X100761000Y-100761000D01*
X123063000Y-100761000D01*
X123063000Y-104253560D01*
G36*
X120933750Y-114695500D02*
X121578000Y-114695500D01*
X121578000Y-114669000D01*
X121832000Y-114669000D01*
X121832000Y-114695500D01*
X122476250Y-114695500D01*
X122502750Y-114669000D01*
X123063000Y-114669000D01*
X123063000Y-117768011D01*
X123060890Y-117766569D01*
X122973717Y-117748916D01*
X123039000Y-117591310D01*
X123039000Y-117125750D01*
X122880250Y-116967000D01*
X122031000Y-116967000D01*
X122031000Y-116987000D01*
X121777000Y-116987000D01*
X121777000Y-116967000D01*
X121757000Y-116967000D01*
X121757000Y-116713000D01*
X121777000Y-116713000D01*
X121777000Y-116693000D01*
X122031000Y-116693000D01*
X122031000Y-116713000D01*
X122880250Y-116713000D01*
X123039000Y-116554250D01*
X123039000Y-116088690D01*
X122942327Y-115855301D01*
X122763698Y-115676673D01*
X122530309Y-115580000D01*
X122338760Y-115580000D01*
X122359698Y-115571327D01*
X122538327Y-115392699D01*
X122635000Y-115159310D01*
X122635000Y-115079250D01*
X122476250Y-114920500D01*
X121832000Y-114920500D01*
X121832000Y-114955000D01*
X121578000Y-114955000D01*
X121578000Y-114920500D01*
X120933750Y-114920500D01*
X120775000Y-115079250D01*
X120775000Y-115159310D01*
X120871673Y-115392699D01*
X121050302Y-115571327D01*
X121174466Y-115622757D01*
X121044302Y-115676673D01*
X120903064Y-115817910D01*
X120868090Y-115763559D01*
X120748759Y-115682024D01*
X120738000Y-115627935D01*
X120738000Y-114808000D01*
X120710351Y-114669000D01*
X120907250Y-114669000D01*
X120933750Y-114695500D01*
X120933750Y-114695500D01*
G37*
X120933750Y-114695500D02*
X121578000Y-114695500D01*
X121578000Y-114669000D01*
X121832000Y-114669000D01*
X121832000Y-114695500D01*
X122476250Y-114695500D01*
X122502750Y-114669000D01*
X123063000Y-114669000D01*
X123063000Y-117768011D01*
X123060890Y-117766569D01*
X122973717Y-117748916D01*
X123039000Y-117591310D01*
X123039000Y-117125750D01*
X122880250Y-116967000D01*
X122031000Y-116967000D01*
X122031000Y-116987000D01*
X121777000Y-116987000D01*
X121777000Y-116967000D01*
X121757000Y-116967000D01*
X121757000Y-116713000D01*
X121777000Y-116713000D01*
X121777000Y-116693000D01*
X122031000Y-116693000D01*
X122031000Y-116713000D01*
X122880250Y-116713000D01*
X123039000Y-116554250D01*
X123039000Y-116088690D01*
X122942327Y-115855301D01*
X122763698Y-115676673D01*
X122530309Y-115580000D01*
X122338760Y-115580000D01*
X122359698Y-115571327D01*
X122538327Y-115392699D01*
X122635000Y-115159310D01*
X122635000Y-115079250D01*
X122476250Y-114920500D01*
X121832000Y-114920500D01*
X121832000Y-114955000D01*
X121578000Y-114955000D01*
X121578000Y-114920500D01*
X120933750Y-114920500D01*
X120775000Y-115079250D01*
X120775000Y-115159310D01*
X120871673Y-115392699D01*
X121050302Y-115571327D01*
X121174466Y-115622757D01*
X121044302Y-115676673D01*
X120903064Y-115817910D01*
X120868090Y-115763559D01*
X120748759Y-115682024D01*
X120738000Y-115627935D01*
X120738000Y-114808000D01*
X120710351Y-114669000D01*
X120907250Y-114669000D01*
X120933750Y-114695500D01*
G36*
X115398811Y-127009497D02*
X115201241Y-127485298D01*
X115200760Y-128036285D01*
X115411169Y-128545515D01*
X115800436Y-128935461D01*
X116309298Y-129146759D01*
X116860285Y-129147240D01*
X117369515Y-128936831D01*
X117462560Y-128843948D01*
X117462560Y-129794000D01*
X117506838Y-130029317D01*
X117645910Y-130245441D01*
X117858110Y-130390431D01*
X118110000Y-130441440D01*
X120142000Y-130441440D01*
X120377317Y-130397162D01*
X120593441Y-130258090D01*
X120650214Y-130175000D01*
X121740734Y-130175000D01*
X121892110Y-130278431D01*
X122144000Y-130329440D01*
X122844000Y-130329440D01*
X123079317Y-130285162D01*
X123295441Y-130146090D01*
X123440431Y-129933890D01*
X123447191Y-129900510D01*
X123505673Y-130041699D01*
X123684302Y-130220327D01*
X123917691Y-130317000D01*
X124108250Y-130317000D01*
X124267000Y-130158250D01*
X124267000Y-129159000D01*
X124521000Y-129159000D01*
X124521000Y-130158250D01*
X124679750Y-130317000D01*
X124870309Y-130317000D01*
X125103698Y-130220327D01*
X125282327Y-130041699D01*
X125378403Y-129809750D01*
X126248000Y-129809750D01*
X126248000Y-130150309D01*
X126344673Y-130383698D01*
X126523301Y-130562327D01*
X126756690Y-130659000D01*
X127222250Y-130659000D01*
X127381000Y-130500250D01*
X127381000Y-129651000D01*
X126406750Y-129651000D01*
X126248000Y-129809750D01*
X125378403Y-129809750D01*
X125379000Y-129808310D01*
X125379000Y-129317750D01*
X125220250Y-129159000D01*
X124521000Y-129159000D01*
X124267000Y-129159000D01*
X124247000Y-129159000D01*
X124247000Y-128905000D01*
X124267000Y-128905000D01*
X124267000Y-128885000D01*
X124521000Y-128885000D01*
X124521000Y-128905000D01*
X125220250Y-128905000D01*
X125379000Y-128746250D01*
X125379000Y-128742780D01*
X125469983Y-128803573D01*
X126000000Y-128909000D01*
X126248000Y-128909000D01*
X126248000Y-129238250D01*
X126406750Y-129397000D01*
X127381000Y-129397000D01*
X127381000Y-129377000D01*
X127635000Y-129377000D01*
X127635000Y-129397000D01*
X127655000Y-129397000D01*
X127655000Y-129651000D01*
X127635000Y-129651000D01*
X127635000Y-130500250D01*
X127793750Y-130659000D01*
X128143000Y-130659000D01*
X128143000Y-131939560D01*
X126877000Y-131939560D01*
X126641683Y-131983838D01*
X126490973Y-132080817D01*
X126358890Y-131990569D01*
X126107000Y-131939560D01*
X125133246Y-131939560D01*
X125056343Y-131862657D01*
X124607017Y-131562427D01*
X124077000Y-131457000D01*
X122682000Y-131457000D01*
X122151983Y-131562427D01*
X121966205Y-131686560D01*
X121666000Y-131686560D01*
X121430683Y-131730838D01*
X121214559Y-131869910D01*
X121069569Y-132082110D01*
X121018560Y-132334000D01*
X121018560Y-133350000D01*
X121062838Y-133585317D01*
X121201910Y-133801441D01*
X121414110Y-133946431D01*
X121604569Y-133985000D01*
X121539690Y-133985000D01*
X121306301Y-134081673D01*
X121127673Y-134260302D01*
X121031000Y-134493691D01*
X121031000Y-134842250D01*
X121189750Y-135001000D01*
X122555000Y-135001000D01*
X122555000Y-134981000D01*
X122809000Y-134981000D01*
X122809000Y-135001000D01*
X122829000Y-135001000D01*
X122829000Y-135255000D01*
X122809000Y-135255000D01*
X122809000Y-135275000D01*
X122555000Y-135275000D01*
X122555000Y-135255000D01*
X121189750Y-135255000D01*
X121031000Y-135413750D01*
X121031000Y-135517110D01*
X120679225Y-135516803D01*
X120261914Y-135689233D01*
X119942355Y-136008235D01*
X119769197Y-136425244D01*
X119768803Y-136876775D01*
X119941233Y-137294086D01*
X120260235Y-137613645D01*
X120677244Y-137786803D01*
X120781658Y-137786894D01*
X120801764Y-137807000D01*
X120108262Y-137807000D01*
X120023765Y-137722355D01*
X119606756Y-137549197D01*
X119155225Y-137548803D01*
X118737914Y-137721233D01*
X118651997Y-137807000D01*
X118429686Y-137807000D01*
X117714167Y-137091481D01*
X117741440Y-136956800D01*
X117741440Y-133299200D01*
X117697162Y-133063883D01*
X117558090Y-132847759D01*
X117345890Y-132702769D01*
X117094000Y-132651760D01*
X115062000Y-132651760D01*
X114826683Y-132696038D01*
X114610559Y-132835110D01*
X114465569Y-133047310D01*
X114414560Y-133299200D01*
X114414560Y-134059535D01*
X114258699Y-133903673D01*
X114025310Y-133807000D01*
X113569750Y-133807000D01*
X113411000Y-133965750D01*
X113411000Y-135215000D01*
X113431000Y-135215000D01*
X113431000Y-135469000D01*
X113411000Y-135469000D01*
X113411000Y-135489000D01*
X113157000Y-135489000D01*
X113157000Y-135469000D01*
X112192750Y-135469000D01*
X112034000Y-135627750D01*
X112034000Y-136368309D01*
X112120443Y-136577000D01*
X110045859Y-136577000D01*
X109461901Y-135993042D01*
X109267554Y-135798356D01*
X108758692Y-135587058D01*
X108207705Y-135586577D01*
X107698475Y-135796986D01*
X107308529Y-136186253D01*
X107097231Y-136695115D01*
X107096750Y-137246102D01*
X107176618Y-137439399D01*
X105791000Y-137439399D01*
X105791000Y-137353426D01*
X106135343Y-137123343D01*
X106643343Y-136615343D01*
X106750775Y-136454559D01*
X106943573Y-136166017D01*
X107049000Y-135636000D01*
X107049000Y-134315691D01*
X112034000Y-134315691D01*
X112034000Y-135056250D01*
X112192750Y-135215000D01*
X113157000Y-135215000D01*
X113157000Y-133965750D01*
X112998250Y-133807000D01*
X112542690Y-133807000D01*
X112309301Y-133903673D01*
X112130673Y-134082302D01*
X112034000Y-134315691D01*
X107049000Y-134315691D01*
X107049000Y-128595750D01*
X108478000Y-128595750D01*
X108478000Y-129336309D01*
X108574673Y-129569698D01*
X108753301Y-129748327D01*
X108986690Y-129845000D01*
X109442250Y-129845000D01*
X109601000Y-129686250D01*
X109601000Y-128437000D01*
X108636750Y-128437000D01*
X108478000Y-128595750D01*
X107049000Y-128595750D01*
X107049000Y-127572606D01*
X107778585Y-126843021D01*
X107967983Y-126969573D01*
X108498000Y-127075000D01*
X108564443Y-127075000D01*
X108478000Y-127283691D01*
X108478000Y-128024250D01*
X108636750Y-128183000D01*
X109601000Y-128183000D01*
X109601000Y-128163000D01*
X109855000Y-128163000D01*
X109855000Y-128183000D01*
X109875000Y-128183000D01*
X109875000Y-128437000D01*
X109855000Y-128437000D01*
X109855000Y-129686250D01*
X110013750Y-129845000D01*
X110469310Y-129845000D01*
X110702699Y-129748327D01*
X110881327Y-129569698D01*
X110978000Y-129336309D01*
X110978000Y-129180922D01*
X111041910Y-129280241D01*
X111254110Y-129425231D01*
X111506000Y-129476240D01*
X113538000Y-129476240D01*
X113773317Y-129431962D01*
X113989441Y-129292890D01*
X114134431Y-129080690D01*
X114185440Y-128828800D01*
X114185440Y-125796126D01*
X115398811Y-127009497D01*
X115398811Y-127009497D01*
G37*
X115398811Y-127009497D02*
X115201241Y-127485298D01*
X115200760Y-128036285D01*
X115411169Y-128545515D01*
X115800436Y-128935461D01*
X116309298Y-129146759D01*
X116860285Y-129147240D01*
X117369515Y-128936831D01*
X117462560Y-128843948D01*
X117462560Y-129794000D01*
X117506838Y-130029317D01*
X117645910Y-130245441D01*
X117858110Y-130390431D01*
X118110000Y-130441440D01*
X120142000Y-130441440D01*
X120377317Y-130397162D01*
X120593441Y-130258090D01*
X120650214Y-130175000D01*
X121740734Y-130175000D01*
X121892110Y-130278431D01*
X122144000Y-130329440D01*
X122844000Y-130329440D01*
X123079317Y-130285162D01*
X123295441Y-130146090D01*
X123440431Y-129933890D01*
X123447191Y-129900510D01*
X123505673Y-130041699D01*
X123684302Y-130220327D01*
X123917691Y-130317000D01*
X124108250Y-130317000D01*
X124267000Y-130158250D01*
X124267000Y-129159000D01*
X124521000Y-129159000D01*
X124521000Y-130158250D01*
X124679750Y-130317000D01*
X124870309Y-130317000D01*
X125103698Y-130220327D01*
X125282327Y-130041699D01*
X125378403Y-129809750D01*
X126248000Y-129809750D01*
X126248000Y-130150309D01*
X126344673Y-130383698D01*
X126523301Y-130562327D01*
X126756690Y-130659000D01*
X127222250Y-130659000D01*
X127381000Y-130500250D01*
X127381000Y-129651000D01*
X126406750Y-129651000D01*
X126248000Y-129809750D01*
X125378403Y-129809750D01*
X125379000Y-129808310D01*
X125379000Y-129317750D01*
X125220250Y-129159000D01*
X124521000Y-129159000D01*
X124267000Y-129159000D01*
X124247000Y-129159000D01*
X124247000Y-128905000D01*
X124267000Y-128905000D01*
X124267000Y-128885000D01*
X124521000Y-128885000D01*
X124521000Y-128905000D01*
X125220250Y-128905000D01*
X125379000Y-128746250D01*
X125379000Y-128742780D01*
X125469983Y-128803573D01*
X126000000Y-128909000D01*
X126248000Y-128909000D01*
X126248000Y-129238250D01*
X126406750Y-129397000D01*
X127381000Y-129397000D01*
X127381000Y-129377000D01*
X127635000Y-129377000D01*
X127635000Y-129397000D01*
X127655000Y-129397000D01*
X127655000Y-129651000D01*
X127635000Y-129651000D01*
X127635000Y-130500250D01*
X127793750Y-130659000D01*
X128143000Y-130659000D01*
X128143000Y-131939560D01*
X126877000Y-131939560D01*
X126641683Y-131983838D01*
X126490973Y-132080817D01*
X126358890Y-131990569D01*
X126107000Y-131939560D01*
X125133246Y-131939560D01*
X125056343Y-131862657D01*
X124607017Y-131562427D01*
X124077000Y-131457000D01*
X122682000Y-131457000D01*
X122151983Y-131562427D01*
X121966205Y-131686560D01*
X121666000Y-131686560D01*
X121430683Y-131730838D01*
X121214559Y-131869910D01*
X121069569Y-132082110D01*
X121018560Y-132334000D01*
X121018560Y-133350000D01*
X121062838Y-133585317D01*
X121201910Y-133801441D01*
X121414110Y-133946431D01*
X121604569Y-133985000D01*
X121539690Y-133985000D01*
X121306301Y-134081673D01*
X121127673Y-134260302D01*
X121031000Y-134493691D01*
X121031000Y-134842250D01*
X121189750Y-135001000D01*
X122555000Y-135001000D01*
X122555000Y-134981000D01*
X122809000Y-134981000D01*
X122809000Y-135001000D01*
X122829000Y-135001000D01*
X122829000Y-135255000D01*
X122809000Y-135255000D01*
X122809000Y-135275000D01*
X122555000Y-135275000D01*
X122555000Y-135255000D01*
X121189750Y-135255000D01*
X121031000Y-135413750D01*
X121031000Y-135517110D01*
X120679225Y-135516803D01*
X120261914Y-135689233D01*
X119942355Y-136008235D01*
X119769197Y-136425244D01*
X119768803Y-136876775D01*
X119941233Y-137294086D01*
X120260235Y-137613645D01*
X120677244Y-137786803D01*
X120781658Y-137786894D01*
X120801764Y-137807000D01*
X120108262Y-137807000D01*
X120023765Y-137722355D01*
X119606756Y-137549197D01*
X119155225Y-137548803D01*
X118737914Y-137721233D01*
X118651997Y-137807000D01*
X118429686Y-137807000D01*
X117714167Y-137091481D01*
X117741440Y-136956800D01*
X117741440Y-133299200D01*
X117697162Y-133063883D01*
X117558090Y-132847759D01*
X117345890Y-132702769D01*
X117094000Y-132651760D01*
X115062000Y-132651760D01*
X114826683Y-132696038D01*
X114610559Y-132835110D01*
X114465569Y-133047310D01*
X114414560Y-133299200D01*
X114414560Y-134059535D01*
X114258699Y-133903673D01*
X114025310Y-133807000D01*
X113569750Y-133807000D01*
X113411000Y-133965750D01*
X113411000Y-135215000D01*
X113431000Y-135215000D01*
X113431000Y-135469000D01*
X113411000Y-135469000D01*
X113411000Y-135489000D01*
X113157000Y-135489000D01*
X113157000Y-135469000D01*
X112192750Y-135469000D01*
X112034000Y-135627750D01*
X112034000Y-136368309D01*
X112120443Y-136577000D01*
X110045859Y-136577000D01*
X109461901Y-135993042D01*
X109267554Y-135798356D01*
X108758692Y-135587058D01*
X108207705Y-135586577D01*
X107698475Y-135796986D01*
X107308529Y-136186253D01*
X107097231Y-136695115D01*
X107096750Y-137246102D01*
X107176618Y-137439399D01*
X105791000Y-137439399D01*
X105791000Y-137353426D01*
X106135343Y-137123343D01*
X106643343Y-136615343D01*
X106750775Y-136454559D01*
X106943573Y-136166017D01*
X107049000Y-135636000D01*
X107049000Y-134315691D01*
X112034000Y-134315691D01*
X112034000Y-135056250D01*
X112192750Y-135215000D01*
X113157000Y-135215000D01*
X113157000Y-133965750D01*
X112998250Y-133807000D01*
X112542690Y-133807000D01*
X112309301Y-133903673D01*
X112130673Y-134082302D01*
X112034000Y-134315691D01*
X107049000Y-134315691D01*
X107049000Y-128595750D01*
X108478000Y-128595750D01*
X108478000Y-129336309D01*
X108574673Y-129569698D01*
X108753301Y-129748327D01*
X108986690Y-129845000D01*
X109442250Y-129845000D01*
X109601000Y-129686250D01*
X109601000Y-128437000D01*
X108636750Y-128437000D01*
X108478000Y-128595750D01*
X107049000Y-128595750D01*
X107049000Y-127572606D01*
X107778585Y-126843021D01*
X107967983Y-126969573D01*
X108498000Y-127075000D01*
X108564443Y-127075000D01*
X108478000Y-127283691D01*
X108478000Y-128024250D01*
X108636750Y-128183000D01*
X109601000Y-128183000D01*
X109601000Y-128163000D01*
X109855000Y-128163000D01*
X109855000Y-128183000D01*
X109875000Y-128183000D01*
X109875000Y-128437000D01*
X109855000Y-128437000D01*
X109855000Y-129686250D01*
X110013750Y-129845000D01*
X110469310Y-129845000D01*
X110702699Y-129748327D01*
X110881327Y-129569698D01*
X110978000Y-129336309D01*
X110978000Y-129180922D01*
X111041910Y-129280241D01*
X111254110Y-129425231D01*
X111506000Y-129476240D01*
X113538000Y-129476240D01*
X113773317Y-129431962D01*
X113989441Y-129292890D01*
X114134431Y-129080690D01*
X114185440Y-128828800D01*
X114185440Y-125796126D01*
X115398811Y-127009497D01*
G36*
X116368657Y-146267343D02*
X116817983Y-146567573D01*
X117348000Y-146673000D01*
X117604975Y-146673000D01*
X117571673Y-146706302D01*
X117475000Y-146939691D01*
X117475000Y-147288250D01*
X117633750Y-147447000D01*
X118999000Y-147447000D01*
X118999000Y-147427000D01*
X119253000Y-147427000D01*
X119253000Y-147447000D01*
X120618250Y-147447000D01*
X120777000Y-147288250D01*
X120777000Y-146939691D01*
X120680327Y-146706302D01*
X120501699Y-146527673D01*
X120268310Y-146431000D01*
X120208113Y-146431000D01*
X120377317Y-146399162D01*
X120593441Y-146260090D01*
X120738431Y-146047890D01*
X120789440Y-145796000D01*
X120789440Y-144780000D01*
X120745162Y-144544683D01*
X120643696Y-144387000D01*
X120891560Y-144387000D01*
X120891560Y-144781000D01*
X120914000Y-144900258D01*
X120914000Y-145683000D01*
X121019427Y-146213017D01*
X121182998Y-146457818D01*
X121199838Y-146547317D01*
X121338910Y-146763441D01*
X121407006Y-146809969D01*
X121264673Y-146952302D01*
X121168000Y-147185691D01*
X121168000Y-147526250D01*
X121326750Y-147685000D01*
X122301000Y-147685000D01*
X122301000Y-147665000D01*
X122555000Y-147665000D01*
X122555000Y-147685000D01*
X123529250Y-147685000D01*
X123688000Y-147526250D01*
X123688000Y-147445691D01*
X123854000Y-147445691D01*
X123854000Y-147581250D01*
X124012750Y-147740000D01*
X124601500Y-147740000D01*
X124601500Y-147095750D01*
X124826500Y-147095750D01*
X124826500Y-147740000D01*
X125415250Y-147740000D01*
X125574000Y-147581250D01*
X125574000Y-147445691D01*
X125477327Y-147212302D01*
X125298699Y-147033673D01*
X125065310Y-146937000D01*
X124985250Y-146937000D01*
X124826500Y-147095750D01*
X124601500Y-147095750D01*
X124442750Y-146937000D01*
X124362690Y-146937000D01*
X124129301Y-147033673D01*
X123950673Y-147212302D01*
X123854000Y-147445691D01*
X123688000Y-147445691D01*
X123688000Y-147185691D01*
X123591327Y-146952302D01*
X123450090Y-146811064D01*
X123504441Y-146776090D01*
X123555748Y-146701000D01*
X124659000Y-146701000D01*
X124666843Y-146699440D01*
X124939000Y-146699440D01*
X125174317Y-146655162D01*
X125390441Y-146516090D01*
X125535431Y-146303890D01*
X125586440Y-146052000D01*
X125586440Y-145840253D01*
X125603000Y-145757000D01*
X125603000Y-149175000D01*
X108585000Y-149175000D01*
X108585000Y-147868025D01*
X108753301Y-148036327D01*
X108986690Y-148133000D01*
X109442250Y-148133000D01*
X109601000Y-147974250D01*
X109601000Y-146725000D01*
X109581000Y-146725000D01*
X109581000Y-146471000D01*
X109601000Y-146471000D01*
X109601000Y-146451000D01*
X109855000Y-146451000D01*
X109855000Y-146471000D01*
X109875000Y-146471000D01*
X109875000Y-146725000D01*
X109855000Y-146725000D01*
X109855000Y-147974250D01*
X110013750Y-148133000D01*
X110469310Y-148133000D01*
X110702699Y-148036327D01*
X110879275Y-147859750D01*
X117475000Y-147859750D01*
X117475000Y-148208309D01*
X117571673Y-148441698D01*
X117750301Y-148620327D01*
X117983690Y-148717000D01*
X118840250Y-148717000D01*
X118999000Y-148558250D01*
X118999000Y-147701000D01*
X119253000Y-147701000D01*
X119253000Y-148558250D01*
X119411750Y-148717000D01*
X120268310Y-148717000D01*
X120501699Y-148620327D01*
X120680327Y-148441698D01*
X120777000Y-148208309D01*
X120777000Y-148097750D01*
X121168000Y-148097750D01*
X121168000Y-148438309D01*
X121264673Y-148671698D01*
X121443301Y-148850327D01*
X121676690Y-148947000D01*
X122142250Y-148947000D01*
X122301000Y-148788250D01*
X122301000Y-147939000D01*
X122555000Y-147939000D01*
X122555000Y-148788250D01*
X122713750Y-148947000D01*
X123179310Y-148947000D01*
X123412699Y-148850327D01*
X123591327Y-148671698D01*
X123688000Y-148438309D01*
X123688000Y-148152750D01*
X123854000Y-148152750D01*
X123854000Y-148288309D01*
X123950673Y-148521698D01*
X124129301Y-148700327D01*
X124362690Y-148797000D01*
X124442750Y-148797000D01*
X124601500Y-148638250D01*
X124601500Y-147994000D01*
X124826500Y-147994000D01*
X124826500Y-148638250D01*
X124985250Y-148797000D01*
X125065310Y-148797000D01*
X125298699Y-148700327D01*
X125477327Y-148521698D01*
X125574000Y-148288309D01*
X125574000Y-148152750D01*
X125415250Y-147994000D01*
X124826500Y-147994000D01*
X124601500Y-147994000D01*
X124012750Y-147994000D01*
X123854000Y-148152750D01*
X123688000Y-148152750D01*
X123688000Y-148097750D01*
X123529250Y-147939000D01*
X122555000Y-147939000D01*
X122301000Y-147939000D01*
X121326750Y-147939000D01*
X121168000Y-148097750D01*
X120777000Y-148097750D01*
X120777000Y-147859750D01*
X120618250Y-147701000D01*
X119253000Y-147701000D01*
X118999000Y-147701000D01*
X117633750Y-147701000D01*
X117475000Y-147859750D01*
X110879275Y-147859750D01*
X110881327Y-147857698D01*
X110978000Y-147624309D01*
X110978000Y-147468922D01*
X111041910Y-147568241D01*
X111254110Y-147713231D01*
X111506000Y-147764240D01*
X113538000Y-147764240D01*
X113773317Y-147719962D01*
X113989441Y-147580890D01*
X114134431Y-147368690D01*
X114185440Y-147116800D01*
X114185440Y-144084126D01*
X116368657Y-146267343D01*
X116368657Y-146267343D01*
G37*
X116368657Y-146267343D02*
X116817983Y-146567573D01*
X117348000Y-146673000D01*
X117604975Y-146673000D01*
X117571673Y-146706302D01*
X117475000Y-146939691D01*
X117475000Y-147288250D01*
X117633750Y-147447000D01*
X118999000Y-147447000D01*
X118999000Y-147427000D01*
X119253000Y-147427000D01*
X119253000Y-147447000D01*
X120618250Y-147447000D01*
X120777000Y-147288250D01*
X120777000Y-146939691D01*
X120680327Y-146706302D01*
X120501699Y-146527673D01*
X120268310Y-146431000D01*
X120208113Y-146431000D01*
X120377317Y-146399162D01*
X120593441Y-146260090D01*
X120738431Y-146047890D01*
X120789440Y-145796000D01*
X120789440Y-144780000D01*
X120745162Y-144544683D01*
X120643696Y-144387000D01*
X120891560Y-144387000D01*
X120891560Y-144781000D01*
X120914000Y-144900258D01*
X120914000Y-145683000D01*
X121019427Y-146213017D01*
X121182998Y-146457818D01*
X121199838Y-146547317D01*
X121338910Y-146763441D01*
X121407006Y-146809969D01*
X121264673Y-146952302D01*
X121168000Y-147185691D01*
X121168000Y-147526250D01*
X121326750Y-147685000D01*
X122301000Y-147685000D01*
X122301000Y-147665000D01*
X122555000Y-147665000D01*
X122555000Y-147685000D01*
X123529250Y-147685000D01*
X123688000Y-147526250D01*
X123688000Y-147445691D01*
X123854000Y-147445691D01*
X123854000Y-147581250D01*
X124012750Y-147740000D01*
X124601500Y-147740000D01*
X124601500Y-147095750D01*
X124826500Y-147095750D01*
X124826500Y-147740000D01*
X125415250Y-147740000D01*
X125574000Y-147581250D01*
X125574000Y-147445691D01*
X125477327Y-147212302D01*
X125298699Y-147033673D01*
X125065310Y-146937000D01*
X124985250Y-146937000D01*
X124826500Y-147095750D01*
X124601500Y-147095750D01*
X124442750Y-146937000D01*
X124362690Y-146937000D01*
X124129301Y-147033673D01*
X123950673Y-147212302D01*
X123854000Y-147445691D01*
X123688000Y-147445691D01*
X123688000Y-147185691D01*
X123591327Y-146952302D01*
X123450090Y-146811064D01*
X123504441Y-146776090D01*
X123555748Y-146701000D01*
X124659000Y-146701000D01*
X124666843Y-146699440D01*
X124939000Y-146699440D01*
X125174317Y-146655162D01*
X125390441Y-146516090D01*
X125535431Y-146303890D01*
X125586440Y-146052000D01*
X125586440Y-145840253D01*
X125603000Y-145757000D01*
X125603000Y-149175000D01*
X108585000Y-149175000D01*
X108585000Y-147868025D01*
X108753301Y-148036327D01*
X108986690Y-148133000D01*
X109442250Y-148133000D01*
X109601000Y-147974250D01*
X109601000Y-146725000D01*
X109581000Y-146725000D01*
X109581000Y-146471000D01*
X109601000Y-146471000D01*
X109601000Y-146451000D01*
X109855000Y-146451000D01*
X109855000Y-146471000D01*
X109875000Y-146471000D01*
X109875000Y-146725000D01*
X109855000Y-146725000D01*
X109855000Y-147974250D01*
X110013750Y-148133000D01*
X110469310Y-148133000D01*
X110702699Y-148036327D01*
X110879275Y-147859750D01*
X117475000Y-147859750D01*
X117475000Y-148208309D01*
X117571673Y-148441698D01*
X117750301Y-148620327D01*
X117983690Y-148717000D01*
X118840250Y-148717000D01*
X118999000Y-148558250D01*
X118999000Y-147701000D01*
X119253000Y-147701000D01*
X119253000Y-148558250D01*
X119411750Y-148717000D01*
X120268310Y-148717000D01*
X120501699Y-148620327D01*
X120680327Y-148441698D01*
X120777000Y-148208309D01*
X120777000Y-148097750D01*
X121168000Y-148097750D01*
X121168000Y-148438309D01*
X121264673Y-148671698D01*
X121443301Y-148850327D01*
X121676690Y-148947000D01*
X122142250Y-148947000D01*
X122301000Y-148788250D01*
X122301000Y-147939000D01*
X122555000Y-147939000D01*
X122555000Y-148788250D01*
X122713750Y-148947000D01*
X123179310Y-148947000D01*
X123412699Y-148850327D01*
X123591327Y-148671698D01*
X123688000Y-148438309D01*
X123688000Y-148152750D01*
X123854000Y-148152750D01*
X123854000Y-148288309D01*
X123950673Y-148521698D01*
X124129301Y-148700327D01*
X124362690Y-148797000D01*
X124442750Y-148797000D01*
X124601500Y-148638250D01*
X124601500Y-147994000D01*
X124826500Y-147994000D01*
X124826500Y-148638250D01*
X124985250Y-148797000D01*
X125065310Y-148797000D01*
X125298699Y-148700327D01*
X125477327Y-148521698D01*
X125574000Y-148288309D01*
X125574000Y-148152750D01*
X125415250Y-147994000D01*
X124826500Y-147994000D01*
X124601500Y-147994000D01*
X124012750Y-147994000D01*
X123854000Y-148152750D01*
X123688000Y-148152750D01*
X123688000Y-148097750D01*
X123529250Y-147939000D01*
X122555000Y-147939000D01*
X122301000Y-147939000D01*
X121326750Y-147939000D01*
X121168000Y-148097750D01*
X120777000Y-148097750D01*
X120777000Y-147859750D01*
X120618250Y-147701000D01*
X119253000Y-147701000D01*
X118999000Y-147701000D01*
X117633750Y-147701000D01*
X117475000Y-147859750D01*
X110879275Y-147859750D01*
X110881327Y-147857698D01*
X110978000Y-147624309D01*
X110978000Y-147468922D01*
X111041910Y-147568241D01*
X111254110Y-147713231D01*
X111506000Y-147764240D01*
X113538000Y-147764240D01*
X113773317Y-147719962D01*
X113989441Y-147580890D01*
X114134431Y-147368690D01*
X114185440Y-147116800D01*
X114185440Y-144084126D01*
X116368657Y-146267343D01*
M02*
