G04 #@! TF.FileFunction,Legend,Bot*
%FSLAX46Y46*%
G04 Gerber Fmt 4.6, Leading zero omitted, Abs format (unit mm)*
G04 Created by KiCad (PCBNEW 4.0.1-3.201512221402+6198~38~ubuntu14.04.1-stable) date Wed 03 Feb 2016 12:10:06 GMT*
%MOMM*%
G01*
G04 APERTURE LIST*
%ADD10C,0.100000*%
%ADD11C,0.150000*%
%ADD12C,0.110000*%
G04 APERTURE END LIST*
D10*
X148424857Y-149254000D02*
X148467714Y-149232571D01*
X148532000Y-149232571D01*
X148596285Y-149254000D01*
X148639143Y-149296857D01*
X148660571Y-149339714D01*
X148682000Y-149425429D01*
X148682000Y-149489714D01*
X148660571Y-149575429D01*
X148639143Y-149618286D01*
X148596285Y-149661143D01*
X148532000Y-149682571D01*
X148489143Y-149682571D01*
X148424857Y-149661143D01*
X148403428Y-149639714D01*
X148403428Y-149489714D01*
X148489143Y-149489714D01*
X148210571Y-149682571D02*
X148210571Y-149232571D01*
X147953428Y-149682571D01*
X147953428Y-149232571D01*
X147739142Y-149682571D02*
X147739142Y-149232571D01*
X147631999Y-149232571D01*
X147567714Y-149254000D01*
X147524856Y-149296857D01*
X147503428Y-149339714D01*
X147481999Y-149425429D01*
X147481999Y-149489714D01*
X147503428Y-149575429D01*
X147524856Y-149618286D01*
X147567714Y-149661143D01*
X147631999Y-149682571D01*
X147739142Y-149682571D01*
X147096856Y-149511143D02*
X146753999Y-149511143D01*
X146925428Y-149682571D02*
X146925428Y-149339714D01*
X146303999Y-149682571D02*
X146561142Y-149682571D01*
X146432570Y-149682571D02*
X146432570Y-149232571D01*
X146475427Y-149296857D01*
X146518285Y-149339714D01*
X146561142Y-149361143D01*
X146132571Y-149275429D02*
X146111142Y-149254000D01*
X146068285Y-149232571D01*
X145961142Y-149232571D01*
X145918285Y-149254000D01*
X145896856Y-149275429D01*
X145875428Y-149318286D01*
X145875428Y-149361143D01*
X145896856Y-149425429D01*
X146153999Y-149682571D01*
X145875428Y-149682571D01*
X145746857Y-149232571D02*
X145596857Y-149682571D01*
X145446857Y-149232571D01*
D11*
X112219905Y-147899429D02*
X111458000Y-147899429D01*
X111838952Y-148280381D02*
X111838952Y-147518476D01*
X110458000Y-148280381D02*
X111029429Y-148280381D01*
X110743715Y-148280381D02*
X110743715Y-147280381D01*
X110838953Y-147423238D01*
X110934191Y-147518476D01*
X111029429Y-147566095D01*
X109981810Y-148280381D02*
X109791334Y-148280381D01*
X109696095Y-148232762D01*
X109648476Y-148185143D01*
X109553238Y-148042286D01*
X109505619Y-147851810D01*
X109505619Y-147470857D01*
X109553238Y-147375619D01*
X109600857Y-147328000D01*
X109696095Y-147280381D01*
X109886572Y-147280381D01*
X109981810Y-147328000D01*
X110029429Y-147375619D01*
X110077048Y-147470857D01*
X110077048Y-147708952D01*
X110029429Y-147804190D01*
X109981810Y-147851810D01*
X109886572Y-147899429D01*
X109696095Y-147899429D01*
X109600857Y-147851810D01*
X109553238Y-147804190D01*
X109505619Y-147708952D01*
X109219905Y-147280381D02*
X108886572Y-148280381D01*
X108553238Y-147280381D01*
X110458000Y-144965381D02*
X111029429Y-144965381D01*
X110743715Y-144965381D02*
X110743715Y-143965381D01*
X110838953Y-144108238D01*
X110934191Y-144203476D01*
X111029429Y-144251095D01*
X109981810Y-144965381D02*
X109791334Y-144965381D01*
X109696095Y-144917762D01*
X109648476Y-144870143D01*
X109553238Y-144727286D01*
X109505619Y-144536810D01*
X109505619Y-144155857D01*
X109553238Y-144060619D01*
X109600857Y-144013000D01*
X109696095Y-143965381D01*
X109886572Y-143965381D01*
X109981810Y-144013000D01*
X110029429Y-144060619D01*
X110077048Y-144155857D01*
X110077048Y-144393952D01*
X110029429Y-144489190D01*
X109981810Y-144536810D01*
X109886572Y-144584429D01*
X109696095Y-144584429D01*
X109600857Y-144536810D01*
X109553238Y-144489190D01*
X109505619Y-144393952D01*
X109219905Y-143965381D02*
X108886572Y-144965381D01*
X108553238Y-143965381D01*
X110743714Y-145563000D02*
X110838952Y-145515381D01*
X110981809Y-145515381D01*
X111124667Y-145563000D01*
X111219905Y-145658238D01*
X111267524Y-145753476D01*
X111315143Y-145943952D01*
X111315143Y-146086810D01*
X111267524Y-146277286D01*
X111219905Y-146372524D01*
X111124667Y-146467762D01*
X110981809Y-146515381D01*
X110886571Y-146515381D01*
X110743714Y-146467762D01*
X110696095Y-146420143D01*
X110696095Y-146086810D01*
X110886571Y-146086810D01*
X110267524Y-146515381D02*
X110267524Y-145515381D01*
X109696095Y-146515381D01*
X109696095Y-145515381D01*
X109219905Y-146515381D02*
X109219905Y-145515381D01*
X108981810Y-145515381D01*
X108838952Y-145563000D01*
X108743714Y-145658238D01*
X108696095Y-145753476D01*
X108648476Y-145943952D01*
X108648476Y-146086810D01*
X108696095Y-146277286D01*
X108743714Y-146372524D01*
X108838952Y-146467762D01*
X108981810Y-146515381D01*
X109219905Y-146515381D01*
X112219905Y-142819429D02*
X111458000Y-142819429D01*
X110458000Y-143200381D02*
X111029429Y-143200381D01*
X110743715Y-143200381D02*
X110743715Y-142200381D01*
X110838953Y-142343238D01*
X110934191Y-142438476D01*
X111029429Y-142486095D01*
X109981810Y-143200381D02*
X109791334Y-143200381D01*
X109696095Y-143152762D01*
X109648476Y-143105143D01*
X109553238Y-142962286D01*
X109505619Y-142771810D01*
X109505619Y-142390857D01*
X109553238Y-142295619D01*
X109600857Y-142248000D01*
X109696095Y-142200381D01*
X109886572Y-142200381D01*
X109981810Y-142248000D01*
X110029429Y-142295619D01*
X110077048Y-142390857D01*
X110077048Y-142628952D01*
X110029429Y-142724190D01*
X109981810Y-142771810D01*
X109886572Y-142819429D01*
X109696095Y-142819429D01*
X109600857Y-142771810D01*
X109553238Y-142724190D01*
X109505619Y-142628952D01*
X109219905Y-142200381D02*
X108886572Y-143200381D01*
X108553238Y-142200381D01*
X111267524Y-140279429D02*
X110505619Y-140279429D01*
X110886571Y-140660381D02*
X110886571Y-139898476D01*
X109553238Y-139660381D02*
X110029429Y-139660381D01*
X110077048Y-140136571D01*
X110029429Y-140088952D01*
X109934191Y-140041333D01*
X109696095Y-140041333D01*
X109600857Y-140088952D01*
X109553238Y-140136571D01*
X109505619Y-140231810D01*
X109505619Y-140469905D01*
X109553238Y-140565143D01*
X109600857Y-140612762D01*
X109696095Y-140660381D01*
X109934191Y-140660381D01*
X110029429Y-140612762D01*
X110077048Y-140565143D01*
X109219905Y-139660381D02*
X108886572Y-140660381D01*
X108553238Y-139660381D01*
D12*
X102803543Y-137610315D02*
X102379279Y-137186051D01*
X102278264Y-137287066D01*
X102237857Y-137367879D01*
X102237858Y-137448690D01*
X102258061Y-137509300D01*
X102318670Y-137610315D01*
X102379279Y-137670924D01*
X102480294Y-137731533D01*
X102540903Y-137751736D01*
X102621715Y-137751737D01*
X102702528Y-137711330D01*
X102803543Y-137610315D01*
X101752984Y-137852752D02*
X101773188Y-137792143D01*
X101833797Y-137731534D01*
X101914609Y-137691127D01*
X101995421Y-137691128D01*
X102056030Y-137711330D01*
X102157045Y-137771939D01*
X102217654Y-137832549D01*
X102278263Y-137933563D01*
X102298466Y-137994173D01*
X102298467Y-138074985D01*
X102258061Y-138155798D01*
X102217654Y-138196204D01*
X102136842Y-138236610D01*
X102096437Y-138236610D01*
X101955015Y-138095188D01*
X102035827Y-138014377D01*
X101955015Y-138458843D02*
X101530751Y-138034579D01*
X101712579Y-138701280D01*
X101288315Y-138277016D01*
X101510548Y-138903310D02*
X101086284Y-138479046D01*
X100985269Y-138580061D01*
X100944862Y-138660874D01*
X100944863Y-138741685D01*
X100965066Y-138802295D01*
X101025675Y-138903310D01*
X101086284Y-138963919D01*
X101187299Y-139024528D01*
X101247908Y-139044731D01*
X101328720Y-139044732D01*
X101409533Y-139004325D01*
X101510548Y-138903310D01*
X102478833Y-141929776D02*
X102155584Y-142253025D01*
X101731320Y-142152010D02*
X101448478Y-142434853D01*
X102054569Y-142677289D01*
X101670711Y-142980335D02*
X101670710Y-143020742D01*
X101711117Y-143020742D01*
X101711116Y-142980335D01*
X101670711Y-142980335D01*
X101711117Y-143020742D01*
X100882792Y-143000538D02*
X101084823Y-142798508D01*
X101307056Y-142980335D01*
X101266649Y-142980335D01*
X101206040Y-143000538D01*
X101105025Y-143101553D01*
X101084822Y-143162162D01*
X101084823Y-143202569D01*
X101105025Y-143263178D01*
X101206040Y-143364193D01*
X101266650Y-143384396D01*
X101307056Y-143384396D01*
X101367665Y-143364193D01*
X101468680Y-143263178D01*
X101488883Y-143202569D01*
X101488883Y-143162163D01*
X100741370Y-143141960D02*
X101024213Y-143707646D01*
X100458527Y-143424803D01*
X100671667Y-144254667D02*
X100671667Y-144721334D01*
X101371667Y-144421334D01*
X101305000Y-144988001D02*
X101338333Y-145021334D01*
X101371667Y-144988001D01*
X101338333Y-144954667D01*
X101305000Y-144988001D01*
X101371667Y-144988001D01*
X100671667Y-145654667D02*
X100671667Y-145321334D01*
X101005000Y-145288000D01*
X100971667Y-145321334D01*
X100938333Y-145388000D01*
X100938333Y-145554667D01*
X100971667Y-145621334D01*
X101005000Y-145654667D01*
X101071667Y-145688000D01*
X101238333Y-145688000D01*
X101305000Y-145654667D01*
X101338333Y-145621334D01*
X101371667Y-145554667D01*
X101371667Y-145388000D01*
X101338333Y-145321334D01*
X101305000Y-145288000D01*
X100671667Y-145888001D02*
X101371667Y-146121334D01*
X100671667Y-146354667D01*
X101795000Y-144754667D02*
X101761667Y-144688001D01*
X101761667Y-144588001D01*
X101795000Y-144488001D01*
X101861667Y-144421334D01*
X101928333Y-144388001D01*
X102061667Y-144354667D01*
X102161667Y-144354667D01*
X102295000Y-144388001D01*
X102361667Y-144421334D01*
X102428333Y-144488001D01*
X102461667Y-144588001D01*
X102461667Y-144654667D01*
X102428333Y-144754667D01*
X102395000Y-144788001D01*
X102161667Y-144788001D01*
X102161667Y-144654667D01*
X102461667Y-145088001D02*
X101761667Y-145088001D01*
X102461667Y-145488001D01*
X101761667Y-145488001D01*
X102461667Y-145821334D02*
X101761667Y-145821334D01*
X101761667Y-145988000D01*
X101795000Y-146088000D01*
X101861667Y-146154667D01*
X101928333Y-146188000D01*
X102061667Y-146221334D01*
X102161667Y-146221334D01*
X102295000Y-146188000D01*
X102361667Y-146154667D01*
X102428333Y-146088000D01*
X102461667Y-145988000D01*
X102461667Y-145821334D01*
X102478833Y-147263776D02*
X102155584Y-147587025D01*
X102478833Y-147587026D02*
X102155584Y-147263777D01*
X101731320Y-147486010D02*
X101448478Y-147768853D01*
X102054569Y-148011289D01*
X101670711Y-148314335D02*
X101670710Y-148354742D01*
X101711117Y-148354742D01*
X101711116Y-148314335D01*
X101670711Y-148314335D01*
X101711117Y-148354742D01*
X100882792Y-148334538D02*
X101084823Y-148132508D01*
X101307056Y-148314335D01*
X101266649Y-148314335D01*
X101206040Y-148334538D01*
X101105025Y-148435553D01*
X101084822Y-148496162D01*
X101084823Y-148536569D01*
X101105025Y-148597178D01*
X101206040Y-148698193D01*
X101266650Y-148718396D01*
X101307056Y-148718396D01*
X101367665Y-148698193D01*
X101468680Y-148597178D01*
X101488883Y-148536569D01*
X101488883Y-148496163D01*
X100741370Y-148475960D02*
X101024213Y-149041646D01*
X100458527Y-148758803D01*
D11*
X133596000Y-146138000D02*
X132596000Y-146138000D01*
X132596000Y-144438000D02*
X133596000Y-144438000D01*
X136644000Y-127850000D02*
X135644000Y-127850000D01*
X135644000Y-126150000D02*
X136644000Y-126150000D01*
X136644000Y-136994000D02*
X135644000Y-136994000D01*
X135644000Y-135294000D02*
X136644000Y-135294000D01*
X136644000Y-119214000D02*
X135644000Y-119214000D01*
X135644000Y-117514000D02*
X136644000Y-117514000D01*
X136644000Y-110070000D02*
X135644000Y-110070000D01*
X135644000Y-108370000D02*
X136644000Y-108370000D01*
X120472000Y-116956000D02*
X116772000Y-116956000D01*
X120472000Y-118756000D02*
X116772000Y-118756000D01*
X120788000Y-110312000D02*
X120788000Y-106612000D01*
X118988000Y-110312000D02*
X118988000Y-106612000D01*
X119980000Y-119521000D02*
X118780000Y-119521000D01*
X118780000Y-121271000D02*
X119980000Y-121271000D01*
X118223000Y-109312000D02*
X118223000Y-108112000D01*
X116473000Y-108112000D02*
X116473000Y-109312000D01*
X118780000Y-134987000D02*
X119980000Y-134987000D01*
X119980000Y-133237000D02*
X118780000Y-133237000D01*
X120255000Y-137760000D02*
X120255000Y-136560000D01*
X118505000Y-136560000D02*
X118505000Y-137760000D01*
X143738000Y-146278000D02*
X145288000Y-146278000D01*
X149098000Y-146558000D02*
X146558000Y-146558000D01*
X146558000Y-146558000D02*
X146558000Y-149098000D01*
X145288000Y-149378000D02*
X143738000Y-149378000D01*
X143738000Y-149378000D02*
X143738000Y-146278000D01*
X146558000Y-149098000D02*
X149098000Y-149098000D01*
X149098000Y-149098000D02*
X149098000Y-146558000D01*
X102616000Y-141478000D02*
X102616000Y-149098000D01*
X102616000Y-149098000D02*
X107696000Y-149098000D01*
X107696000Y-149098000D02*
X107696000Y-138938000D01*
X107696000Y-138938000D02*
X105156000Y-138938000D01*
X102336000Y-140208000D02*
X102336000Y-138658000D01*
X105156000Y-138938000D02*
X105156000Y-141478000D01*
X105156000Y-141478000D02*
X102616000Y-141478000D01*
X102336000Y-138658000D02*
X103886000Y-138658000D01*
X126242000Y-135286000D02*
X126392000Y-135136000D01*
X126092000Y-136136000D02*
X126242000Y-135986000D01*
X126742000Y-135636000D02*
X126992000Y-135636000D01*
X126242000Y-135636000D02*
X125992000Y-135636000D01*
X126242000Y-135636000D02*
X126742000Y-135986000D01*
X126742000Y-135986000D02*
X126742000Y-135286000D01*
X126742000Y-135286000D02*
X126242000Y-135636000D01*
X126242000Y-135986000D02*
X126242000Y-135286000D01*
X125192000Y-134836000D02*
X127592000Y-134836000D01*
X125192000Y-136436000D02*
X127592000Y-136436000D01*
X130306000Y-127158000D02*
X130456000Y-127008000D01*
X130156000Y-128008000D02*
X130306000Y-127858000D01*
X130806000Y-127508000D02*
X131056000Y-127508000D01*
X130306000Y-127508000D02*
X130056000Y-127508000D01*
X130306000Y-127508000D02*
X130806000Y-127858000D01*
X130806000Y-127858000D02*
X130806000Y-127158000D01*
X130806000Y-127158000D02*
X130306000Y-127508000D01*
X130306000Y-127858000D02*
X130306000Y-127158000D01*
X129256000Y-126708000D02*
X131656000Y-126708000D01*
X129256000Y-128308000D02*
X131656000Y-128308000D01*
X137660000Y-146138000D02*
X136660000Y-146138000D01*
X136660000Y-144438000D02*
X137660000Y-144438000D01*
X140724000Y-127850000D02*
X139724000Y-127850000D01*
X139724000Y-126150000D02*
X140724000Y-126150000D01*
X140724000Y-136994000D02*
X139724000Y-136994000D01*
X139724000Y-135294000D02*
X140724000Y-135294000D01*
X139692000Y-117514000D02*
X140692000Y-117514000D01*
X140692000Y-119214000D02*
X139692000Y-119214000D01*
X139692000Y-108370000D02*
X140692000Y-108370000D01*
X140692000Y-110070000D02*
X139692000Y-110070000D01*
X123960000Y-129882000D02*
X122960000Y-129882000D01*
X122960000Y-128182000D02*
X123960000Y-128182000D01*
X120816000Y-137676000D02*
X120816000Y-136676000D01*
X122516000Y-136676000D02*
X122516000Y-137676000D01*
X119896000Y-123278000D02*
X118896000Y-123278000D01*
X118896000Y-121578000D02*
X119896000Y-121578000D01*
X114212000Y-111768000D02*
X114212000Y-110768000D01*
X115912000Y-110768000D02*
X115912000Y-111768000D01*
X113284000Y-116836000D02*
X113284000Y-117086000D01*
X113284000Y-116336000D02*
X113284000Y-116086000D01*
X113284000Y-116336000D02*
X112934000Y-116836000D01*
X112934000Y-116836000D02*
X113634000Y-116836000D01*
X113634000Y-116836000D02*
X113284000Y-116336000D01*
X112934000Y-116336000D02*
X113634000Y-116336000D01*
X114084000Y-115286000D02*
X114084000Y-117686000D01*
X112484000Y-115286000D02*
X112484000Y-117686000D01*
X111760000Y-107438000D02*
X111760000Y-107688000D01*
X111760000Y-106938000D02*
X111760000Y-106688000D01*
X111760000Y-106938000D02*
X111410000Y-107438000D01*
X111410000Y-107438000D02*
X112110000Y-107438000D01*
X112110000Y-107438000D02*
X111760000Y-106938000D01*
X111410000Y-106938000D02*
X112110000Y-106938000D01*
X112560000Y-105888000D02*
X112560000Y-108288000D01*
X110960000Y-105888000D02*
X110960000Y-108288000D01*
X111252000Y-118868000D02*
X111252000Y-119118000D01*
X111252000Y-118368000D02*
X111252000Y-118118000D01*
X111252000Y-118368000D02*
X110902000Y-118868000D01*
X110902000Y-118868000D02*
X111602000Y-118868000D01*
X111602000Y-118868000D02*
X111252000Y-118368000D01*
X110902000Y-118368000D02*
X111602000Y-118368000D01*
X112052000Y-117318000D02*
X112052000Y-119718000D01*
X110452000Y-117318000D02*
X110452000Y-119718000D01*
X111760000Y-110447000D02*
X111760000Y-110697000D01*
X111760000Y-109947000D02*
X111760000Y-109697000D01*
X111760000Y-109947000D02*
X111410000Y-110447000D01*
X111410000Y-110447000D02*
X112110000Y-110447000D01*
X112110000Y-110447000D02*
X111760000Y-109947000D01*
X111410000Y-109947000D02*
X112110000Y-109947000D01*
X112560000Y-108897000D02*
X112560000Y-111297000D01*
X110960000Y-108897000D02*
X110960000Y-111297000D01*
X133738857Y-147423143D02*
X133786476Y-147470762D01*
X133929333Y-147518381D01*
X134024571Y-147518381D01*
X134167429Y-147470762D01*
X134262667Y-147375524D01*
X134310286Y-147280286D01*
X134357905Y-147089810D01*
X134357905Y-146946952D01*
X134310286Y-146756476D01*
X134262667Y-146661238D01*
X134167429Y-146566000D01*
X134024571Y-146518381D01*
X133929333Y-146518381D01*
X133786476Y-146566000D01*
X133738857Y-146613619D01*
X132786476Y-147518381D02*
X133357905Y-147518381D01*
X133072191Y-147518381D02*
X133072191Y-146518381D01*
X133167429Y-146661238D01*
X133262667Y-146756476D01*
X133357905Y-146804095D01*
X131834095Y-147518381D02*
X132405524Y-147518381D01*
X132119810Y-147518381D02*
X132119810Y-146518381D01*
X132215048Y-146661238D01*
X132310286Y-146756476D01*
X132405524Y-146804095D01*
X136786857Y-129457143D02*
X136834476Y-129504762D01*
X136977333Y-129552381D01*
X137072571Y-129552381D01*
X137215429Y-129504762D01*
X137310667Y-129409524D01*
X137358286Y-129314286D01*
X137405905Y-129123810D01*
X137405905Y-128980952D01*
X137358286Y-128790476D01*
X137310667Y-128695238D01*
X137215429Y-128600000D01*
X137072571Y-128552381D01*
X136977333Y-128552381D01*
X136834476Y-128600000D01*
X136786857Y-128647619D01*
X135834476Y-129552381D02*
X136405905Y-129552381D01*
X136120191Y-129552381D02*
X136120191Y-128552381D01*
X136215429Y-128695238D01*
X136310667Y-128790476D01*
X136405905Y-128838095D01*
X135453524Y-128647619D02*
X135405905Y-128600000D01*
X135310667Y-128552381D01*
X135072571Y-128552381D01*
X134977333Y-128600000D01*
X134929714Y-128647619D01*
X134882095Y-128742857D01*
X134882095Y-128838095D01*
X134929714Y-128980952D01*
X135501143Y-129552381D01*
X134882095Y-129552381D01*
X136786857Y-138601143D02*
X136834476Y-138648762D01*
X136977333Y-138696381D01*
X137072571Y-138696381D01*
X137215429Y-138648762D01*
X137310667Y-138553524D01*
X137358286Y-138458286D01*
X137405905Y-138267810D01*
X137405905Y-138124952D01*
X137358286Y-137934476D01*
X137310667Y-137839238D01*
X137215429Y-137744000D01*
X137072571Y-137696381D01*
X136977333Y-137696381D01*
X136834476Y-137744000D01*
X136786857Y-137791619D01*
X135834476Y-138696381D02*
X136405905Y-138696381D01*
X136120191Y-138696381D02*
X136120191Y-137696381D01*
X136215429Y-137839238D01*
X136310667Y-137934476D01*
X136405905Y-137982095D01*
X135501143Y-137696381D02*
X134882095Y-137696381D01*
X135215429Y-138077333D01*
X135072571Y-138077333D01*
X134977333Y-138124952D01*
X134929714Y-138172571D01*
X134882095Y-138267810D01*
X134882095Y-138505905D01*
X134929714Y-138601143D01*
X134977333Y-138648762D01*
X135072571Y-138696381D01*
X135358286Y-138696381D01*
X135453524Y-138648762D01*
X135501143Y-138601143D01*
X136786857Y-116689143D02*
X136834476Y-116736762D01*
X136977333Y-116784381D01*
X137072571Y-116784381D01*
X137215429Y-116736762D01*
X137310667Y-116641524D01*
X137358286Y-116546286D01*
X137405905Y-116355810D01*
X137405905Y-116212952D01*
X137358286Y-116022476D01*
X137310667Y-115927238D01*
X137215429Y-115832000D01*
X137072571Y-115784381D01*
X136977333Y-115784381D01*
X136834476Y-115832000D01*
X136786857Y-115879619D01*
X135834476Y-116784381D02*
X136405905Y-116784381D01*
X136120191Y-116784381D02*
X136120191Y-115784381D01*
X136215429Y-115927238D01*
X136310667Y-116022476D01*
X136405905Y-116070095D01*
X134977333Y-116117714D02*
X134977333Y-116784381D01*
X135215429Y-115736762D02*
X135453524Y-116451048D01*
X134834476Y-116451048D01*
X136786857Y-107545143D02*
X136834476Y-107592762D01*
X136977333Y-107640381D01*
X137072571Y-107640381D01*
X137215429Y-107592762D01*
X137310667Y-107497524D01*
X137358286Y-107402286D01*
X137405905Y-107211810D01*
X137405905Y-107068952D01*
X137358286Y-106878476D01*
X137310667Y-106783238D01*
X137215429Y-106688000D01*
X137072571Y-106640381D01*
X136977333Y-106640381D01*
X136834476Y-106688000D01*
X136786857Y-106735619D01*
X135834476Y-107640381D02*
X136405905Y-107640381D01*
X136120191Y-107640381D02*
X136120191Y-106640381D01*
X136215429Y-106783238D01*
X136310667Y-106878476D01*
X136405905Y-106926095D01*
X134929714Y-106640381D02*
X135405905Y-106640381D01*
X135453524Y-107116571D01*
X135405905Y-107068952D01*
X135310667Y-107021333D01*
X135072571Y-107021333D01*
X134977333Y-107068952D01*
X134929714Y-107116571D01*
X134882095Y-107211810D01*
X134882095Y-107449905D01*
X134929714Y-107545143D01*
X134977333Y-107592762D01*
X135072571Y-107640381D01*
X135310667Y-107640381D01*
X135405905Y-107592762D01*
X135453524Y-107545143D01*
X119514857Y-116181143D02*
X119562476Y-116228762D01*
X119705333Y-116276381D01*
X119800571Y-116276381D01*
X119943429Y-116228762D01*
X120038667Y-116133524D01*
X120086286Y-116038286D01*
X120133905Y-115847810D01*
X120133905Y-115704952D01*
X120086286Y-115514476D01*
X120038667Y-115419238D01*
X119943429Y-115324000D01*
X119800571Y-115276381D01*
X119705333Y-115276381D01*
X119562476Y-115324000D01*
X119514857Y-115371619D01*
X119133905Y-115371619D02*
X119086286Y-115324000D01*
X118991048Y-115276381D01*
X118752952Y-115276381D01*
X118657714Y-115324000D01*
X118610095Y-115371619D01*
X118562476Y-115466857D01*
X118562476Y-115562095D01*
X118610095Y-115704952D01*
X119181524Y-116276381D01*
X118562476Y-116276381D01*
X117991048Y-115704952D02*
X118086286Y-115657333D01*
X118133905Y-115609714D01*
X118181524Y-115514476D01*
X118181524Y-115466857D01*
X118133905Y-115371619D01*
X118086286Y-115324000D01*
X117991048Y-115276381D01*
X117800571Y-115276381D01*
X117705333Y-115324000D01*
X117657714Y-115371619D01*
X117610095Y-115466857D01*
X117610095Y-115514476D01*
X117657714Y-115609714D01*
X117705333Y-115657333D01*
X117800571Y-115704952D01*
X117991048Y-115704952D01*
X118086286Y-115752571D01*
X118133905Y-115800190D01*
X118181524Y-115895429D01*
X118181524Y-116085905D01*
X118133905Y-116181143D01*
X118086286Y-116228762D01*
X117991048Y-116276381D01*
X117800571Y-116276381D01*
X117705333Y-116228762D01*
X117657714Y-116181143D01*
X117610095Y-116085905D01*
X117610095Y-115895429D01*
X117657714Y-115800190D01*
X117705333Y-115752571D01*
X117800571Y-115704952D01*
X122277143Y-108069143D02*
X122324762Y-108021524D01*
X122372381Y-107878667D01*
X122372381Y-107783429D01*
X122324762Y-107640571D01*
X122229524Y-107545333D01*
X122134286Y-107497714D01*
X121943810Y-107450095D01*
X121800952Y-107450095D01*
X121610476Y-107497714D01*
X121515238Y-107545333D01*
X121420000Y-107640571D01*
X121372381Y-107783429D01*
X121372381Y-107878667D01*
X121420000Y-108021524D01*
X121467619Y-108069143D01*
X121467619Y-108450095D02*
X121420000Y-108497714D01*
X121372381Y-108592952D01*
X121372381Y-108831048D01*
X121420000Y-108926286D01*
X121467619Y-108973905D01*
X121562857Y-109021524D01*
X121658095Y-109021524D01*
X121800952Y-108973905D01*
X122372381Y-108402476D01*
X122372381Y-109021524D01*
X122372381Y-109497714D02*
X122372381Y-109688190D01*
X122324762Y-109783429D01*
X122277143Y-109831048D01*
X122134286Y-109926286D01*
X121943810Y-109973905D01*
X121562857Y-109973905D01*
X121467619Y-109926286D01*
X121420000Y-109878667D01*
X121372381Y-109783429D01*
X121372381Y-109592952D01*
X121420000Y-109497714D01*
X121467619Y-109450095D01*
X121562857Y-109402476D01*
X121800952Y-109402476D01*
X121896190Y-109450095D01*
X121943810Y-109497714D01*
X121991429Y-109592952D01*
X121991429Y-109783429D01*
X121943810Y-109878667D01*
X121896190Y-109926286D01*
X121800952Y-109973905D01*
X122086666Y-120848381D02*
X122420000Y-120372190D01*
X122658095Y-120848381D02*
X122658095Y-119848381D01*
X122277142Y-119848381D01*
X122181904Y-119896000D01*
X122134285Y-119943619D01*
X122086666Y-120038857D01*
X122086666Y-120181714D01*
X122134285Y-120276952D01*
X122181904Y-120324571D01*
X122277142Y-120372190D01*
X122658095Y-120372190D01*
X121753333Y-119848381D02*
X121134285Y-119848381D01*
X121467619Y-120229333D01*
X121324761Y-120229333D01*
X121229523Y-120276952D01*
X121181904Y-120324571D01*
X121134285Y-120419810D01*
X121134285Y-120657905D01*
X121181904Y-120753143D01*
X121229523Y-120800762D01*
X121324761Y-120848381D01*
X121610476Y-120848381D01*
X121705714Y-120800762D01*
X121753333Y-120753143D01*
X117514666Y-106624381D02*
X117848000Y-106148190D01*
X118086095Y-106624381D02*
X118086095Y-105624381D01*
X117705142Y-105624381D01*
X117609904Y-105672000D01*
X117562285Y-105719619D01*
X117514666Y-105814857D01*
X117514666Y-105957714D01*
X117562285Y-106052952D01*
X117609904Y-106100571D01*
X117705142Y-106148190D01*
X118086095Y-106148190D01*
X116943238Y-106052952D02*
X117038476Y-106005333D01*
X117086095Y-105957714D01*
X117133714Y-105862476D01*
X117133714Y-105814857D01*
X117086095Y-105719619D01*
X117038476Y-105672000D01*
X116943238Y-105624381D01*
X116752761Y-105624381D01*
X116657523Y-105672000D01*
X116609904Y-105719619D01*
X116562285Y-105814857D01*
X116562285Y-105862476D01*
X116609904Y-105957714D01*
X116657523Y-106005333D01*
X116752761Y-106052952D01*
X116943238Y-106052952D01*
X117038476Y-106100571D01*
X117086095Y-106148190D01*
X117133714Y-106243429D01*
X117133714Y-106433905D01*
X117086095Y-106529143D01*
X117038476Y-106576762D01*
X116943238Y-106624381D01*
X116752761Y-106624381D01*
X116657523Y-106576762D01*
X116609904Y-106529143D01*
X116562285Y-106433905D01*
X116562285Y-106243429D01*
X116609904Y-106148190D01*
X116657523Y-106100571D01*
X116752761Y-106052952D01*
X119546666Y-132786381D02*
X119880000Y-132310190D01*
X120118095Y-132786381D02*
X120118095Y-131786381D01*
X119737142Y-131786381D01*
X119641904Y-131834000D01*
X119594285Y-131881619D01*
X119546666Y-131976857D01*
X119546666Y-132119714D01*
X119594285Y-132214952D01*
X119641904Y-132262571D01*
X119737142Y-132310190D01*
X120118095Y-132310190D01*
X118689523Y-131786381D02*
X118880000Y-131786381D01*
X118975238Y-131834000D01*
X119022857Y-131881619D01*
X119118095Y-132024476D01*
X119165714Y-132214952D01*
X119165714Y-132595905D01*
X119118095Y-132691143D01*
X119070476Y-132738762D01*
X118975238Y-132786381D01*
X118784761Y-132786381D01*
X118689523Y-132738762D01*
X118641904Y-132691143D01*
X118594285Y-132595905D01*
X118594285Y-132357810D01*
X118641904Y-132262571D01*
X118689523Y-132214952D01*
X118784761Y-132167333D01*
X118975238Y-132167333D01*
X119070476Y-132214952D01*
X119118095Y-132262571D01*
X119165714Y-132357810D01*
X118054381Y-136993334D02*
X117578190Y-136660000D01*
X118054381Y-136421905D02*
X117054381Y-136421905D01*
X117054381Y-136802858D01*
X117102000Y-136898096D01*
X117149619Y-136945715D01*
X117244857Y-136993334D01*
X117387714Y-136993334D01*
X117482952Y-136945715D01*
X117530571Y-136898096D01*
X117578190Y-136802858D01*
X117578190Y-136421905D01*
X117149619Y-137374286D02*
X117102000Y-137421905D01*
X117054381Y-137517143D01*
X117054381Y-137755239D01*
X117102000Y-137850477D01*
X117149619Y-137898096D01*
X117244857Y-137945715D01*
X117340095Y-137945715D01*
X117482952Y-137898096D01*
X118054381Y-137326667D01*
X118054381Y-137945715D01*
X143200381Y-147089905D02*
X142200381Y-147089905D01*
X142200381Y-147470858D01*
X142248000Y-147566096D01*
X142295619Y-147613715D01*
X142390857Y-147661334D01*
X142533714Y-147661334D01*
X142628952Y-147613715D01*
X142676571Y-147566096D01*
X142724190Y-147470858D01*
X142724190Y-147089905D01*
X143200381Y-148613715D02*
X143200381Y-148042286D01*
X143200381Y-148328000D02*
X142200381Y-148328000D01*
X142343238Y-148232762D01*
X142438476Y-148137524D01*
X142486095Y-148042286D01*
X105894095Y-138120381D02*
X105894095Y-137120381D01*
X105513142Y-137120381D01*
X105417904Y-137168000D01*
X105370285Y-137215619D01*
X105322666Y-137310857D01*
X105322666Y-137453714D01*
X105370285Y-137548952D01*
X105417904Y-137596571D01*
X105513142Y-137644190D01*
X105894095Y-137644190D01*
X104989333Y-137120381D02*
X104370285Y-137120381D01*
X104703619Y-137501333D01*
X104560761Y-137501333D01*
X104465523Y-137548952D01*
X104417904Y-137596571D01*
X104370285Y-137691810D01*
X104370285Y-137929905D01*
X104417904Y-138025143D01*
X104465523Y-138072762D01*
X104560761Y-138120381D01*
X104846476Y-138120381D01*
X104941714Y-138072762D01*
X104989333Y-138025143D01*
X127230095Y-137938381D02*
X127230095Y-136938381D01*
X126992000Y-136938381D01*
X126849142Y-136986000D01*
X126753904Y-137081238D01*
X126706285Y-137176476D01*
X126658666Y-137366952D01*
X126658666Y-137509810D01*
X126706285Y-137700286D01*
X126753904Y-137795524D01*
X126849142Y-137890762D01*
X126992000Y-137938381D01*
X127230095Y-137938381D01*
X126325333Y-136938381D02*
X125706285Y-136938381D01*
X126039619Y-137319333D01*
X125896761Y-137319333D01*
X125801523Y-137366952D01*
X125753904Y-137414571D01*
X125706285Y-137509810D01*
X125706285Y-137747905D01*
X125753904Y-137843143D01*
X125801523Y-137890762D01*
X125896761Y-137938381D01*
X126182476Y-137938381D01*
X126277714Y-137890762D01*
X126325333Y-137843143D01*
X131294095Y-129810381D02*
X131294095Y-128810381D01*
X131056000Y-128810381D01*
X130913142Y-128858000D01*
X130817904Y-128953238D01*
X130770285Y-129048476D01*
X130722666Y-129238952D01*
X130722666Y-129381810D01*
X130770285Y-129572286D01*
X130817904Y-129667524D01*
X130913142Y-129762762D01*
X131056000Y-129810381D01*
X131294095Y-129810381D01*
X130341714Y-128905619D02*
X130294095Y-128858000D01*
X130198857Y-128810381D01*
X129960761Y-128810381D01*
X129865523Y-128858000D01*
X129817904Y-128905619D01*
X129770285Y-129000857D01*
X129770285Y-129096095D01*
X129817904Y-129238952D01*
X130389333Y-129810381D01*
X129770285Y-129810381D01*
X137326666Y-147423143D02*
X137374285Y-147470762D01*
X137517142Y-147518381D01*
X137612380Y-147518381D01*
X137755238Y-147470762D01*
X137850476Y-147375524D01*
X137898095Y-147280286D01*
X137945714Y-147089810D01*
X137945714Y-146946952D01*
X137898095Y-146756476D01*
X137850476Y-146661238D01*
X137755238Y-146566000D01*
X137612380Y-146518381D01*
X137517142Y-146518381D01*
X137374285Y-146566000D01*
X137326666Y-146613619D01*
X136469523Y-146518381D02*
X136660000Y-146518381D01*
X136755238Y-146566000D01*
X136802857Y-146613619D01*
X136898095Y-146756476D01*
X136945714Y-146946952D01*
X136945714Y-147327905D01*
X136898095Y-147423143D01*
X136850476Y-147470762D01*
X136755238Y-147518381D01*
X136564761Y-147518381D01*
X136469523Y-147470762D01*
X136421904Y-147423143D01*
X136374285Y-147327905D01*
X136374285Y-147089810D01*
X136421904Y-146994571D01*
X136469523Y-146946952D01*
X136564761Y-146899333D01*
X136755238Y-146899333D01*
X136850476Y-146946952D01*
X136898095Y-146994571D01*
X136945714Y-147089810D01*
X140390666Y-129457143D02*
X140438285Y-129504762D01*
X140581142Y-129552381D01*
X140676380Y-129552381D01*
X140819238Y-129504762D01*
X140914476Y-129409524D01*
X140962095Y-129314286D01*
X141009714Y-129123810D01*
X141009714Y-128980952D01*
X140962095Y-128790476D01*
X140914476Y-128695238D01*
X140819238Y-128600000D01*
X140676380Y-128552381D01*
X140581142Y-128552381D01*
X140438285Y-128600000D01*
X140390666Y-128647619D01*
X140057333Y-128552381D02*
X139390666Y-128552381D01*
X139819238Y-129552381D01*
X140390666Y-138601143D02*
X140438285Y-138648762D01*
X140581142Y-138696381D01*
X140676380Y-138696381D01*
X140819238Y-138648762D01*
X140914476Y-138553524D01*
X140962095Y-138458286D01*
X141009714Y-138267810D01*
X141009714Y-138124952D01*
X140962095Y-137934476D01*
X140914476Y-137839238D01*
X140819238Y-137744000D01*
X140676380Y-137696381D01*
X140581142Y-137696381D01*
X140438285Y-137744000D01*
X140390666Y-137791619D01*
X139819238Y-138124952D02*
X139914476Y-138077333D01*
X139962095Y-138029714D01*
X140009714Y-137934476D01*
X140009714Y-137886857D01*
X139962095Y-137791619D01*
X139914476Y-137744000D01*
X139819238Y-137696381D01*
X139628761Y-137696381D01*
X139533523Y-137744000D01*
X139485904Y-137791619D01*
X139438285Y-137886857D01*
X139438285Y-137934476D01*
X139485904Y-138029714D01*
X139533523Y-138077333D01*
X139628761Y-138124952D01*
X139819238Y-138124952D01*
X139914476Y-138172571D01*
X139962095Y-138220190D01*
X140009714Y-138315429D01*
X140009714Y-138505905D01*
X139962095Y-138601143D01*
X139914476Y-138648762D01*
X139819238Y-138696381D01*
X139628761Y-138696381D01*
X139533523Y-138648762D01*
X139485904Y-138601143D01*
X139438285Y-138505905D01*
X139438285Y-138315429D01*
X139485904Y-138220190D01*
X139533523Y-138172571D01*
X139628761Y-138124952D01*
X140358666Y-116621143D02*
X140406285Y-116668762D01*
X140549142Y-116716381D01*
X140644380Y-116716381D01*
X140787238Y-116668762D01*
X140882476Y-116573524D01*
X140930095Y-116478286D01*
X140977714Y-116287810D01*
X140977714Y-116144952D01*
X140930095Y-115954476D01*
X140882476Y-115859238D01*
X140787238Y-115764000D01*
X140644380Y-115716381D01*
X140549142Y-115716381D01*
X140406285Y-115764000D01*
X140358666Y-115811619D01*
X139882476Y-116716381D02*
X139692000Y-116716381D01*
X139596761Y-116668762D01*
X139549142Y-116621143D01*
X139453904Y-116478286D01*
X139406285Y-116287810D01*
X139406285Y-115906857D01*
X139453904Y-115811619D01*
X139501523Y-115764000D01*
X139596761Y-115716381D01*
X139787238Y-115716381D01*
X139882476Y-115764000D01*
X139930095Y-115811619D01*
X139977714Y-115906857D01*
X139977714Y-116144952D01*
X139930095Y-116240190D01*
X139882476Y-116287810D01*
X139787238Y-116335429D01*
X139596761Y-116335429D01*
X139501523Y-116287810D01*
X139453904Y-116240190D01*
X139406285Y-116144952D01*
X140834857Y-107477143D02*
X140882476Y-107524762D01*
X141025333Y-107572381D01*
X141120571Y-107572381D01*
X141263429Y-107524762D01*
X141358667Y-107429524D01*
X141406286Y-107334286D01*
X141453905Y-107143810D01*
X141453905Y-107000952D01*
X141406286Y-106810476D01*
X141358667Y-106715238D01*
X141263429Y-106620000D01*
X141120571Y-106572381D01*
X141025333Y-106572381D01*
X140882476Y-106620000D01*
X140834857Y-106667619D01*
X139882476Y-107572381D02*
X140453905Y-107572381D01*
X140168191Y-107572381D02*
X140168191Y-106572381D01*
X140263429Y-106715238D01*
X140358667Y-106810476D01*
X140453905Y-106858095D01*
X139263429Y-106572381D02*
X139168190Y-106572381D01*
X139072952Y-106620000D01*
X139025333Y-106667619D01*
X138977714Y-106762857D01*
X138930095Y-106953333D01*
X138930095Y-107191429D01*
X138977714Y-107381905D01*
X139025333Y-107477143D01*
X139072952Y-107524762D01*
X139168190Y-107572381D01*
X139263429Y-107572381D01*
X139358667Y-107524762D01*
X139406286Y-107477143D01*
X139453905Y-107381905D01*
X139501524Y-107191429D01*
X139501524Y-106953333D01*
X139453905Y-106762857D01*
X139406286Y-106667619D01*
X139358667Y-106620000D01*
X139263429Y-106572381D01*
X124102857Y-131489143D02*
X124150476Y-131536762D01*
X124293333Y-131584381D01*
X124388571Y-131584381D01*
X124531429Y-131536762D01*
X124626667Y-131441524D01*
X124674286Y-131346286D01*
X124721905Y-131155810D01*
X124721905Y-131012952D01*
X124674286Y-130822476D01*
X124626667Y-130727238D01*
X124531429Y-130632000D01*
X124388571Y-130584381D01*
X124293333Y-130584381D01*
X124150476Y-130632000D01*
X124102857Y-130679619D01*
X123721905Y-130679619D02*
X123674286Y-130632000D01*
X123579048Y-130584381D01*
X123340952Y-130584381D01*
X123245714Y-130632000D01*
X123198095Y-130679619D01*
X123150476Y-130774857D01*
X123150476Y-130870095D01*
X123198095Y-131012952D01*
X123769524Y-131584381D01*
X123150476Y-131584381D01*
X122198095Y-131584381D02*
X122769524Y-131584381D01*
X122483810Y-131584381D02*
X122483810Y-130584381D01*
X122579048Y-130727238D01*
X122674286Y-130822476D01*
X122769524Y-130870095D01*
X123801143Y-136533143D02*
X123848762Y-136485524D01*
X123896381Y-136342667D01*
X123896381Y-136247429D01*
X123848762Y-136104571D01*
X123753524Y-136009333D01*
X123658286Y-135961714D01*
X123467810Y-135914095D01*
X123324952Y-135914095D01*
X123134476Y-135961714D01*
X123039238Y-136009333D01*
X122944000Y-136104571D01*
X122896381Y-136247429D01*
X122896381Y-136342667D01*
X122944000Y-136485524D01*
X122991619Y-136533143D01*
X122991619Y-136914095D02*
X122944000Y-136961714D01*
X122896381Y-137056952D01*
X122896381Y-137295048D01*
X122944000Y-137390286D01*
X122991619Y-137437905D01*
X123086857Y-137485524D01*
X123182095Y-137485524D01*
X123324952Y-137437905D01*
X123896381Y-136866476D01*
X123896381Y-137485524D01*
X122991619Y-137866476D02*
X122944000Y-137914095D01*
X122896381Y-138009333D01*
X122896381Y-138247429D01*
X122944000Y-138342667D01*
X122991619Y-138390286D01*
X123086857Y-138437905D01*
X123182095Y-138437905D01*
X123324952Y-138390286D01*
X123896381Y-137818857D01*
X123896381Y-138437905D01*
X123324857Y-122785143D02*
X123372476Y-122832762D01*
X123515333Y-122880381D01*
X123610571Y-122880381D01*
X123753429Y-122832762D01*
X123848667Y-122737524D01*
X123896286Y-122642286D01*
X123943905Y-122451810D01*
X123943905Y-122308952D01*
X123896286Y-122118476D01*
X123848667Y-122023238D01*
X123753429Y-121928000D01*
X123610571Y-121880381D01*
X123515333Y-121880381D01*
X123372476Y-121928000D01*
X123324857Y-121975619D01*
X122943905Y-121975619D02*
X122896286Y-121928000D01*
X122801048Y-121880381D01*
X122562952Y-121880381D01*
X122467714Y-121928000D01*
X122420095Y-121975619D01*
X122372476Y-122070857D01*
X122372476Y-122166095D01*
X122420095Y-122308952D01*
X122991524Y-122880381D01*
X122372476Y-122880381D01*
X122039143Y-121880381D02*
X121420095Y-121880381D01*
X121753429Y-122261333D01*
X121610571Y-122261333D01*
X121515333Y-122308952D01*
X121467714Y-122356571D01*
X121420095Y-122451810D01*
X121420095Y-122689905D01*
X121467714Y-122785143D01*
X121515333Y-122832762D01*
X121610571Y-122880381D01*
X121896286Y-122880381D01*
X121991524Y-122832762D01*
X122039143Y-122785143D01*
X116212857Y-114149143D02*
X116260476Y-114196762D01*
X116403333Y-114244381D01*
X116498571Y-114244381D01*
X116641429Y-114196762D01*
X116736667Y-114101524D01*
X116784286Y-114006286D01*
X116831905Y-113815810D01*
X116831905Y-113672952D01*
X116784286Y-113482476D01*
X116736667Y-113387238D01*
X116641429Y-113292000D01*
X116498571Y-113244381D01*
X116403333Y-113244381D01*
X116260476Y-113292000D01*
X116212857Y-113339619D01*
X115831905Y-113339619D02*
X115784286Y-113292000D01*
X115689048Y-113244381D01*
X115450952Y-113244381D01*
X115355714Y-113292000D01*
X115308095Y-113339619D01*
X115260476Y-113434857D01*
X115260476Y-113530095D01*
X115308095Y-113672952D01*
X115879524Y-114244381D01*
X115260476Y-114244381D01*
X114403333Y-113577714D02*
X114403333Y-114244381D01*
X114641429Y-113196762D02*
X114879524Y-113911048D01*
X114260476Y-113911048D01*
X113514095Y-114752381D02*
X113514095Y-113752381D01*
X113276000Y-113752381D01*
X113133142Y-113800000D01*
X113037904Y-113895238D01*
X112990285Y-113990476D01*
X112942666Y-114180952D01*
X112942666Y-114323810D01*
X112990285Y-114514286D01*
X113037904Y-114609524D01*
X113133142Y-114704762D01*
X113276000Y-114752381D01*
X113514095Y-114752381D01*
X112085523Y-113752381D02*
X112276000Y-113752381D01*
X112371238Y-113800000D01*
X112418857Y-113847619D01*
X112514095Y-113990476D01*
X112561714Y-114180952D01*
X112561714Y-114561905D01*
X112514095Y-114657143D01*
X112466476Y-114704762D01*
X112371238Y-114752381D01*
X112180761Y-114752381D01*
X112085523Y-114704762D01*
X112037904Y-114657143D01*
X111990285Y-114561905D01*
X111990285Y-114323810D01*
X112037904Y-114228571D01*
X112085523Y-114180952D01*
X112180761Y-114133333D01*
X112371238Y-114133333D01*
X112466476Y-114180952D01*
X112514095Y-114228571D01*
X112561714Y-114323810D01*
X112498095Y-105393381D02*
X112498095Y-104393381D01*
X112260000Y-104393381D01*
X112117142Y-104441000D01*
X112021904Y-104536238D01*
X111974285Y-104631476D01*
X111926666Y-104821952D01*
X111926666Y-104964810D01*
X111974285Y-105155286D01*
X112021904Y-105250524D01*
X112117142Y-105345762D01*
X112260000Y-105393381D01*
X112498095Y-105393381D01*
X111593333Y-104393381D02*
X110926666Y-104393381D01*
X111355238Y-105393381D01*
X111990095Y-121356381D02*
X111990095Y-120356381D01*
X111752000Y-120356381D01*
X111609142Y-120404000D01*
X111513904Y-120499238D01*
X111466285Y-120594476D01*
X111418666Y-120784952D01*
X111418666Y-120927810D01*
X111466285Y-121118286D01*
X111513904Y-121213524D01*
X111609142Y-121308762D01*
X111752000Y-121356381D01*
X111990095Y-121356381D01*
X110847238Y-120784952D02*
X110942476Y-120737333D01*
X110990095Y-120689714D01*
X111037714Y-120594476D01*
X111037714Y-120546857D01*
X110990095Y-120451619D01*
X110942476Y-120404000D01*
X110847238Y-120356381D01*
X110656761Y-120356381D01*
X110561523Y-120404000D01*
X110513904Y-120451619D01*
X110466285Y-120546857D01*
X110466285Y-120594476D01*
X110513904Y-120689714D01*
X110561523Y-120737333D01*
X110656761Y-120784952D01*
X110847238Y-120784952D01*
X110942476Y-120832571D01*
X110990095Y-120880190D01*
X111037714Y-120975429D01*
X111037714Y-121165905D01*
X110990095Y-121261143D01*
X110942476Y-121308762D01*
X110847238Y-121356381D01*
X110656761Y-121356381D01*
X110561523Y-121308762D01*
X110513904Y-121261143D01*
X110466285Y-121165905D01*
X110466285Y-120975429D01*
X110513904Y-120880190D01*
X110561523Y-120832571D01*
X110656761Y-120784952D01*
X112498095Y-112974381D02*
X112498095Y-111974381D01*
X112260000Y-111974381D01*
X112117142Y-112022000D01*
X112021904Y-112117238D01*
X111974285Y-112212476D01*
X111926666Y-112402952D01*
X111926666Y-112545810D01*
X111974285Y-112736286D01*
X112021904Y-112831524D01*
X112117142Y-112926762D01*
X112260000Y-112974381D01*
X112498095Y-112974381D01*
X111450476Y-112974381D02*
X111260000Y-112974381D01*
X111164761Y-112926762D01*
X111117142Y-112879143D01*
X111021904Y-112736286D01*
X110974285Y-112545810D01*
X110974285Y-112164857D01*
X111021904Y-112069619D01*
X111069523Y-112022000D01*
X111164761Y-111974381D01*
X111355238Y-111974381D01*
X111450476Y-112022000D01*
X111498095Y-112069619D01*
X111545714Y-112164857D01*
X111545714Y-112402952D01*
X111498095Y-112498190D01*
X111450476Y-112545810D01*
X111355238Y-112593429D01*
X111164761Y-112593429D01*
X111069523Y-112545810D01*
X111021904Y-112498190D01*
X110974285Y-112402952D01*
M02*
