G04 #@! TF.FileFunction,Legend,Top*
%FSLAX46Y46*%
G04 Gerber Fmt 4.6, Leading zero omitted, Abs format (unit mm)*
G04 Created by KiCad (PCBNEW 4.0.2-4+6225~38~ubuntu14.04.1-stable) date Fri 18 Mar 2016 20:07:36 GMT*
%MOMM*%
G01*
G04 APERTURE LIST*
%ADD10C,0.100000*%
%ADD11C,0.120000*%
%ADD12C,0.300000*%
%ADD13C,0.200000*%
%ADD14C,0.150000*%
%ADD15C,0.110000*%
G04 APERTURE END LIST*
D10*
X143415143Y-146207856D02*
X143415143Y-145864999D01*
X143586571Y-146036428D02*
X143243714Y-146036428D01*
X143586571Y-145414999D02*
X143586571Y-145672142D01*
X143586571Y-145543570D02*
X143136571Y-145543570D01*
X143200857Y-145586427D01*
X143243714Y-145629285D01*
X143265143Y-145672142D01*
X143179429Y-145243571D02*
X143158000Y-145222142D01*
X143136571Y-145179285D01*
X143136571Y-145072142D01*
X143158000Y-145029285D01*
X143179429Y-145007856D01*
X143222286Y-144986428D01*
X143265143Y-144986428D01*
X143329429Y-145007856D01*
X143586571Y-145264999D01*
X143586571Y-144986428D01*
X143136571Y-144857857D02*
X143586571Y-144707857D01*
X143136571Y-144557857D01*
X149254000Y-145630857D02*
X149232571Y-145673714D01*
X149232571Y-145738000D01*
X149254000Y-145802285D01*
X149296857Y-145845143D01*
X149339714Y-145866571D01*
X149425429Y-145888000D01*
X149489714Y-145888000D01*
X149575429Y-145866571D01*
X149618286Y-145845143D01*
X149661143Y-145802285D01*
X149682571Y-145738000D01*
X149682571Y-145695143D01*
X149661143Y-145630857D01*
X149639714Y-145609428D01*
X149489714Y-145609428D01*
X149489714Y-145695143D01*
X149682571Y-145416571D02*
X149232571Y-145416571D01*
X149682571Y-145159428D01*
X149232571Y-145159428D01*
X149682571Y-144945142D02*
X149232571Y-144945142D01*
X149232571Y-144837999D01*
X149254000Y-144773714D01*
X149296857Y-144730856D01*
X149339714Y-144709428D01*
X149425429Y-144687999D01*
X149489714Y-144687999D01*
X149575429Y-144709428D01*
X149618286Y-144730856D01*
X149661143Y-144773714D01*
X149682571Y-144837999D01*
X149682571Y-144945142D01*
X102143714Y-140850856D02*
X102143714Y-140469904D01*
X102334190Y-140660380D02*
X101953238Y-140660380D01*
X101834190Y-139993713D02*
X101834190Y-140231808D01*
X102072286Y-140255618D01*
X102048476Y-140231808D01*
X102024667Y-140184189D01*
X102024667Y-140065142D01*
X102048476Y-140017523D01*
X102072286Y-139993713D01*
X102119905Y-139969904D01*
X102238952Y-139969904D01*
X102286571Y-139993713D01*
X102310381Y-140017523D01*
X102334190Y-140065142D01*
X102334190Y-140184189D01*
X102310381Y-140231808D01*
X102286571Y-140255618D01*
X101834190Y-139827047D02*
X102334190Y-139660380D01*
X101834190Y-139493714D01*
X102143714Y-143628951D02*
X102143714Y-143247999D01*
X102334190Y-142747999D02*
X102334190Y-143033713D01*
X102334190Y-142890856D02*
X101834190Y-142890856D01*
X101905619Y-142938475D01*
X101953238Y-142986094D01*
X101977048Y-143033713D01*
X102334190Y-142509904D02*
X102334190Y-142414666D01*
X102310381Y-142367047D01*
X102286571Y-142343237D01*
X102215143Y-142295618D01*
X102119905Y-142271809D01*
X101929429Y-142271809D01*
X101881810Y-142295618D01*
X101858000Y-142319428D01*
X101834190Y-142367047D01*
X101834190Y-142462285D01*
X101858000Y-142509904D01*
X101881810Y-142533713D01*
X101929429Y-142557523D01*
X102048476Y-142557523D01*
X102096095Y-142533713D01*
X102119905Y-142509904D01*
X102143714Y-142462285D01*
X102143714Y-142367047D01*
X102119905Y-142319428D01*
X102096095Y-142295618D01*
X102048476Y-142271809D01*
X101834190Y-142128952D02*
X102334190Y-141962285D01*
X101834190Y-141795619D01*
X107954000Y-145883238D02*
X107930190Y-145930857D01*
X107930190Y-146002285D01*
X107954000Y-146073714D01*
X108001619Y-146121333D01*
X108049238Y-146145142D01*
X108144476Y-146168952D01*
X108215905Y-146168952D01*
X108311143Y-146145142D01*
X108358762Y-146121333D01*
X108406381Y-146073714D01*
X108430190Y-146002285D01*
X108430190Y-145954666D01*
X108406381Y-145883238D01*
X108382571Y-145859428D01*
X108215905Y-145859428D01*
X108215905Y-145954666D01*
X108430190Y-145645142D02*
X107930190Y-145645142D01*
X108430190Y-145359428D01*
X107930190Y-145359428D01*
X108430190Y-145121332D02*
X107930190Y-145121332D01*
X107930190Y-145002285D01*
X107954000Y-144930856D01*
X108001619Y-144883237D01*
X108049238Y-144859428D01*
X108144476Y-144835618D01*
X108215905Y-144835618D01*
X108311143Y-144859428D01*
X108358762Y-144883237D01*
X108406381Y-144930856D01*
X108430190Y-145002285D01*
X108430190Y-145121332D01*
X108287333Y-144645142D02*
X108287333Y-144407047D01*
X108430190Y-144692761D02*
X107930190Y-144526094D01*
X108430190Y-144359428D01*
X102143714Y-148708951D02*
X102143714Y-148327999D01*
X102334190Y-148518475D02*
X101953238Y-148518475D01*
X102334190Y-147827999D02*
X102334190Y-148113713D01*
X102334190Y-147970856D02*
X101834190Y-147970856D01*
X101905619Y-148018475D01*
X101953238Y-148066094D01*
X101977048Y-148113713D01*
X102334190Y-147589904D02*
X102334190Y-147494666D01*
X102310381Y-147447047D01*
X102286571Y-147423237D01*
X102215143Y-147375618D01*
X102119905Y-147351809D01*
X101929429Y-147351809D01*
X101881810Y-147375618D01*
X101858000Y-147399428D01*
X101834190Y-147447047D01*
X101834190Y-147542285D01*
X101858000Y-147589904D01*
X101881810Y-147613713D01*
X101929429Y-147637523D01*
X102048476Y-147637523D01*
X102096095Y-147613713D01*
X102119905Y-147589904D01*
X102143714Y-147542285D01*
X102143714Y-147447047D01*
X102119905Y-147399428D01*
X102096095Y-147375618D01*
X102048476Y-147351809D01*
X101834190Y-147208952D02*
X102334190Y-147042285D01*
X101834190Y-146875619D01*
X108239714Y-148827999D02*
X108239714Y-148447047D01*
X108430190Y-148637523D02*
X108049238Y-148637523D01*
X107930190Y-148256570D02*
X107930190Y-147923237D01*
X108430190Y-148137523D01*
X108382571Y-147732761D02*
X108406381Y-147708952D01*
X108430190Y-147732761D01*
X108406381Y-147756571D01*
X108382571Y-147732761D01*
X108430190Y-147732761D01*
X107930190Y-147256571D02*
X107930190Y-147494666D01*
X108168286Y-147518476D01*
X108144476Y-147494666D01*
X108120667Y-147447047D01*
X108120667Y-147328000D01*
X108144476Y-147280381D01*
X108168286Y-147256571D01*
X108215905Y-147232762D01*
X108334952Y-147232762D01*
X108382571Y-147256571D01*
X108406381Y-147280381D01*
X108430190Y-147328000D01*
X108430190Y-147447047D01*
X108406381Y-147494666D01*
X108382571Y-147518476D01*
X107930190Y-147089905D02*
X108430190Y-146923238D01*
X107930190Y-146756572D01*
X101858000Y-145883238D02*
X101834190Y-145930857D01*
X101834190Y-146002285D01*
X101858000Y-146073714D01*
X101905619Y-146121333D01*
X101953238Y-146145142D01*
X102048476Y-146168952D01*
X102119905Y-146168952D01*
X102215143Y-146145142D01*
X102262762Y-146121333D01*
X102310381Y-146073714D01*
X102334190Y-146002285D01*
X102334190Y-145954666D01*
X102310381Y-145883238D01*
X102286571Y-145859428D01*
X102119905Y-145859428D01*
X102119905Y-145954666D01*
X102334190Y-145645142D02*
X101834190Y-145645142D01*
X102334190Y-145359428D01*
X101834190Y-145359428D01*
X102334190Y-145121332D02*
X101834190Y-145121332D01*
X101834190Y-145002285D01*
X101858000Y-144930856D01*
X101905619Y-144883237D01*
X101953238Y-144859428D01*
X102048476Y-144835618D01*
X102119905Y-144835618D01*
X102215143Y-144859428D01*
X102262762Y-144883237D01*
X102310381Y-144930856D01*
X102334190Y-145002285D01*
X102334190Y-145121332D01*
X102191333Y-144645142D02*
X102191333Y-144407047D01*
X102334190Y-144692761D02*
X101834190Y-144526094D01*
X102334190Y-144359428D01*
X108239714Y-143747999D02*
X108239714Y-143367047D01*
X107930190Y-143176570D02*
X107930190Y-142843237D01*
X108430190Y-143057523D01*
X108382571Y-142652761D02*
X108406381Y-142628952D01*
X108430190Y-142652761D01*
X108406381Y-142676571D01*
X108382571Y-142652761D01*
X108430190Y-142652761D01*
X107930190Y-142176571D02*
X107930190Y-142414666D01*
X108168286Y-142438476D01*
X108144476Y-142414666D01*
X108120667Y-142367047D01*
X108120667Y-142248000D01*
X108144476Y-142200381D01*
X108168286Y-142176571D01*
X108215905Y-142152762D01*
X108334952Y-142152762D01*
X108382571Y-142176571D01*
X108406381Y-142200381D01*
X108430190Y-142248000D01*
X108430190Y-142367047D01*
X108406381Y-142414666D01*
X108382571Y-142438476D01*
X107930190Y-142009905D02*
X108430190Y-141843238D01*
X107930190Y-141676572D01*
X107954000Y-140588953D02*
X107930190Y-140636572D01*
X107930190Y-140708000D01*
X107954000Y-140779429D01*
X108001619Y-140827048D01*
X108049238Y-140850857D01*
X108144476Y-140874667D01*
X108215905Y-140874667D01*
X108311143Y-140850857D01*
X108358762Y-140827048D01*
X108406381Y-140779429D01*
X108430190Y-140708000D01*
X108430190Y-140660381D01*
X108406381Y-140588953D01*
X108382571Y-140565143D01*
X108215905Y-140565143D01*
X108215905Y-140660381D01*
X108430190Y-140350857D02*
X107930190Y-140350857D01*
X108430190Y-140065143D01*
X107930190Y-140065143D01*
X108430190Y-139827047D02*
X107930190Y-139827047D01*
X107930190Y-139708000D01*
X107954000Y-139636571D01*
X108001619Y-139588952D01*
X108049238Y-139565143D01*
X108144476Y-139541333D01*
X108215905Y-139541333D01*
X108311143Y-139565143D01*
X108358762Y-139588952D01*
X108406381Y-139636571D01*
X108430190Y-139708000D01*
X108430190Y-139827047D01*
D11*
X101536476Y-102357905D02*
X101536476Y-101557905D01*
X101803143Y-102129333D01*
X102069810Y-101557905D01*
X102069810Y-102357905D01*
X102450762Y-102357905D02*
X102450762Y-101824571D01*
X102450762Y-101557905D02*
X102412667Y-101596000D01*
X102450762Y-101634095D01*
X102488857Y-101596000D01*
X102450762Y-101557905D01*
X102450762Y-101634095D01*
X103174571Y-102319810D02*
X103098381Y-102357905D01*
X102946000Y-102357905D01*
X102869809Y-102319810D01*
X102831714Y-102281714D01*
X102793619Y-102205524D01*
X102793619Y-101976952D01*
X102831714Y-101900762D01*
X102869809Y-101862667D01*
X102946000Y-101824571D01*
X103098381Y-101824571D01*
X103174571Y-101862667D01*
X103517428Y-102357905D02*
X103517428Y-101824571D01*
X103517428Y-101976952D02*
X103555523Y-101900762D01*
X103593619Y-101862667D01*
X103669809Y-101824571D01*
X103746000Y-101824571D01*
X104126952Y-102357905D02*
X104050761Y-102319810D01*
X104012666Y-102281714D01*
X103974571Y-102205524D01*
X103974571Y-101976952D01*
X104012666Y-101900762D01*
X104050761Y-101862667D01*
X104126952Y-101824571D01*
X104241238Y-101824571D01*
X104317428Y-101862667D01*
X104355523Y-101900762D01*
X104393619Y-101976952D01*
X104393619Y-102205524D01*
X104355523Y-102281714D01*
X104317428Y-102319810D01*
X104241238Y-102357905D01*
X104126952Y-102357905D01*
X105003143Y-101938857D02*
X104736476Y-101938857D01*
X104736476Y-102357905D02*
X104736476Y-101557905D01*
X105117429Y-101557905D01*
X105803143Y-102357905D02*
X105422190Y-102357905D01*
X105422190Y-101557905D01*
X106069809Y-102357905D02*
X106069809Y-101557905D01*
X106907904Y-102281714D02*
X106869809Y-102319810D01*
X106755523Y-102357905D01*
X106679333Y-102357905D01*
X106565047Y-102319810D01*
X106488856Y-102243619D01*
X106450761Y-102167429D01*
X106412666Y-102015048D01*
X106412666Y-101900762D01*
X106450761Y-101748381D01*
X106488856Y-101672190D01*
X106565047Y-101596000D01*
X106679333Y-101557905D01*
X106755523Y-101557905D01*
X106869809Y-101596000D01*
X106907904Y-101634095D01*
X107822190Y-102129333D02*
X108203142Y-102129333D01*
X107745999Y-102357905D02*
X108012666Y-101557905D01*
X108279333Y-102357905D01*
X108545999Y-102357905D02*
X108545999Y-101557905D01*
X108736475Y-101557905D01*
X108850761Y-101596000D01*
X108926952Y-101672190D01*
X108965047Y-101748381D01*
X109003142Y-101900762D01*
X109003142Y-102015048D01*
X108965047Y-102167429D01*
X108926952Y-102243619D01*
X108850761Y-102319810D01*
X108736475Y-102357905D01*
X108545999Y-102357905D01*
X109803142Y-102281714D02*
X109765047Y-102319810D01*
X109650761Y-102357905D01*
X109574571Y-102357905D01*
X109460285Y-102319810D01*
X109384094Y-102243619D01*
X109345999Y-102167429D01*
X109307904Y-102015048D01*
X109307904Y-101900762D01*
X109345999Y-101748381D01*
X109384094Y-101672190D01*
X109460285Y-101596000D01*
X109574571Y-101557905D01*
X109650761Y-101557905D01*
X109765047Y-101596000D01*
X109803142Y-101634095D01*
X110717428Y-101519810D02*
X110031713Y-102548381D01*
X110984094Y-102357905D02*
X110984094Y-101557905D01*
X111174570Y-101557905D01*
X111288856Y-101596000D01*
X111365047Y-101672190D01*
X111403142Y-101748381D01*
X111441237Y-101900762D01*
X111441237Y-102015048D01*
X111403142Y-102167429D01*
X111365047Y-102243619D01*
X111288856Y-102319810D01*
X111174570Y-102357905D01*
X110984094Y-102357905D01*
X111745999Y-102129333D02*
X112126951Y-102129333D01*
X111669808Y-102357905D02*
X111936475Y-101557905D01*
X112203142Y-102357905D01*
X112926951Y-102281714D02*
X112888856Y-102319810D01*
X112774570Y-102357905D01*
X112698380Y-102357905D01*
X112584094Y-102319810D01*
X112507903Y-102243619D01*
X112469808Y-102167429D01*
X112431713Y-102015048D01*
X112431713Y-101900762D01*
X112469808Y-101748381D01*
X112507903Y-101672190D01*
X112584094Y-101596000D01*
X112698380Y-101557905D01*
X112774570Y-101557905D01*
X112888856Y-101596000D01*
X112926951Y-101634095D01*
X113879332Y-101824571D02*
X113879332Y-102624571D01*
X113879332Y-101862667D02*
X113955523Y-101824571D01*
X114107904Y-101824571D01*
X114184094Y-101862667D01*
X114222189Y-101900762D01*
X114260285Y-101976952D01*
X114260285Y-102205524D01*
X114222189Y-102281714D01*
X114184094Y-102319810D01*
X114107904Y-102357905D01*
X113955523Y-102357905D01*
X113879332Y-102319810D01*
X114717428Y-102357905D02*
X114641237Y-102319810D01*
X114603142Y-102281714D01*
X114565047Y-102205524D01*
X114565047Y-101976952D01*
X114603142Y-101900762D01*
X114641237Y-101862667D01*
X114717428Y-101824571D01*
X114831714Y-101824571D01*
X114907904Y-101862667D01*
X114945999Y-101900762D01*
X114984095Y-101976952D01*
X114984095Y-102205524D01*
X114945999Y-102281714D01*
X114907904Y-102319810D01*
X114831714Y-102357905D01*
X114717428Y-102357905D01*
X115250762Y-101824571D02*
X115403143Y-102357905D01*
X115555524Y-101976952D01*
X115707905Y-102357905D01*
X115860286Y-101824571D01*
X116469809Y-102319810D02*
X116393619Y-102357905D01*
X116241238Y-102357905D01*
X116165047Y-102319810D01*
X116126952Y-102243619D01*
X116126952Y-101938857D01*
X116165047Y-101862667D01*
X116241238Y-101824571D01*
X116393619Y-101824571D01*
X116469809Y-101862667D01*
X116507904Y-101938857D01*
X116507904Y-102015048D01*
X116126952Y-102091238D01*
X116850761Y-102357905D02*
X116850761Y-101824571D01*
X116850761Y-101976952D02*
X116888856Y-101900762D01*
X116926952Y-101862667D01*
X117003142Y-101824571D01*
X117079333Y-101824571D01*
X117917428Y-102319810D02*
X117993618Y-102357905D01*
X118145999Y-102357905D01*
X118222190Y-102319810D01*
X118260285Y-102243619D01*
X118260285Y-102205524D01*
X118222190Y-102129333D01*
X118145999Y-102091238D01*
X118031714Y-102091238D01*
X117955523Y-102053143D01*
X117917428Y-101976952D01*
X117917428Y-101938857D01*
X117955523Y-101862667D01*
X118031714Y-101824571D01*
X118145999Y-101824571D01*
X118222190Y-101862667D01*
X118945999Y-101824571D02*
X118945999Y-102357905D01*
X118603142Y-101824571D02*
X118603142Y-102243619D01*
X118641237Y-102319810D01*
X118717428Y-102357905D01*
X118831714Y-102357905D01*
X118907904Y-102319810D01*
X118945999Y-102281714D01*
X119326952Y-101824571D02*
X119326952Y-102624571D01*
X119326952Y-101862667D02*
X119403143Y-101824571D01*
X119555524Y-101824571D01*
X119631714Y-101862667D01*
X119669809Y-101900762D01*
X119707905Y-101976952D01*
X119707905Y-102205524D01*
X119669809Y-102281714D01*
X119631714Y-102319810D01*
X119555524Y-102357905D01*
X119403143Y-102357905D01*
X119326952Y-102319810D01*
X120050762Y-101824571D02*
X120050762Y-102624571D01*
X120050762Y-101862667D02*
X120126953Y-101824571D01*
X120279334Y-101824571D01*
X120355524Y-101862667D01*
X120393619Y-101900762D01*
X120431715Y-101976952D01*
X120431715Y-102205524D01*
X120393619Y-102281714D01*
X120355524Y-102319810D01*
X120279334Y-102357905D01*
X120126953Y-102357905D01*
X120050762Y-102319810D01*
X120888858Y-102357905D02*
X120812667Y-102319810D01*
X120774572Y-102243619D01*
X120774572Y-101557905D01*
X121117430Y-101824571D02*
X121307906Y-102357905D01*
X121498382Y-101824571D02*
X121307906Y-102357905D01*
X121231715Y-102548381D01*
X121193620Y-102586476D01*
X121117430Y-102624571D01*
X122336478Y-101824571D02*
X122526954Y-102357905D01*
X122717430Y-101824571D01*
X123441240Y-102357905D02*
X122984097Y-102357905D01*
X123212668Y-102357905D02*
X123212668Y-101557905D01*
X123136478Y-101672190D01*
X123060287Y-101748381D01*
X122984097Y-101786476D01*
X123784097Y-102281714D02*
X123822192Y-102319810D01*
X123784097Y-102357905D01*
X123746002Y-102319810D01*
X123784097Y-102281714D01*
X123784097Y-102357905D01*
X124126954Y-101634095D02*
X124165049Y-101596000D01*
X124241240Y-101557905D01*
X124431716Y-101557905D01*
X124507906Y-101596000D01*
X124546002Y-101634095D01*
X124584097Y-101710286D01*
X124584097Y-101786476D01*
X124546002Y-101900762D01*
X124088859Y-102357905D01*
X124584097Y-102357905D01*
X101765048Y-102797905D02*
X101765048Y-103369333D01*
X101726952Y-103483619D01*
X101650762Y-103559810D01*
X101536476Y-103597905D01*
X101460286Y-103597905D01*
X102488857Y-103597905D02*
X102488857Y-103178857D01*
X102450762Y-103102667D01*
X102374572Y-103064571D01*
X102222191Y-103064571D01*
X102146000Y-103102667D01*
X102488857Y-103559810D02*
X102412667Y-103597905D01*
X102222191Y-103597905D01*
X102146000Y-103559810D01*
X102107905Y-103483619D01*
X102107905Y-103407429D01*
X102146000Y-103331238D01*
X102222191Y-103293143D01*
X102412667Y-103293143D01*
X102488857Y-103255048D01*
X102869810Y-103597905D02*
X102869810Y-102797905D01*
X102946001Y-103293143D02*
X103174572Y-103597905D01*
X103174572Y-103064571D02*
X102869810Y-103369333D01*
X103860286Y-103064571D02*
X103860286Y-103597905D01*
X103517429Y-103064571D02*
X103517429Y-103483619D01*
X103555524Y-103559810D01*
X103631715Y-103597905D01*
X103746001Y-103597905D01*
X103822191Y-103559810D01*
X103860286Y-103521714D01*
X104241239Y-103597905D02*
X104241239Y-102797905D01*
X104241239Y-103102667D02*
X104317430Y-103064571D01*
X104469811Y-103064571D01*
X104546001Y-103102667D01*
X104584096Y-103140762D01*
X104622192Y-103216952D01*
X104622192Y-103445524D01*
X104584096Y-103521714D01*
X104546001Y-103559810D01*
X104469811Y-103597905D01*
X104317430Y-103597905D01*
X104241239Y-103559810D01*
X105574573Y-103597905D02*
X105574573Y-102797905D01*
X106031716Y-103597905D01*
X106031716Y-102797905D01*
X106717430Y-103559810D02*
X106641240Y-103597905D01*
X106488859Y-103597905D01*
X106412668Y-103559810D01*
X106374573Y-103483619D01*
X106374573Y-103178857D01*
X106412668Y-103102667D01*
X106488859Y-103064571D01*
X106641240Y-103064571D01*
X106717430Y-103102667D01*
X106755525Y-103178857D01*
X106755525Y-103255048D01*
X106374573Y-103331238D01*
X107441239Y-103597905D02*
X107441239Y-102797905D01*
X107441239Y-103559810D02*
X107365049Y-103597905D01*
X107212668Y-103597905D01*
X107136477Y-103559810D01*
X107098382Y-103521714D01*
X107060287Y-103445524D01*
X107060287Y-103216952D01*
X107098382Y-103140762D01*
X107136477Y-103102667D01*
X107212668Y-103064571D01*
X107365049Y-103064571D01*
X107441239Y-103102667D01*
X107822192Y-103597905D02*
X107822192Y-102797905D01*
X107822192Y-103102667D02*
X107898383Y-103064571D01*
X108050764Y-103064571D01*
X108126954Y-103102667D01*
X108165049Y-103140762D01*
X108203145Y-103216952D01*
X108203145Y-103445524D01*
X108165049Y-103521714D01*
X108126954Y-103559810D01*
X108050764Y-103597905D01*
X107898383Y-103597905D01*
X107822192Y-103559810D01*
X108888859Y-103597905D02*
X108888859Y-103178857D01*
X108850764Y-103102667D01*
X108774574Y-103064571D01*
X108622193Y-103064571D01*
X108546002Y-103102667D01*
X108888859Y-103559810D02*
X108812669Y-103597905D01*
X108622193Y-103597905D01*
X108546002Y-103559810D01*
X108507907Y-103483619D01*
X108507907Y-103407429D01*
X108546002Y-103331238D01*
X108622193Y-103293143D01*
X108812669Y-103293143D01*
X108888859Y-103255048D01*
X109384098Y-103597905D02*
X109307907Y-103559810D01*
X109269812Y-103483619D01*
X109269812Y-102797905D01*
X110260289Y-102874095D02*
X110298384Y-102836000D01*
X110374575Y-102797905D01*
X110565051Y-102797905D01*
X110641241Y-102836000D01*
X110679337Y-102874095D01*
X110717432Y-102950286D01*
X110717432Y-103026476D01*
X110679337Y-103140762D01*
X110222194Y-103597905D01*
X110717432Y-103597905D01*
X111212670Y-102797905D02*
X111288861Y-102797905D01*
X111365051Y-102836000D01*
X111403146Y-102874095D01*
X111441242Y-102950286D01*
X111479337Y-103102667D01*
X111479337Y-103293143D01*
X111441242Y-103445524D01*
X111403146Y-103521714D01*
X111365051Y-103559810D01*
X111288861Y-103597905D01*
X111212670Y-103597905D01*
X111136480Y-103559810D01*
X111098384Y-103521714D01*
X111060289Y-103445524D01*
X111022194Y-103293143D01*
X111022194Y-103102667D01*
X111060289Y-102950286D01*
X111098384Y-102874095D01*
X111136480Y-102836000D01*
X111212670Y-102797905D01*
X112241242Y-103597905D02*
X111784099Y-103597905D01*
X112012670Y-103597905D02*
X112012670Y-102797905D01*
X111936480Y-102912190D01*
X111860289Y-102988381D01*
X111784099Y-103026476D01*
X112926956Y-102797905D02*
X112774575Y-102797905D01*
X112698385Y-102836000D01*
X112660290Y-102874095D01*
X112584099Y-102988381D01*
X112546004Y-103140762D01*
X112546004Y-103445524D01*
X112584099Y-103521714D01*
X112622194Y-103559810D01*
X112698385Y-103597905D01*
X112850766Y-103597905D01*
X112926956Y-103559810D01*
X112965052Y-103521714D01*
X113003147Y-103445524D01*
X113003147Y-103255048D01*
X112965052Y-103178857D01*
X112926956Y-103140762D01*
X112850766Y-103102667D01*
X112698385Y-103102667D01*
X112622194Y-103140762D01*
X112584099Y-103178857D01*
X112546004Y-103255048D01*
D12*
X102469143Y-111608856D02*
X102469143Y-110465999D01*
X103040571Y-108965999D02*
X103040571Y-109823142D01*
X103040571Y-109394570D02*
X101540571Y-109394570D01*
X101754857Y-109537427D01*
X101897714Y-109680285D01*
X101969143Y-109823142D01*
X103040571Y-108251714D02*
X103040571Y-107965999D01*
X102969143Y-107823142D01*
X102897714Y-107751714D01*
X102683429Y-107608856D01*
X102397714Y-107537428D01*
X101826286Y-107537428D01*
X101683429Y-107608856D01*
X101612000Y-107680285D01*
X101540571Y-107823142D01*
X101540571Y-108108856D01*
X101612000Y-108251714D01*
X101683429Y-108323142D01*
X101826286Y-108394571D01*
X102183429Y-108394571D01*
X102326286Y-108323142D01*
X102397714Y-108251714D01*
X102469143Y-108108856D01*
X102469143Y-107823142D01*
X102397714Y-107680285D01*
X102326286Y-107608856D01*
X102183429Y-107537428D01*
X101540571Y-107108857D02*
X103040571Y-106608857D01*
X101540571Y-106108857D01*
X102469143Y-120498856D02*
X102469143Y-119355999D01*
X103040571Y-119927428D02*
X101897714Y-119927428D01*
X103040571Y-117855999D02*
X103040571Y-118713142D01*
X103040571Y-118284570D02*
X101540571Y-118284570D01*
X101754857Y-118427427D01*
X101897714Y-118570285D01*
X101969143Y-118713142D01*
X103040571Y-117141714D02*
X103040571Y-116855999D01*
X102969143Y-116713142D01*
X102897714Y-116641714D01*
X102683429Y-116498856D01*
X102397714Y-116427428D01*
X101826286Y-116427428D01*
X101683429Y-116498856D01*
X101612000Y-116570285D01*
X101540571Y-116713142D01*
X101540571Y-116998856D01*
X101612000Y-117141714D01*
X101683429Y-117213142D01*
X101826286Y-117284571D01*
X102183429Y-117284571D01*
X102326286Y-117213142D01*
X102397714Y-117141714D01*
X102469143Y-116998856D01*
X102469143Y-116713142D01*
X102397714Y-116570285D01*
X102326286Y-116498856D01*
X102183429Y-116427428D01*
X101540571Y-115998857D02*
X103040571Y-115498857D01*
X101540571Y-114998857D01*
X102469143Y-129999999D02*
X102469143Y-128857142D01*
X103040571Y-129428571D02*
X101897714Y-129428571D01*
X101540571Y-128285713D02*
X101540571Y-127285713D01*
X103040571Y-127928570D01*
X102897714Y-126714285D02*
X102969143Y-126642857D01*
X103040571Y-126714285D01*
X102969143Y-126785714D01*
X102897714Y-126714285D01*
X103040571Y-126714285D01*
X101540571Y-125285713D02*
X101540571Y-125999999D01*
X102254857Y-126071428D01*
X102183429Y-125999999D01*
X102112000Y-125857142D01*
X102112000Y-125499999D01*
X102183429Y-125357142D01*
X102254857Y-125285713D01*
X102397714Y-125214285D01*
X102754857Y-125214285D01*
X102897714Y-125285713D01*
X102969143Y-125357142D01*
X103040571Y-125499999D01*
X103040571Y-125857142D01*
X102969143Y-125999999D01*
X102897714Y-126071428D01*
X101540571Y-124785714D02*
X103040571Y-124285714D01*
X101540571Y-123785714D01*
X102469143Y-138127999D02*
X102469143Y-136985142D01*
X101540571Y-136413713D02*
X101540571Y-135413713D01*
X103040571Y-136056570D01*
X102897714Y-134842285D02*
X102969143Y-134770857D01*
X103040571Y-134842285D01*
X102969143Y-134913714D01*
X102897714Y-134842285D01*
X103040571Y-134842285D01*
X101540571Y-133413713D02*
X101540571Y-134127999D01*
X102254857Y-134199428D01*
X102183429Y-134127999D01*
X102112000Y-133985142D01*
X102112000Y-133627999D01*
X102183429Y-133485142D01*
X102254857Y-133413713D01*
X102397714Y-133342285D01*
X102754857Y-133342285D01*
X102897714Y-133413713D01*
X102969143Y-133485142D01*
X103040571Y-133627999D01*
X103040571Y-133985142D01*
X102969143Y-134127999D01*
X102897714Y-134199428D01*
X101540571Y-132913714D02*
X103040571Y-132413714D01*
X101540571Y-131913714D01*
D13*
X122174000Y-140716000D02*
X108712000Y-140716000D01*
X136906000Y-140716000D02*
X124714000Y-140716000D01*
X139954000Y-131572000D02*
X129286000Y-131572000D01*
X110490000Y-131064000D02*
X101092000Y-131064000D01*
X121666000Y-131064000D02*
X113030000Y-131064000D01*
X119634000Y-122428000D02*
X100838000Y-122428000D01*
X125476000Y-122428000D02*
X122174000Y-122428000D01*
X139954000Y-122428000D02*
X127508000Y-122428000D01*
X140462000Y-113284000D02*
X100838000Y-113284000D01*
D14*
X148170000Y-142232000D02*
X148170000Y-141232000D01*
X146470000Y-141232000D02*
X146470000Y-142232000D01*
X145804000Y-128866000D02*
X146804000Y-128866000D01*
X146804000Y-127166000D02*
X145804000Y-127166000D01*
X145804000Y-138010000D02*
X146804000Y-138010000D01*
X146804000Y-136310000D02*
X145804000Y-136310000D01*
X145804000Y-117690000D02*
X146804000Y-117690000D01*
X146804000Y-115990000D02*
X145804000Y-115990000D01*
X145804000Y-108546000D02*
X146804000Y-108546000D01*
X146804000Y-106846000D02*
X145804000Y-106846000D01*
X123278000Y-147312000D02*
X123278000Y-146312000D01*
X121578000Y-146312000D02*
X121578000Y-147312000D01*
X128358000Y-129024000D02*
X128358000Y-128024000D01*
X126658000Y-128024000D02*
X126658000Y-129024000D01*
X126992000Y-136310000D02*
X125992000Y-136310000D01*
X125992000Y-138010000D02*
X126992000Y-138010000D01*
X121404000Y-115990000D02*
X120404000Y-115990000D01*
X120404000Y-117690000D02*
X121404000Y-117690000D01*
X121912000Y-110402000D02*
X120912000Y-110402000D01*
X120912000Y-112102000D02*
X121912000Y-112102000D01*
X108828000Y-146888000D02*
X108828000Y-143188000D01*
X110628000Y-146888000D02*
X110628000Y-143188000D01*
X112384000Y-138252000D02*
X112384000Y-134552000D01*
X114184000Y-138252000D02*
X114184000Y-134552000D01*
X140286000Y-148998000D02*
X126286000Y-148998000D01*
X126286000Y-141498000D02*
X126286000Y-148998000D01*
X140286000Y-141498000D02*
X126286000Y-141498000D01*
X140286000Y-148998000D02*
X140286000Y-141498000D01*
X143334000Y-130710000D02*
X129334000Y-130710000D01*
X129334000Y-123210000D02*
X129334000Y-130710000D01*
X143334000Y-123210000D02*
X129334000Y-123210000D01*
X143334000Y-130710000D02*
X143334000Y-123210000D01*
X143334000Y-139854000D02*
X129334000Y-139854000D01*
X129334000Y-132354000D02*
X129334000Y-139854000D01*
X143334000Y-132354000D02*
X129334000Y-132354000D01*
X143334000Y-139854000D02*
X143334000Y-132354000D01*
X143408000Y-113971000D02*
X123758000Y-113971000D01*
X123758000Y-121621000D02*
X123758000Y-113971000D01*
X143408000Y-121621000D02*
X123758000Y-121621000D01*
X143408000Y-121621000D02*
X143408000Y-113971000D01*
X143408000Y-104827000D02*
X123758000Y-104827000D01*
X123758000Y-112477000D02*
X123758000Y-104827000D01*
X143408000Y-112477000D02*
X123758000Y-112477000D01*
X143408000Y-112477000D02*
X143408000Y-104827000D01*
X142418000Y-140482000D02*
X145618000Y-140482000D01*
X145618000Y-140482000D02*
X145618000Y-142982000D01*
X145618000Y-142982000D02*
X142418000Y-142982000D01*
X142418000Y-142982000D02*
X142418000Y-140482000D01*
X144704000Y-123718000D02*
X147904000Y-123718000D01*
X147904000Y-123718000D02*
X147904000Y-126218000D01*
X147904000Y-126218000D02*
X144704000Y-126218000D01*
X144704000Y-126218000D02*
X144704000Y-123718000D01*
X144704000Y-132862000D02*
X147904000Y-132862000D01*
X147904000Y-132862000D02*
X147904000Y-135362000D01*
X147904000Y-135362000D02*
X144704000Y-135362000D01*
X144704000Y-135362000D02*
X144704000Y-132862000D01*
X144704000Y-118638000D02*
X147904000Y-118638000D01*
X147904000Y-118638000D02*
X147904000Y-121138000D01*
X147904000Y-121138000D02*
X144704000Y-121138000D01*
X144704000Y-121138000D02*
X144704000Y-118638000D01*
X144704000Y-109494000D02*
X147904000Y-109494000D01*
X147904000Y-109494000D02*
X147904000Y-111994000D01*
X147904000Y-111994000D02*
X144704000Y-111994000D01*
X144704000Y-111994000D02*
X144704000Y-109494000D01*
X121844000Y-142006000D02*
X125044000Y-142006000D01*
X125044000Y-142006000D02*
X125044000Y-144506000D01*
X125044000Y-144506000D02*
X121844000Y-144506000D01*
X121844000Y-144506000D02*
X121844000Y-142006000D01*
X124892000Y-123718000D02*
X128092000Y-123718000D01*
X128092000Y-123718000D02*
X128092000Y-126218000D01*
X128092000Y-126218000D02*
X124892000Y-126218000D01*
X124892000Y-126218000D02*
X124892000Y-123718000D01*
X124892000Y-132862000D02*
X128092000Y-132862000D01*
X128092000Y-132862000D02*
X128092000Y-135362000D01*
X128092000Y-135362000D02*
X124892000Y-135362000D01*
X124892000Y-135362000D02*
X124892000Y-132862000D01*
X119304000Y-118638000D02*
X122504000Y-118638000D01*
X122504000Y-118638000D02*
X122504000Y-121138000D01*
X122504000Y-121138000D02*
X119304000Y-121138000D01*
X119304000Y-121138000D02*
X119304000Y-118638000D01*
X119558000Y-105176000D02*
X122758000Y-105176000D01*
X122758000Y-105176000D02*
X122758000Y-107676000D01*
X122758000Y-107676000D02*
X119558000Y-107676000D01*
X119558000Y-107676000D02*
X119558000Y-105176000D01*
X124044000Y-129907000D02*
X122844000Y-129907000D01*
X122844000Y-128157000D02*
X124044000Y-128157000D01*
X117948000Y-112127000D02*
X116748000Y-112127000D01*
X116748000Y-110377000D02*
X117948000Y-110377000D01*
X123028000Y-127367000D02*
X121828000Y-127367000D01*
X121828000Y-125617000D02*
X123028000Y-125617000D01*
X116473000Y-119472000D02*
X116473000Y-118272000D01*
X118223000Y-118272000D02*
X118223000Y-119472000D01*
X112776000Y-121412000D02*
X115824000Y-121412000D01*
X115824000Y-121412000D02*
X115824000Y-114300000D01*
X115824000Y-114300000D02*
X112776000Y-114300000D01*
X109728000Y-121412000D02*
X108966000Y-121412000D01*
X108966000Y-121412000D02*
X106680000Y-119888000D01*
X106680000Y-119888000D02*
X106680000Y-115824000D01*
X106680000Y-115824000D02*
X108966000Y-114300000D01*
X108966000Y-114300000D02*
X109728000Y-114300000D01*
X117348000Y-148844000D02*
X120396000Y-148844000D01*
X120396000Y-148844000D02*
X120396000Y-141732000D01*
X120396000Y-141732000D02*
X117348000Y-141732000D01*
X114300000Y-148844000D02*
X113538000Y-148844000D01*
X113538000Y-148844000D02*
X111252000Y-147320000D01*
X111252000Y-147320000D02*
X111252000Y-143256000D01*
X111252000Y-143256000D02*
X113538000Y-141732000D01*
X113538000Y-141732000D02*
X114300000Y-141732000D01*
X117348000Y-130556000D02*
X120396000Y-130556000D01*
X120396000Y-130556000D02*
X120396000Y-123444000D01*
X120396000Y-123444000D02*
X117348000Y-123444000D01*
X114300000Y-130556000D02*
X113538000Y-130556000D01*
X113538000Y-130556000D02*
X111252000Y-129032000D01*
X111252000Y-129032000D02*
X111252000Y-124968000D01*
X111252000Y-124968000D02*
X113538000Y-123444000D01*
X113538000Y-123444000D02*
X114300000Y-123444000D01*
X112268000Y-112268000D02*
X115316000Y-112268000D01*
X115316000Y-112268000D02*
X115316000Y-105156000D01*
X115316000Y-105156000D02*
X112268000Y-105156000D01*
X109220000Y-112268000D02*
X108458000Y-112268000D01*
X108458000Y-112268000D02*
X106172000Y-110744000D01*
X106172000Y-110744000D02*
X106172000Y-106680000D01*
X106172000Y-106680000D02*
X108458000Y-105156000D01*
X108458000Y-105156000D02*
X109220000Y-105156000D01*
X120904000Y-138684000D02*
X123952000Y-138684000D01*
X123952000Y-138684000D02*
X123952000Y-131572000D01*
X123952000Y-131572000D02*
X120904000Y-131572000D01*
X117856000Y-138684000D02*
X117094000Y-138684000D01*
X117094000Y-138684000D02*
X114808000Y-137160000D01*
X114808000Y-137160000D02*
X114808000Y-133096000D01*
X114808000Y-133096000D02*
X117094000Y-131572000D01*
X117094000Y-131572000D02*
X117856000Y-131572000D01*
X108828000Y-128600000D02*
X108828000Y-124900000D01*
X110628000Y-128600000D02*
X110628000Y-124900000D01*
X146558000Y-144018000D02*
X149098000Y-144018000D01*
X143738000Y-143738000D02*
X145288000Y-143738000D01*
X146558000Y-144018000D02*
X146558000Y-146558000D01*
X145288000Y-146838000D02*
X143738000Y-146838000D01*
X143738000Y-146838000D02*
X143738000Y-143738000D01*
X146558000Y-146558000D02*
X149098000Y-146558000D01*
X149098000Y-146558000D02*
X149098000Y-144018000D01*
X121162000Y-109316000D02*
X121312000Y-109466000D01*
X121012000Y-108466000D02*
X121162000Y-108616000D01*
X121662000Y-108966000D02*
X121912000Y-108966000D01*
X121162000Y-108966000D02*
X120912000Y-108966000D01*
X121162000Y-108966000D02*
X121662000Y-108616000D01*
X121662000Y-108616000D02*
X121662000Y-109316000D01*
X121662000Y-109316000D02*
X121162000Y-108966000D01*
X121162000Y-108616000D02*
X121162000Y-109316000D01*
X120112000Y-109766000D02*
X122512000Y-109766000D01*
X120112000Y-108166000D02*
X122512000Y-108166000D01*
X120400000Y-115158000D02*
X120550000Y-115308000D01*
X120250000Y-114308000D02*
X120400000Y-114458000D01*
X120900000Y-114808000D02*
X121150000Y-114808000D01*
X120400000Y-114808000D02*
X120150000Y-114808000D01*
X120400000Y-114808000D02*
X120900000Y-114458000D01*
X120900000Y-114458000D02*
X120900000Y-115158000D01*
X120900000Y-115158000D02*
X120400000Y-114808000D01*
X120400000Y-114458000D02*
X120400000Y-115158000D01*
X119350000Y-115608000D02*
X121750000Y-115608000D01*
X119350000Y-114008000D02*
X121750000Y-114008000D01*
X124364000Y-146562000D02*
X124214000Y-146712000D01*
X125214000Y-146412000D02*
X125064000Y-146562000D01*
X124714000Y-147062000D02*
X124714000Y-147312000D01*
X124714000Y-146562000D02*
X124714000Y-146312000D01*
X124714000Y-146562000D02*
X125064000Y-147062000D01*
X125064000Y-147062000D02*
X124364000Y-147062000D01*
X124364000Y-147062000D02*
X124714000Y-146562000D01*
X125064000Y-146562000D02*
X124364000Y-146562000D01*
X123914000Y-145512000D02*
X123914000Y-147912000D01*
X125514000Y-145512000D02*
X125514000Y-147912000D01*
X149455143Y-141898666D02*
X149502762Y-141946285D01*
X149550381Y-142089142D01*
X149550381Y-142184380D01*
X149502762Y-142327238D01*
X149407524Y-142422476D01*
X149312286Y-142470095D01*
X149121810Y-142517714D01*
X148978952Y-142517714D01*
X148788476Y-142470095D01*
X148693238Y-142422476D01*
X148598000Y-142327238D01*
X148550381Y-142184380D01*
X148550381Y-142089142D01*
X148598000Y-141946285D01*
X148645619Y-141898666D01*
X149550381Y-140946285D02*
X149550381Y-141517714D01*
X149550381Y-141232000D02*
X148550381Y-141232000D01*
X148693238Y-141327238D01*
X148788476Y-141422476D01*
X148836095Y-141517714D01*
X146137334Y-130151143D02*
X146089715Y-130198762D01*
X145946858Y-130246381D01*
X145851620Y-130246381D01*
X145708762Y-130198762D01*
X145613524Y-130103524D01*
X145565905Y-130008286D01*
X145518286Y-129817810D01*
X145518286Y-129674952D01*
X145565905Y-129484476D01*
X145613524Y-129389238D01*
X145708762Y-129294000D01*
X145851620Y-129246381D01*
X145946858Y-129246381D01*
X146089715Y-129294000D01*
X146137334Y-129341619D01*
X146518286Y-129341619D02*
X146565905Y-129294000D01*
X146661143Y-129246381D01*
X146899239Y-129246381D01*
X146994477Y-129294000D01*
X147042096Y-129341619D01*
X147089715Y-129436857D01*
X147089715Y-129532095D01*
X147042096Y-129674952D01*
X146470667Y-130246381D01*
X147089715Y-130246381D01*
X146137334Y-139549143D02*
X146089715Y-139596762D01*
X145946858Y-139644381D01*
X145851620Y-139644381D01*
X145708762Y-139596762D01*
X145613524Y-139501524D01*
X145565905Y-139406286D01*
X145518286Y-139215810D01*
X145518286Y-139072952D01*
X145565905Y-138882476D01*
X145613524Y-138787238D01*
X145708762Y-138692000D01*
X145851620Y-138644381D01*
X145946858Y-138644381D01*
X146089715Y-138692000D01*
X146137334Y-138739619D01*
X146470667Y-138644381D02*
X147089715Y-138644381D01*
X146756381Y-139025333D01*
X146899239Y-139025333D01*
X146994477Y-139072952D01*
X147042096Y-139120571D01*
X147089715Y-139215810D01*
X147089715Y-139453905D01*
X147042096Y-139549143D01*
X146994477Y-139596762D01*
X146899239Y-139644381D01*
X146613524Y-139644381D01*
X146518286Y-139596762D01*
X146470667Y-139549143D01*
X146137334Y-115165143D02*
X146089715Y-115212762D01*
X145946858Y-115260381D01*
X145851620Y-115260381D01*
X145708762Y-115212762D01*
X145613524Y-115117524D01*
X145565905Y-115022286D01*
X145518286Y-114831810D01*
X145518286Y-114688952D01*
X145565905Y-114498476D01*
X145613524Y-114403238D01*
X145708762Y-114308000D01*
X145851620Y-114260381D01*
X145946858Y-114260381D01*
X146089715Y-114308000D01*
X146137334Y-114355619D01*
X146994477Y-114593714D02*
X146994477Y-115260381D01*
X146756381Y-114212762D02*
X146518286Y-114927048D01*
X147137334Y-114927048D01*
X146137334Y-106021143D02*
X146089715Y-106068762D01*
X145946858Y-106116381D01*
X145851620Y-106116381D01*
X145708762Y-106068762D01*
X145613524Y-105973524D01*
X145565905Y-105878286D01*
X145518286Y-105687810D01*
X145518286Y-105544952D01*
X145565905Y-105354476D01*
X145613524Y-105259238D01*
X145708762Y-105164000D01*
X145851620Y-105116381D01*
X145946858Y-105116381D01*
X146089715Y-105164000D01*
X146137334Y-105211619D01*
X147042096Y-105116381D02*
X146565905Y-105116381D01*
X146518286Y-105592571D01*
X146565905Y-105544952D01*
X146661143Y-105497333D01*
X146899239Y-105497333D01*
X146994477Y-105544952D01*
X147042096Y-105592571D01*
X147089715Y-105687810D01*
X147089715Y-105925905D01*
X147042096Y-106021143D01*
X146994477Y-106068762D01*
X146899239Y-106116381D01*
X146661143Y-106116381D01*
X146565905Y-106068762D01*
X146518286Y-106021143D01*
D15*
X121154000Y-147262000D02*
X121187333Y-147295334D01*
X121220667Y-147395334D01*
X121220667Y-147462000D01*
X121187333Y-147562000D01*
X121120667Y-147628667D01*
X121054000Y-147662000D01*
X120920667Y-147695334D01*
X120820667Y-147695334D01*
X120687333Y-147662000D01*
X120620667Y-147628667D01*
X120554000Y-147562000D01*
X120520667Y-147462000D01*
X120520667Y-147395334D01*
X120554000Y-147295334D01*
X120587333Y-147262000D01*
X121220667Y-146595334D02*
X121220667Y-146995334D01*
X121220667Y-146795334D02*
X120520667Y-146795334D01*
X120620667Y-146862000D01*
X120687333Y-146928667D01*
X120720667Y-146995334D01*
X120520667Y-145995333D02*
X120520667Y-146128667D01*
X120554000Y-146195333D01*
X120587333Y-146228667D01*
X120687333Y-146295333D01*
X120820667Y-146328667D01*
X121087333Y-146328667D01*
X121154000Y-146295333D01*
X121187333Y-146262000D01*
X121220667Y-146195333D01*
X121220667Y-146062000D01*
X121187333Y-145995333D01*
X121154000Y-145962000D01*
X121087333Y-145928667D01*
X120920667Y-145928667D01*
X120854000Y-145962000D01*
X120820667Y-145995333D01*
X120787333Y-146062000D01*
X120787333Y-146195333D01*
X120820667Y-146262000D01*
X120854000Y-146295333D01*
X120920667Y-146328667D01*
D14*
X126865143Y-131421143D02*
X126817524Y-131468762D01*
X126674667Y-131516381D01*
X126579429Y-131516381D01*
X126436571Y-131468762D01*
X126341333Y-131373524D01*
X126293714Y-131278286D01*
X126246095Y-131087810D01*
X126246095Y-130944952D01*
X126293714Y-130754476D01*
X126341333Y-130659238D01*
X126436571Y-130564000D01*
X126579429Y-130516381D01*
X126674667Y-130516381D01*
X126817524Y-130564000D01*
X126865143Y-130611619D01*
X127817524Y-131516381D02*
X127246095Y-131516381D01*
X127531809Y-131516381D02*
X127531809Y-130516381D01*
X127436571Y-130659238D01*
X127341333Y-130754476D01*
X127246095Y-130802095D01*
X128150857Y-130516381D02*
X128817524Y-130516381D01*
X128388952Y-131516381D01*
X125849143Y-139549143D02*
X125801524Y-139596762D01*
X125658667Y-139644381D01*
X125563429Y-139644381D01*
X125420571Y-139596762D01*
X125325333Y-139501524D01*
X125277714Y-139406286D01*
X125230095Y-139215810D01*
X125230095Y-139072952D01*
X125277714Y-138882476D01*
X125325333Y-138787238D01*
X125420571Y-138692000D01*
X125563429Y-138644381D01*
X125658667Y-138644381D01*
X125801524Y-138692000D01*
X125849143Y-138739619D01*
X126801524Y-139644381D02*
X126230095Y-139644381D01*
X126515809Y-139644381D02*
X126515809Y-138644381D01*
X126420571Y-138787238D01*
X126325333Y-138882476D01*
X126230095Y-138930095D01*
X127372952Y-139072952D02*
X127277714Y-139025333D01*
X127230095Y-138977714D01*
X127182476Y-138882476D01*
X127182476Y-138834857D01*
X127230095Y-138739619D01*
X127277714Y-138692000D01*
X127372952Y-138644381D01*
X127563429Y-138644381D01*
X127658667Y-138692000D01*
X127706286Y-138739619D01*
X127753905Y-138834857D01*
X127753905Y-138882476D01*
X127706286Y-138977714D01*
X127658667Y-139025333D01*
X127563429Y-139072952D01*
X127372952Y-139072952D01*
X127277714Y-139120571D01*
X127230095Y-139168190D01*
X127182476Y-139263429D01*
X127182476Y-139453905D01*
X127230095Y-139549143D01*
X127277714Y-139596762D01*
X127372952Y-139644381D01*
X127563429Y-139644381D01*
X127658667Y-139596762D01*
X127706286Y-139549143D01*
X127753905Y-139453905D01*
X127753905Y-139263429D01*
X127706286Y-139168190D01*
X127658667Y-139120571D01*
X127563429Y-139072952D01*
D15*
X123440000Y-117290000D02*
X123473333Y-117323334D01*
X123506667Y-117423334D01*
X123506667Y-117490000D01*
X123473333Y-117590000D01*
X123406667Y-117656667D01*
X123340000Y-117690000D01*
X123206667Y-117723334D01*
X123106667Y-117723334D01*
X122973333Y-117690000D01*
X122906667Y-117656667D01*
X122840000Y-117590000D01*
X122806667Y-117490000D01*
X122806667Y-117423334D01*
X122840000Y-117323334D01*
X122873333Y-117290000D01*
X123506667Y-116623334D02*
X123506667Y-117023334D01*
X123506667Y-116823334D02*
X122806667Y-116823334D01*
X122906667Y-116890000D01*
X122973333Y-116956667D01*
X123006667Y-117023334D01*
X123506667Y-116290000D02*
X123506667Y-116156667D01*
X123473333Y-116090000D01*
X123440000Y-116056667D01*
X123340000Y-115990000D01*
X123206667Y-115956667D01*
X122940000Y-115956667D01*
X122873333Y-115990000D01*
X122840000Y-116023333D01*
X122806667Y-116090000D01*
X122806667Y-116223333D01*
X122840000Y-116290000D01*
X122873333Y-116323333D01*
X122940000Y-116356667D01*
X123106667Y-116356667D01*
X123173333Y-116323333D01*
X123206667Y-116290000D01*
X123240000Y-116223333D01*
X123240000Y-116090000D01*
X123206667Y-116023333D01*
X123173333Y-115990000D01*
X123106667Y-115956667D01*
X120962000Y-113026000D02*
X120928666Y-113059333D01*
X120828666Y-113092667D01*
X120762000Y-113092667D01*
X120662000Y-113059333D01*
X120595333Y-112992667D01*
X120562000Y-112926000D01*
X120528666Y-112792667D01*
X120528666Y-112692667D01*
X120562000Y-112559333D01*
X120595333Y-112492667D01*
X120662000Y-112426000D01*
X120762000Y-112392667D01*
X120828666Y-112392667D01*
X120928666Y-112426000D01*
X120962000Y-112459333D01*
X121228666Y-112459333D02*
X121262000Y-112426000D01*
X121328666Y-112392667D01*
X121495333Y-112392667D01*
X121562000Y-112426000D01*
X121595333Y-112459333D01*
X121628666Y-112526000D01*
X121628666Y-112592667D01*
X121595333Y-112692667D01*
X121195333Y-113092667D01*
X121628666Y-113092667D01*
X122062000Y-112392667D02*
X122128667Y-112392667D01*
X122195333Y-112426000D01*
X122228667Y-112459333D01*
X122262000Y-112526000D01*
X122295333Y-112659333D01*
X122295333Y-112826000D01*
X122262000Y-112959333D01*
X122228667Y-113026000D01*
X122195333Y-113059333D01*
X122128667Y-113092667D01*
X122062000Y-113092667D01*
X121995333Y-113059333D01*
X121962000Y-113026000D01*
X121928667Y-112959333D01*
X121895333Y-112826000D01*
X121895333Y-112659333D01*
X121928667Y-112526000D01*
X121962000Y-112459333D01*
X121995333Y-112426000D01*
X122062000Y-112392667D01*
D14*
X109339143Y-142343143D02*
X109291524Y-142390762D01*
X109148667Y-142438381D01*
X109053429Y-142438381D01*
X108910571Y-142390762D01*
X108815333Y-142295524D01*
X108767714Y-142200286D01*
X108720095Y-142009810D01*
X108720095Y-141866952D01*
X108767714Y-141676476D01*
X108815333Y-141581238D01*
X108910571Y-141486000D01*
X109053429Y-141438381D01*
X109148667Y-141438381D01*
X109291524Y-141486000D01*
X109339143Y-141533619D01*
X109720095Y-141533619D02*
X109767714Y-141486000D01*
X109862952Y-141438381D01*
X110101048Y-141438381D01*
X110196286Y-141486000D01*
X110243905Y-141533619D01*
X110291524Y-141628857D01*
X110291524Y-141724095D01*
X110243905Y-141866952D01*
X109672476Y-142438381D01*
X110291524Y-142438381D01*
X111196286Y-141438381D02*
X110720095Y-141438381D01*
X110672476Y-141914571D01*
X110720095Y-141866952D01*
X110815333Y-141819333D01*
X111053429Y-141819333D01*
X111148667Y-141866952D01*
X111196286Y-141914571D01*
X111243905Y-142009810D01*
X111243905Y-142247905D01*
X111196286Y-142343143D01*
X111148667Y-142390762D01*
X111053429Y-142438381D01*
X110815333Y-142438381D01*
X110720095Y-142390762D01*
X110672476Y-142343143D01*
X111609143Y-137294857D02*
X111656762Y-137342476D01*
X111704381Y-137485333D01*
X111704381Y-137580571D01*
X111656762Y-137723429D01*
X111561524Y-137818667D01*
X111466286Y-137866286D01*
X111275810Y-137913905D01*
X111132952Y-137913905D01*
X110942476Y-137866286D01*
X110847238Y-137818667D01*
X110752000Y-137723429D01*
X110704381Y-137580571D01*
X110704381Y-137485333D01*
X110752000Y-137342476D01*
X110799619Y-137294857D01*
X110799619Y-136913905D02*
X110752000Y-136866286D01*
X110704381Y-136771048D01*
X110704381Y-136532952D01*
X110752000Y-136437714D01*
X110799619Y-136390095D01*
X110894857Y-136342476D01*
X110990095Y-136342476D01*
X111132952Y-136390095D01*
X111704381Y-136961524D01*
X111704381Y-136342476D01*
X110704381Y-136009143D02*
X110704381Y-135342476D01*
X111704381Y-135771048D01*
X137445905Y-141168381D02*
X137445905Y-140168381D01*
X137684000Y-140168381D01*
X137826858Y-140216000D01*
X137922096Y-140311238D01*
X137969715Y-140406476D01*
X138017334Y-140596952D01*
X138017334Y-140739810D01*
X137969715Y-140930286D01*
X137922096Y-141025524D01*
X137826858Y-141120762D01*
X137684000Y-141168381D01*
X137445905Y-141168381D01*
X139017334Y-141073143D02*
X138969715Y-141120762D01*
X138826858Y-141168381D01*
X138731620Y-141168381D01*
X138588762Y-141120762D01*
X138493524Y-141025524D01*
X138445905Y-140930286D01*
X138398286Y-140739810D01*
X138398286Y-140596952D01*
X138445905Y-140406476D01*
X138493524Y-140311238D01*
X138588762Y-140216000D01*
X138731620Y-140168381D01*
X138826858Y-140168381D01*
X138969715Y-140216000D01*
X139017334Y-140263619D01*
X139969715Y-141168381D02*
X139398286Y-141168381D01*
X139684000Y-141168381D02*
X139684000Y-140168381D01*
X139588762Y-140311238D01*
X139493524Y-140406476D01*
X139398286Y-140454095D01*
D11*
X129343143Y-147523000D02*
X129343143Y-146913476D01*
X129647905Y-147218238D02*
X129038381Y-147218238D01*
X128847905Y-146646810D02*
X129647905Y-146380143D01*
X128847905Y-146113476D01*
X129647905Y-145732524D02*
X129609810Y-145808715D01*
X129571714Y-145846810D01*
X129495524Y-145884905D01*
X129266952Y-145884905D01*
X129190762Y-145846810D01*
X129152667Y-145808715D01*
X129114571Y-145732524D01*
X129114571Y-145618238D01*
X129152667Y-145542048D01*
X129190762Y-145503953D01*
X129266952Y-145465857D01*
X129495524Y-145465857D01*
X129571714Y-145503953D01*
X129609810Y-145542048D01*
X129647905Y-145618238D01*
X129647905Y-145732524D01*
X129114571Y-144780143D02*
X129647905Y-144780143D01*
X129114571Y-145123000D02*
X129533619Y-145123000D01*
X129609810Y-145084905D01*
X129647905Y-145008714D01*
X129647905Y-144894428D01*
X129609810Y-144818238D01*
X129571714Y-144780143D01*
X129114571Y-144513476D02*
X129114571Y-144208714D01*
X128847905Y-144399190D02*
X129533619Y-144399190D01*
X129609810Y-144361095D01*
X129647905Y-144284904D01*
X129647905Y-144208714D01*
X131883143Y-147523000D02*
X131883143Y-146913476D01*
X131387905Y-146646810D02*
X132187905Y-146380143D01*
X131387905Y-146113476D01*
X132187905Y-145732524D02*
X132149810Y-145808715D01*
X132111714Y-145846810D01*
X132035524Y-145884905D01*
X131806952Y-145884905D01*
X131730762Y-145846810D01*
X131692667Y-145808715D01*
X131654571Y-145732524D01*
X131654571Y-145618238D01*
X131692667Y-145542048D01*
X131730762Y-145503953D01*
X131806952Y-145465857D01*
X132035524Y-145465857D01*
X132111714Y-145503953D01*
X132149810Y-145542048D01*
X132187905Y-145618238D01*
X132187905Y-145732524D01*
X131654571Y-144780143D02*
X132187905Y-144780143D01*
X131654571Y-145123000D02*
X132073619Y-145123000D01*
X132149810Y-145084905D01*
X132187905Y-145008714D01*
X132187905Y-144894428D01*
X132149810Y-144818238D01*
X132111714Y-144780143D01*
X131654571Y-144513476D02*
X131654571Y-144208714D01*
X131387905Y-144399190D02*
X132073619Y-144399190D01*
X132149810Y-144361095D01*
X132187905Y-144284904D01*
X132187905Y-144208714D01*
X134423143Y-146488000D02*
X134423143Y-145878476D01*
X134727905Y-146183238D02*
X134118381Y-146183238D01*
X133927905Y-145611810D02*
X134727905Y-145345143D01*
X133927905Y-145078476D01*
X134727905Y-144811810D02*
X134194571Y-144811810D01*
X133927905Y-144811810D02*
X133966000Y-144849905D01*
X134004095Y-144811810D01*
X133966000Y-144773715D01*
X133927905Y-144811810D01*
X134004095Y-144811810D01*
X134194571Y-144430858D02*
X134727905Y-144430858D01*
X134270762Y-144430858D02*
X134232667Y-144392763D01*
X134194571Y-144316572D01*
X134194571Y-144202286D01*
X134232667Y-144126096D01*
X134308857Y-144088001D01*
X134727905Y-144088001D01*
X136963143Y-146488000D02*
X136963143Y-145878476D01*
X136467905Y-145611810D02*
X137267905Y-145345143D01*
X136467905Y-145078476D01*
X137267905Y-144811810D02*
X136734571Y-144811810D01*
X136467905Y-144811810D02*
X136506000Y-144849905D01*
X136544095Y-144811810D01*
X136506000Y-144773715D01*
X136467905Y-144811810D01*
X136544095Y-144811810D01*
X136734571Y-144430858D02*
X137267905Y-144430858D01*
X136810762Y-144430858D02*
X136772667Y-144392763D01*
X136734571Y-144316572D01*
X136734571Y-144202286D01*
X136772667Y-144126096D01*
X136848857Y-144088001D01*
X137267905Y-144088001D01*
D14*
X140493905Y-122880381D02*
X140493905Y-121880381D01*
X140732000Y-121880381D01*
X140874858Y-121928000D01*
X140970096Y-122023238D01*
X141017715Y-122118476D01*
X141065334Y-122308952D01*
X141065334Y-122451810D01*
X141017715Y-122642286D01*
X140970096Y-122737524D01*
X140874858Y-122832762D01*
X140732000Y-122880381D01*
X140493905Y-122880381D01*
X142065334Y-122785143D02*
X142017715Y-122832762D01*
X141874858Y-122880381D01*
X141779620Y-122880381D01*
X141636762Y-122832762D01*
X141541524Y-122737524D01*
X141493905Y-122642286D01*
X141446286Y-122451810D01*
X141446286Y-122308952D01*
X141493905Y-122118476D01*
X141541524Y-122023238D01*
X141636762Y-121928000D01*
X141779620Y-121880381D01*
X141874858Y-121880381D01*
X142017715Y-121928000D01*
X142065334Y-121975619D01*
X142446286Y-121975619D02*
X142493905Y-121928000D01*
X142589143Y-121880381D01*
X142827239Y-121880381D01*
X142922477Y-121928000D01*
X142970096Y-121975619D01*
X143017715Y-122070857D01*
X143017715Y-122166095D01*
X142970096Y-122308952D01*
X142398667Y-122880381D01*
X143017715Y-122880381D01*
D11*
X132391143Y-129235000D02*
X132391143Y-128625476D01*
X132695905Y-128930238D02*
X132086381Y-128930238D01*
X131895905Y-128358810D02*
X132695905Y-128092143D01*
X131895905Y-127825476D01*
X132695905Y-127444524D02*
X132657810Y-127520715D01*
X132619714Y-127558810D01*
X132543524Y-127596905D01*
X132314952Y-127596905D01*
X132238762Y-127558810D01*
X132200667Y-127520715D01*
X132162571Y-127444524D01*
X132162571Y-127330238D01*
X132200667Y-127254048D01*
X132238762Y-127215953D01*
X132314952Y-127177857D01*
X132543524Y-127177857D01*
X132619714Y-127215953D01*
X132657810Y-127254048D01*
X132695905Y-127330238D01*
X132695905Y-127444524D01*
X132162571Y-126492143D02*
X132695905Y-126492143D01*
X132162571Y-126835000D02*
X132581619Y-126835000D01*
X132657810Y-126796905D01*
X132695905Y-126720714D01*
X132695905Y-126606428D01*
X132657810Y-126530238D01*
X132619714Y-126492143D01*
X132162571Y-126225476D02*
X132162571Y-125920714D01*
X131895905Y-126111190D02*
X132581619Y-126111190D01*
X132657810Y-126073095D01*
X132695905Y-125996904D01*
X132695905Y-125920714D01*
X134931143Y-129235000D02*
X134931143Y-128625476D01*
X134435905Y-128358810D02*
X135235905Y-128092143D01*
X134435905Y-127825476D01*
X135235905Y-127444524D02*
X135197810Y-127520715D01*
X135159714Y-127558810D01*
X135083524Y-127596905D01*
X134854952Y-127596905D01*
X134778762Y-127558810D01*
X134740667Y-127520715D01*
X134702571Y-127444524D01*
X134702571Y-127330238D01*
X134740667Y-127254048D01*
X134778762Y-127215953D01*
X134854952Y-127177857D01*
X135083524Y-127177857D01*
X135159714Y-127215953D01*
X135197810Y-127254048D01*
X135235905Y-127330238D01*
X135235905Y-127444524D01*
X134702571Y-126492143D02*
X135235905Y-126492143D01*
X134702571Y-126835000D02*
X135121619Y-126835000D01*
X135197810Y-126796905D01*
X135235905Y-126720714D01*
X135235905Y-126606428D01*
X135197810Y-126530238D01*
X135159714Y-126492143D01*
X134702571Y-126225476D02*
X134702571Y-125920714D01*
X134435905Y-126111190D02*
X135121619Y-126111190D01*
X135197810Y-126073095D01*
X135235905Y-125996904D01*
X135235905Y-125920714D01*
X137471143Y-128200000D02*
X137471143Y-127590476D01*
X137775905Y-127895238D02*
X137166381Y-127895238D01*
X136975905Y-127323810D02*
X137775905Y-127057143D01*
X136975905Y-126790476D01*
X137775905Y-126523810D02*
X137242571Y-126523810D01*
X136975905Y-126523810D02*
X137014000Y-126561905D01*
X137052095Y-126523810D01*
X137014000Y-126485715D01*
X136975905Y-126523810D01*
X137052095Y-126523810D01*
X137242571Y-126142858D02*
X137775905Y-126142858D01*
X137318762Y-126142858D02*
X137280667Y-126104763D01*
X137242571Y-126028572D01*
X137242571Y-125914286D01*
X137280667Y-125838096D01*
X137356857Y-125800001D01*
X137775905Y-125800001D01*
X140011143Y-128200000D02*
X140011143Y-127590476D01*
X139515905Y-127323810D02*
X140315905Y-127057143D01*
X139515905Y-126790476D01*
X140315905Y-126523810D02*
X139782571Y-126523810D01*
X139515905Y-126523810D02*
X139554000Y-126561905D01*
X139592095Y-126523810D01*
X139554000Y-126485715D01*
X139515905Y-126523810D01*
X139592095Y-126523810D01*
X139782571Y-126142858D02*
X140315905Y-126142858D01*
X139858762Y-126142858D02*
X139820667Y-126104763D01*
X139782571Y-126028572D01*
X139782571Y-125914286D01*
X139820667Y-125838096D01*
X139896857Y-125800001D01*
X140315905Y-125800001D01*
D14*
X140493905Y-132024381D02*
X140493905Y-131024381D01*
X140732000Y-131024381D01*
X140874858Y-131072000D01*
X140970096Y-131167238D01*
X141017715Y-131262476D01*
X141065334Y-131452952D01*
X141065334Y-131595810D01*
X141017715Y-131786286D01*
X140970096Y-131881524D01*
X140874858Y-131976762D01*
X140732000Y-132024381D01*
X140493905Y-132024381D01*
X142065334Y-131929143D02*
X142017715Y-131976762D01*
X141874858Y-132024381D01*
X141779620Y-132024381D01*
X141636762Y-131976762D01*
X141541524Y-131881524D01*
X141493905Y-131786286D01*
X141446286Y-131595810D01*
X141446286Y-131452952D01*
X141493905Y-131262476D01*
X141541524Y-131167238D01*
X141636762Y-131072000D01*
X141779620Y-131024381D01*
X141874858Y-131024381D01*
X142017715Y-131072000D01*
X142065334Y-131119619D01*
X142398667Y-131024381D02*
X143017715Y-131024381D01*
X142684381Y-131405333D01*
X142827239Y-131405333D01*
X142922477Y-131452952D01*
X142970096Y-131500571D01*
X143017715Y-131595810D01*
X143017715Y-131833905D01*
X142970096Y-131929143D01*
X142922477Y-131976762D01*
X142827239Y-132024381D01*
X142541524Y-132024381D01*
X142446286Y-131976762D01*
X142398667Y-131929143D01*
D11*
X132391143Y-138379000D02*
X132391143Y-137769476D01*
X132695905Y-138074238D02*
X132086381Y-138074238D01*
X131895905Y-137502810D02*
X132695905Y-137236143D01*
X131895905Y-136969476D01*
X132695905Y-136588524D02*
X132657810Y-136664715D01*
X132619714Y-136702810D01*
X132543524Y-136740905D01*
X132314952Y-136740905D01*
X132238762Y-136702810D01*
X132200667Y-136664715D01*
X132162571Y-136588524D01*
X132162571Y-136474238D01*
X132200667Y-136398048D01*
X132238762Y-136359953D01*
X132314952Y-136321857D01*
X132543524Y-136321857D01*
X132619714Y-136359953D01*
X132657810Y-136398048D01*
X132695905Y-136474238D01*
X132695905Y-136588524D01*
X132162571Y-135636143D02*
X132695905Y-135636143D01*
X132162571Y-135979000D02*
X132581619Y-135979000D01*
X132657810Y-135940905D01*
X132695905Y-135864714D01*
X132695905Y-135750428D01*
X132657810Y-135674238D01*
X132619714Y-135636143D01*
X132162571Y-135369476D02*
X132162571Y-135064714D01*
X131895905Y-135255190D02*
X132581619Y-135255190D01*
X132657810Y-135217095D01*
X132695905Y-135140904D01*
X132695905Y-135064714D01*
X134931143Y-138379000D02*
X134931143Y-137769476D01*
X134435905Y-137502810D02*
X135235905Y-137236143D01*
X134435905Y-136969476D01*
X135235905Y-136588524D02*
X135197810Y-136664715D01*
X135159714Y-136702810D01*
X135083524Y-136740905D01*
X134854952Y-136740905D01*
X134778762Y-136702810D01*
X134740667Y-136664715D01*
X134702571Y-136588524D01*
X134702571Y-136474238D01*
X134740667Y-136398048D01*
X134778762Y-136359953D01*
X134854952Y-136321857D01*
X135083524Y-136321857D01*
X135159714Y-136359953D01*
X135197810Y-136398048D01*
X135235905Y-136474238D01*
X135235905Y-136588524D01*
X134702571Y-135636143D02*
X135235905Y-135636143D01*
X134702571Y-135979000D02*
X135121619Y-135979000D01*
X135197810Y-135940905D01*
X135235905Y-135864714D01*
X135235905Y-135750428D01*
X135197810Y-135674238D01*
X135159714Y-135636143D01*
X134702571Y-135369476D02*
X134702571Y-135064714D01*
X134435905Y-135255190D02*
X135121619Y-135255190D01*
X135197810Y-135217095D01*
X135235905Y-135140904D01*
X135235905Y-135064714D01*
X137471143Y-137344000D02*
X137471143Y-136734476D01*
X137775905Y-137039238D02*
X137166381Y-137039238D01*
X136975905Y-136467810D02*
X137775905Y-136201143D01*
X136975905Y-135934476D01*
X137775905Y-135667810D02*
X137242571Y-135667810D01*
X136975905Y-135667810D02*
X137014000Y-135705905D01*
X137052095Y-135667810D01*
X137014000Y-135629715D01*
X136975905Y-135667810D01*
X137052095Y-135667810D01*
X137242571Y-135286858D02*
X137775905Y-135286858D01*
X137318762Y-135286858D02*
X137280667Y-135248763D01*
X137242571Y-135172572D01*
X137242571Y-135058286D01*
X137280667Y-134982096D01*
X137356857Y-134944001D01*
X137775905Y-134944001D01*
X140011143Y-137344000D02*
X140011143Y-136734476D01*
X139515905Y-136467810D02*
X140315905Y-136201143D01*
X139515905Y-135934476D01*
X140315905Y-135667810D02*
X139782571Y-135667810D01*
X139515905Y-135667810D02*
X139554000Y-135705905D01*
X139592095Y-135667810D01*
X139554000Y-135629715D01*
X139515905Y-135667810D01*
X139592095Y-135667810D01*
X139782571Y-135286858D02*
X140315905Y-135286858D01*
X139858762Y-135286858D02*
X139820667Y-135248763D01*
X139782571Y-135172572D01*
X139782571Y-135058286D01*
X139820667Y-134982096D01*
X139896857Y-134944001D01*
X140315905Y-134944001D01*
D14*
X141001905Y-113736381D02*
X141001905Y-112736381D01*
X141240000Y-112736381D01*
X141382858Y-112784000D01*
X141478096Y-112879238D01*
X141525715Y-112974476D01*
X141573334Y-113164952D01*
X141573334Y-113307810D01*
X141525715Y-113498286D01*
X141478096Y-113593524D01*
X141382858Y-113688762D01*
X141240000Y-113736381D01*
X141001905Y-113736381D01*
X142573334Y-113641143D02*
X142525715Y-113688762D01*
X142382858Y-113736381D01*
X142287620Y-113736381D01*
X142144762Y-113688762D01*
X142049524Y-113593524D01*
X142001905Y-113498286D01*
X141954286Y-113307810D01*
X141954286Y-113164952D01*
X142001905Y-112974476D01*
X142049524Y-112879238D01*
X142144762Y-112784000D01*
X142287620Y-112736381D01*
X142382858Y-112736381D01*
X142525715Y-112784000D01*
X142573334Y-112831619D01*
X143430477Y-113069714D02*
X143430477Y-113736381D01*
X143192381Y-112688762D02*
X142954286Y-113403048D01*
X143573334Y-113403048D01*
D11*
X128835143Y-118821000D02*
X128835143Y-118211476D01*
X129139905Y-118516238D02*
X128530381Y-118516238D01*
X128339905Y-117944810D02*
X129139905Y-117678143D01*
X128339905Y-117411476D01*
X129139905Y-117030524D02*
X129101810Y-117106715D01*
X129063714Y-117144810D01*
X128987524Y-117182905D01*
X128758952Y-117182905D01*
X128682762Y-117144810D01*
X128644667Y-117106715D01*
X128606571Y-117030524D01*
X128606571Y-116916238D01*
X128644667Y-116840048D01*
X128682762Y-116801953D01*
X128758952Y-116763857D01*
X128987524Y-116763857D01*
X129063714Y-116801953D01*
X129101810Y-116840048D01*
X129139905Y-116916238D01*
X129139905Y-117030524D01*
X128606571Y-116078143D02*
X129139905Y-116078143D01*
X128606571Y-116421000D02*
X129025619Y-116421000D01*
X129101810Y-116382905D01*
X129139905Y-116306714D01*
X129139905Y-116192428D01*
X129101810Y-116116238D01*
X129063714Y-116078143D01*
X128606571Y-115811476D02*
X128606571Y-115506714D01*
X128339905Y-115697190D02*
X129025619Y-115697190D01*
X129101810Y-115659095D01*
X129139905Y-115582904D01*
X129139905Y-115506714D01*
X133915143Y-118821000D02*
X133915143Y-118211476D01*
X133419905Y-117944810D02*
X134219905Y-117678143D01*
X133419905Y-117411476D01*
X134219905Y-117030524D02*
X134181810Y-117106715D01*
X134143714Y-117144810D01*
X134067524Y-117182905D01*
X133838952Y-117182905D01*
X133762762Y-117144810D01*
X133724667Y-117106715D01*
X133686571Y-117030524D01*
X133686571Y-116916238D01*
X133724667Y-116840048D01*
X133762762Y-116801953D01*
X133838952Y-116763857D01*
X134067524Y-116763857D01*
X134143714Y-116801953D01*
X134181810Y-116840048D01*
X134219905Y-116916238D01*
X134219905Y-117030524D01*
X133686571Y-116078143D02*
X134219905Y-116078143D01*
X133686571Y-116421000D02*
X134105619Y-116421000D01*
X134181810Y-116382905D01*
X134219905Y-116306714D01*
X134219905Y-116192428D01*
X134181810Y-116116238D01*
X134143714Y-116078143D01*
X133686571Y-115811476D02*
X133686571Y-115506714D01*
X133419905Y-115697190D02*
X134105619Y-115697190D01*
X134181810Y-115659095D01*
X134219905Y-115582904D01*
X134219905Y-115506714D01*
X138995143Y-118421000D02*
X138995143Y-117811476D01*
X138499905Y-117544810D02*
X139299905Y-117278143D01*
X138499905Y-117011476D01*
X139299905Y-116744810D02*
X138766571Y-116744810D01*
X138499905Y-116744810D02*
X138538000Y-116782905D01*
X138576095Y-116744810D01*
X138538000Y-116706715D01*
X138499905Y-116744810D01*
X138576095Y-116744810D01*
X138766571Y-116363858D02*
X139299905Y-116363858D01*
X138842762Y-116363858D02*
X138804667Y-116325763D01*
X138766571Y-116249572D01*
X138766571Y-116135286D01*
X138804667Y-116059096D01*
X138880857Y-116021001D01*
X139299905Y-116021001D01*
X141535143Y-118421000D02*
X141535143Y-117811476D01*
X141839905Y-118116238D02*
X141230381Y-118116238D01*
X141039905Y-117544810D02*
X141839905Y-117278143D01*
X141039905Y-117011476D01*
X141839905Y-116744810D02*
X141306571Y-116744810D01*
X141039905Y-116744810D02*
X141078000Y-116782905D01*
X141116095Y-116744810D01*
X141078000Y-116706715D01*
X141039905Y-116744810D01*
X141116095Y-116744810D01*
X141306571Y-116363858D02*
X141839905Y-116363858D01*
X141382762Y-116363858D02*
X141344667Y-116325763D01*
X141306571Y-116249572D01*
X141306571Y-116135286D01*
X141344667Y-116059096D01*
X141420857Y-116021001D01*
X141839905Y-116021001D01*
D14*
X140493905Y-104592381D02*
X140493905Y-103592381D01*
X140732000Y-103592381D01*
X140874858Y-103640000D01*
X140970096Y-103735238D01*
X141017715Y-103830476D01*
X141065334Y-104020952D01*
X141065334Y-104163810D01*
X141017715Y-104354286D01*
X140970096Y-104449524D01*
X140874858Y-104544762D01*
X140732000Y-104592381D01*
X140493905Y-104592381D01*
X142065334Y-104497143D02*
X142017715Y-104544762D01*
X141874858Y-104592381D01*
X141779620Y-104592381D01*
X141636762Y-104544762D01*
X141541524Y-104449524D01*
X141493905Y-104354286D01*
X141446286Y-104163810D01*
X141446286Y-104020952D01*
X141493905Y-103830476D01*
X141541524Y-103735238D01*
X141636762Y-103640000D01*
X141779620Y-103592381D01*
X141874858Y-103592381D01*
X142017715Y-103640000D01*
X142065334Y-103687619D01*
X142970096Y-103592381D02*
X142493905Y-103592381D01*
X142446286Y-104068571D01*
X142493905Y-104020952D01*
X142589143Y-103973333D01*
X142827239Y-103973333D01*
X142922477Y-104020952D01*
X142970096Y-104068571D01*
X143017715Y-104163810D01*
X143017715Y-104401905D01*
X142970096Y-104497143D01*
X142922477Y-104544762D01*
X142827239Y-104592381D01*
X142589143Y-104592381D01*
X142493905Y-104544762D01*
X142446286Y-104497143D01*
D11*
X128835143Y-109677000D02*
X128835143Y-109067476D01*
X129139905Y-109372238D02*
X128530381Y-109372238D01*
X128339905Y-108800810D02*
X129139905Y-108534143D01*
X128339905Y-108267476D01*
X129139905Y-107886524D02*
X129101810Y-107962715D01*
X129063714Y-108000810D01*
X128987524Y-108038905D01*
X128758952Y-108038905D01*
X128682762Y-108000810D01*
X128644667Y-107962715D01*
X128606571Y-107886524D01*
X128606571Y-107772238D01*
X128644667Y-107696048D01*
X128682762Y-107657953D01*
X128758952Y-107619857D01*
X128987524Y-107619857D01*
X129063714Y-107657953D01*
X129101810Y-107696048D01*
X129139905Y-107772238D01*
X129139905Y-107886524D01*
X128606571Y-106934143D02*
X129139905Y-106934143D01*
X128606571Y-107277000D02*
X129025619Y-107277000D01*
X129101810Y-107238905D01*
X129139905Y-107162714D01*
X129139905Y-107048428D01*
X129101810Y-106972238D01*
X129063714Y-106934143D01*
X128606571Y-106667476D02*
X128606571Y-106362714D01*
X128339905Y-106553190D02*
X129025619Y-106553190D01*
X129101810Y-106515095D01*
X129139905Y-106438904D01*
X129139905Y-106362714D01*
X133915143Y-109677000D02*
X133915143Y-109067476D01*
X133419905Y-108800810D02*
X134219905Y-108534143D01*
X133419905Y-108267476D01*
X134219905Y-107886524D02*
X134181810Y-107962715D01*
X134143714Y-108000810D01*
X134067524Y-108038905D01*
X133838952Y-108038905D01*
X133762762Y-108000810D01*
X133724667Y-107962715D01*
X133686571Y-107886524D01*
X133686571Y-107772238D01*
X133724667Y-107696048D01*
X133762762Y-107657953D01*
X133838952Y-107619857D01*
X134067524Y-107619857D01*
X134143714Y-107657953D01*
X134181810Y-107696048D01*
X134219905Y-107772238D01*
X134219905Y-107886524D01*
X133686571Y-106934143D02*
X134219905Y-106934143D01*
X133686571Y-107277000D02*
X134105619Y-107277000D01*
X134181810Y-107238905D01*
X134219905Y-107162714D01*
X134219905Y-107048428D01*
X134181810Y-106972238D01*
X134143714Y-106934143D01*
X133686571Y-106667476D02*
X133686571Y-106362714D01*
X133419905Y-106553190D02*
X134105619Y-106553190D01*
X134181810Y-106515095D01*
X134219905Y-106438904D01*
X134219905Y-106362714D01*
X138995143Y-109277000D02*
X138995143Y-108667476D01*
X138499905Y-108400810D02*
X139299905Y-108134143D01*
X138499905Y-107867476D01*
X139299905Y-107600810D02*
X138766571Y-107600810D01*
X138499905Y-107600810D02*
X138538000Y-107638905D01*
X138576095Y-107600810D01*
X138538000Y-107562715D01*
X138499905Y-107600810D01*
X138576095Y-107600810D01*
X138766571Y-107219858D02*
X139299905Y-107219858D01*
X138842762Y-107219858D02*
X138804667Y-107181763D01*
X138766571Y-107105572D01*
X138766571Y-106991286D01*
X138804667Y-106915096D01*
X138880857Y-106877001D01*
X139299905Y-106877001D01*
X141535143Y-109277000D02*
X141535143Y-108667476D01*
X141839905Y-108972238D02*
X141230381Y-108972238D01*
X141039905Y-108400810D02*
X141839905Y-108134143D01*
X141039905Y-107867476D01*
X141839905Y-107600810D02*
X141306571Y-107600810D01*
X141039905Y-107600810D02*
X141078000Y-107638905D01*
X141116095Y-107600810D01*
X141078000Y-107562715D01*
X141039905Y-107600810D01*
X141116095Y-107600810D01*
X141306571Y-107219858D02*
X141839905Y-107219858D01*
X141382762Y-107219858D02*
X141344667Y-107181763D01*
X141306571Y-107105572D01*
X141306571Y-106991286D01*
X141344667Y-106915096D01*
X141420857Y-106877001D01*
X141839905Y-106877001D01*
D14*
X141676381Y-141898666D02*
X141676381Y-142374857D01*
X140676381Y-142374857D01*
X141676381Y-141041523D02*
X141676381Y-141612952D01*
X141676381Y-141327238D02*
X140676381Y-141327238D01*
X140819238Y-141422476D01*
X140914476Y-141517714D01*
X140962095Y-141612952D01*
X144613334Y-122880381D02*
X144137143Y-122880381D01*
X144137143Y-121880381D01*
X144899048Y-121975619D02*
X144946667Y-121928000D01*
X145041905Y-121880381D01*
X145280001Y-121880381D01*
X145375239Y-121928000D01*
X145422858Y-121975619D01*
X145470477Y-122070857D01*
X145470477Y-122166095D01*
X145422858Y-122308952D01*
X144851429Y-122880381D01*
X145470477Y-122880381D01*
X146137334Y-132024381D02*
X145661143Y-132024381D01*
X145661143Y-131024381D01*
X146375429Y-131024381D02*
X146994477Y-131024381D01*
X146661143Y-131405333D01*
X146804001Y-131405333D01*
X146899239Y-131452952D01*
X146946858Y-131500571D01*
X146994477Y-131595810D01*
X146994477Y-131833905D01*
X146946858Y-131929143D01*
X146899239Y-131976762D01*
X146804001Y-132024381D01*
X146518286Y-132024381D01*
X146423048Y-131976762D01*
X146375429Y-131929143D01*
X147153334Y-122880381D02*
X146677143Y-122880381D01*
X146677143Y-121880381D01*
X147915239Y-122213714D02*
X147915239Y-122880381D01*
X147677143Y-121832762D02*
X147439048Y-122547048D01*
X148058096Y-122547048D01*
X146137334Y-113736381D02*
X145661143Y-113736381D01*
X145661143Y-112736381D01*
X146946858Y-112736381D02*
X146470667Y-112736381D01*
X146423048Y-113212571D01*
X146470667Y-113164952D01*
X146565905Y-113117333D01*
X146804001Y-113117333D01*
X146899239Y-113164952D01*
X146946858Y-113212571D01*
X146994477Y-113307810D01*
X146994477Y-113545905D01*
X146946858Y-113641143D01*
X146899239Y-113688762D01*
X146804001Y-113736381D01*
X146565905Y-113736381D01*
X146470667Y-113688762D01*
X146423048Y-113641143D01*
X123277334Y-141168381D02*
X122801143Y-141168381D01*
X122801143Y-140168381D01*
X124039239Y-140168381D02*
X123848762Y-140168381D01*
X123753524Y-140216000D01*
X123705905Y-140263619D01*
X123610667Y-140406476D01*
X123563048Y-140596952D01*
X123563048Y-140977905D01*
X123610667Y-141073143D01*
X123658286Y-141120762D01*
X123753524Y-141168381D01*
X123944001Y-141168381D01*
X124039239Y-141120762D01*
X124086858Y-141073143D01*
X124134477Y-140977905D01*
X124134477Y-140739810D01*
X124086858Y-140644571D01*
X124039239Y-140596952D01*
X123944001Y-140549333D01*
X123753524Y-140549333D01*
X123658286Y-140596952D01*
X123610667Y-140644571D01*
X123563048Y-140739810D01*
X126325334Y-122880381D02*
X125849143Y-122880381D01*
X125849143Y-121880381D01*
X126563429Y-121880381D02*
X127230096Y-121880381D01*
X126801524Y-122880381D01*
X124801334Y-132024381D02*
X124325143Y-132024381D01*
X124325143Y-131024381D01*
X125277524Y-131452952D02*
X125182286Y-131405333D01*
X125134667Y-131357714D01*
X125087048Y-131262476D01*
X125087048Y-131214857D01*
X125134667Y-131119619D01*
X125182286Y-131072000D01*
X125277524Y-131024381D01*
X125468001Y-131024381D01*
X125563239Y-131072000D01*
X125610858Y-131119619D01*
X125658477Y-131214857D01*
X125658477Y-131262476D01*
X125610858Y-131357714D01*
X125563239Y-131405333D01*
X125468001Y-131452952D01*
X125277524Y-131452952D01*
X125182286Y-131500571D01*
X125134667Y-131548190D01*
X125087048Y-131643429D01*
X125087048Y-131833905D01*
X125134667Y-131929143D01*
X125182286Y-131976762D01*
X125277524Y-132024381D01*
X125468001Y-132024381D01*
X125563239Y-131976762D01*
X125610858Y-131929143D01*
X125658477Y-131833905D01*
X125658477Y-131643429D01*
X125610858Y-131548190D01*
X125563239Y-131500571D01*
X125468001Y-131452952D01*
X120737334Y-122880381D02*
X120261143Y-122880381D01*
X120261143Y-121880381D01*
X121118286Y-122880381D02*
X121308762Y-122880381D01*
X121404001Y-122832762D01*
X121451620Y-122785143D01*
X121546858Y-122642286D01*
X121594477Y-122451810D01*
X121594477Y-122070857D01*
X121546858Y-121975619D01*
X121499239Y-121928000D01*
X121404001Y-121880381D01*
X121213524Y-121880381D01*
X121118286Y-121928000D01*
X121070667Y-121975619D01*
X121023048Y-122070857D01*
X121023048Y-122308952D01*
X121070667Y-122404190D01*
X121118286Y-122451810D01*
X121213524Y-122499429D01*
X121404001Y-122499429D01*
X121499239Y-122451810D01*
X121546858Y-122404190D01*
X121594477Y-122308952D01*
X120515143Y-104592381D02*
X120038952Y-104592381D01*
X120038952Y-103592381D01*
X121372286Y-104592381D02*
X120800857Y-104592381D01*
X121086571Y-104592381D02*
X121086571Y-103592381D01*
X120991333Y-103735238D01*
X120896095Y-103830476D01*
X120800857Y-103878095D01*
X121991333Y-103592381D02*
X122086572Y-103592381D01*
X122181810Y-103640000D01*
X122229429Y-103687619D01*
X122277048Y-103782857D01*
X122324667Y-103973333D01*
X122324667Y-104211429D01*
X122277048Y-104401905D01*
X122229429Y-104497143D01*
X122181810Y-104544762D01*
X122086572Y-104592381D01*
X121991333Y-104592381D01*
X121896095Y-104544762D01*
X121848476Y-104497143D01*
X121800857Y-104401905D01*
X121753238Y-104211429D01*
X121753238Y-103973333D01*
X121800857Y-103782857D01*
X121848476Y-103687619D01*
X121896095Y-103640000D01*
X121991333Y-103592381D01*
X122769334Y-131262381D02*
X122436000Y-130786190D01*
X122197905Y-131262381D02*
X122197905Y-130262381D01*
X122578858Y-130262381D01*
X122674096Y-130310000D01*
X122721715Y-130357619D01*
X122769334Y-130452857D01*
X122769334Y-130595714D01*
X122721715Y-130690952D01*
X122674096Y-130738571D01*
X122578858Y-130786190D01*
X122197905Y-130786190D01*
X123721715Y-131262381D02*
X123150286Y-131262381D01*
X123436000Y-131262381D02*
X123436000Y-130262381D01*
X123340762Y-130405238D01*
X123245524Y-130500476D01*
X123150286Y-130548095D01*
X117181334Y-109672381D02*
X116848000Y-109196190D01*
X116609905Y-109672381D02*
X116609905Y-108672381D01*
X116990858Y-108672381D01*
X117086096Y-108720000D01*
X117133715Y-108767619D01*
X117181334Y-108862857D01*
X117181334Y-109005714D01*
X117133715Y-109100952D01*
X117086096Y-109148571D01*
X116990858Y-109196190D01*
X116609905Y-109196190D01*
X118038477Y-109005714D02*
X118038477Y-109672381D01*
X117800381Y-108624762D02*
X117562286Y-109339048D01*
X118181334Y-109339048D01*
X122261334Y-124912381D02*
X121928000Y-124436190D01*
X121689905Y-124912381D02*
X121689905Y-123912381D01*
X122070858Y-123912381D01*
X122166096Y-123960000D01*
X122213715Y-124007619D01*
X122261334Y-124102857D01*
X122261334Y-124245714D01*
X122213715Y-124340952D01*
X122166096Y-124388571D01*
X122070858Y-124436190D01*
X121689905Y-124436190D01*
X123166096Y-123912381D02*
X122689905Y-123912381D01*
X122642286Y-124388571D01*
X122689905Y-124340952D01*
X122785143Y-124293333D01*
X123023239Y-124293333D01*
X123118477Y-124340952D01*
X123166096Y-124388571D01*
X123213715Y-124483810D01*
X123213715Y-124721905D01*
X123166096Y-124817143D01*
X123118477Y-124864762D01*
X123023239Y-124912381D01*
X122785143Y-124912381D01*
X122689905Y-124864762D01*
X122642286Y-124817143D01*
X117181334Y-116784381D02*
X116848000Y-116308190D01*
X116609905Y-116784381D02*
X116609905Y-115784381D01*
X116990858Y-115784381D01*
X117086096Y-115832000D01*
X117133715Y-115879619D01*
X117181334Y-115974857D01*
X117181334Y-116117714D01*
X117133715Y-116212952D01*
X117086096Y-116260571D01*
X116990858Y-116308190D01*
X116609905Y-116308190D01*
X117514667Y-115784381D02*
X118181334Y-115784381D01*
X117752762Y-116784381D01*
X106426095Y-120864381D02*
X106426095Y-121673905D01*
X106473714Y-121769143D01*
X106521333Y-121816762D01*
X106616571Y-121864381D01*
X106807048Y-121864381D01*
X106902286Y-121816762D01*
X106949905Y-121769143D01*
X106997524Y-121673905D01*
X106997524Y-120864381D01*
X107902286Y-121197714D02*
X107902286Y-121864381D01*
X107664190Y-120816762D02*
X107426095Y-121531048D01*
X108045143Y-121531048D01*
X110490095Y-148296381D02*
X110490095Y-149105905D01*
X110537714Y-149201143D01*
X110585333Y-149248762D01*
X110680571Y-149296381D01*
X110871048Y-149296381D01*
X110966286Y-149248762D01*
X111013905Y-149201143D01*
X111061524Y-149105905D01*
X111061524Y-148296381D01*
X112061524Y-149296381D02*
X111490095Y-149296381D01*
X111775809Y-149296381D02*
X111775809Y-148296381D01*
X111680571Y-148439238D01*
X111585333Y-148534476D01*
X111490095Y-148582095D01*
X110998095Y-130008381D02*
X110998095Y-130817905D01*
X111045714Y-130913143D01*
X111093333Y-130960762D01*
X111188571Y-131008381D01*
X111379048Y-131008381D01*
X111474286Y-130960762D01*
X111521905Y-130913143D01*
X111569524Y-130817905D01*
X111569524Y-130008381D01*
X111998095Y-130103619D02*
X112045714Y-130056000D01*
X112140952Y-130008381D01*
X112379048Y-130008381D01*
X112474286Y-130056000D01*
X112521905Y-130103619D01*
X112569524Y-130198857D01*
X112569524Y-130294095D01*
X112521905Y-130436952D01*
X111950476Y-131008381D01*
X112569524Y-131008381D01*
X105918095Y-111720381D02*
X105918095Y-112529905D01*
X105965714Y-112625143D01*
X106013333Y-112672762D01*
X106108571Y-112720381D01*
X106299048Y-112720381D01*
X106394286Y-112672762D01*
X106441905Y-112625143D01*
X106489524Y-112529905D01*
X106489524Y-111720381D01*
X107441905Y-111720381D02*
X106965714Y-111720381D01*
X106918095Y-112196571D01*
X106965714Y-112148952D01*
X107060952Y-112101333D01*
X107299048Y-112101333D01*
X107394286Y-112148952D01*
X107441905Y-112196571D01*
X107489524Y-112291810D01*
X107489524Y-112529905D01*
X107441905Y-112625143D01*
X107394286Y-112672762D01*
X107299048Y-112720381D01*
X107060952Y-112720381D01*
X106965714Y-112672762D01*
X106918095Y-112625143D01*
X114554095Y-138136381D02*
X114554095Y-138945905D01*
X114601714Y-139041143D01*
X114649333Y-139088762D01*
X114744571Y-139136381D01*
X114935048Y-139136381D01*
X115030286Y-139088762D01*
X115077905Y-139041143D01*
X115125524Y-138945905D01*
X115125524Y-138136381D01*
X115506476Y-138136381D02*
X116125524Y-138136381D01*
X115792190Y-138517333D01*
X115935048Y-138517333D01*
X116030286Y-138564952D01*
X116077905Y-138612571D01*
X116125524Y-138707810D01*
X116125524Y-138945905D01*
X116077905Y-139041143D01*
X116030286Y-139088762D01*
X115935048Y-139136381D01*
X115649333Y-139136381D01*
X115554095Y-139088762D01*
X115506476Y-139041143D01*
X108053143Y-127642857D02*
X108100762Y-127690476D01*
X108148381Y-127833333D01*
X108148381Y-127928571D01*
X108100762Y-128071429D01*
X108005524Y-128166667D01*
X107910286Y-128214286D01*
X107719810Y-128261905D01*
X107576952Y-128261905D01*
X107386476Y-128214286D01*
X107291238Y-128166667D01*
X107196000Y-128071429D01*
X107148381Y-127928571D01*
X107148381Y-127833333D01*
X107196000Y-127690476D01*
X107243619Y-127642857D01*
X107243619Y-127261905D02*
X107196000Y-127214286D01*
X107148381Y-127119048D01*
X107148381Y-126880952D01*
X107196000Y-126785714D01*
X107243619Y-126738095D01*
X107338857Y-126690476D01*
X107434095Y-126690476D01*
X107576952Y-126738095D01*
X108148381Y-127309524D01*
X108148381Y-126690476D01*
X107148381Y-125833333D02*
X107148381Y-126023810D01*
X107196000Y-126119048D01*
X107243619Y-126166667D01*
X107386476Y-126261905D01*
X107576952Y-126309524D01*
X107957905Y-126309524D01*
X108053143Y-126261905D01*
X108100762Y-126214286D01*
X108148381Y-126119048D01*
X108148381Y-125928571D01*
X108100762Y-125833333D01*
X108053143Y-125785714D01*
X107957905Y-125738095D01*
X107719810Y-125738095D01*
X107624571Y-125785714D01*
X107576952Y-125833333D01*
X107529333Y-125928571D01*
X107529333Y-126119048D01*
X107576952Y-126214286D01*
X107624571Y-126261905D01*
X107719810Y-126309524D01*
X142946381Y-146026095D02*
X141946381Y-146026095D01*
X141946381Y-145645142D01*
X141994000Y-145549904D01*
X142041619Y-145502285D01*
X142136857Y-145454666D01*
X142279714Y-145454666D01*
X142374952Y-145502285D01*
X142422571Y-145549904D01*
X142470190Y-145645142D01*
X142470190Y-146026095D01*
X142041619Y-145073714D02*
X141994000Y-145026095D01*
X141946381Y-144930857D01*
X141946381Y-144692761D01*
X141994000Y-144597523D01*
X142041619Y-144549904D01*
X142136857Y-144502285D01*
X142232095Y-144502285D01*
X142374952Y-144549904D01*
X142946381Y-145121333D01*
X142946381Y-144502285D01*
D15*
X119696667Y-109482666D02*
X118996667Y-109482666D01*
X118996667Y-109316000D01*
X119030000Y-109216000D01*
X119096667Y-109149333D01*
X119163333Y-109116000D01*
X119296667Y-109082666D01*
X119396667Y-109082666D01*
X119530000Y-109116000D01*
X119596667Y-109149333D01*
X119663333Y-109216000D01*
X119696667Y-109316000D01*
X119696667Y-109482666D01*
X118996667Y-108449333D02*
X118996667Y-108782666D01*
X119330000Y-108816000D01*
X119296667Y-108782666D01*
X119263333Y-108716000D01*
X119263333Y-108549333D01*
X119296667Y-108482666D01*
X119330000Y-108449333D01*
X119396667Y-108416000D01*
X119563333Y-108416000D01*
X119630000Y-108449333D01*
X119663333Y-108482666D01*
X119696667Y-108549333D01*
X119696667Y-108716000D01*
X119663333Y-108782666D01*
X119630000Y-108816000D01*
X117847334Y-115124667D02*
X117847334Y-114424667D01*
X118014000Y-114424667D01*
X118114000Y-114458000D01*
X118180667Y-114524667D01*
X118214000Y-114591333D01*
X118247334Y-114724667D01*
X118247334Y-114824667D01*
X118214000Y-114958000D01*
X118180667Y-115024667D01*
X118114000Y-115091333D01*
X118014000Y-115124667D01*
X117847334Y-115124667D01*
X118847334Y-114658000D02*
X118847334Y-115124667D01*
X118680667Y-114391333D02*
X118514000Y-114891333D01*
X118947334Y-114891333D01*
D11*
X124123524Y-149459905D02*
X124123524Y-148659905D01*
X124314000Y-148659905D01*
X124428286Y-148698000D01*
X124504477Y-148774190D01*
X124542572Y-148850381D01*
X124580667Y-149002762D01*
X124580667Y-149117048D01*
X124542572Y-149269429D01*
X124504477Y-149345619D01*
X124428286Y-149421810D01*
X124314000Y-149459905D01*
X124123524Y-149459905D01*
X125342572Y-149459905D02*
X124885429Y-149459905D01*
X125114000Y-149459905D02*
X125114000Y-148659905D01*
X125037810Y-148774190D01*
X124961619Y-148850381D01*
X124885429Y-148888476D01*
M02*
