G04 #@! TF.FileFunction,Copper,L2,Bot,Signal*
%FSLAX46Y46*%
G04 Gerber Fmt 4.6, Leading zero omitted, Abs format (unit mm)*
G04 Created by KiCad (PCBNEW 4.0.1-3.201512221402+6198~38~ubuntu14.04.1-stable) date Wed 03 Feb 2016 12:26:22 GMT*
%MOMM*%
G01*
G04 APERTURE LIST*
%ADD10C,0.100000*%
%ADD11R,1.000000X1.250000*%
%ADD12R,1.800000X1.230000*%
%ADD13R,1.230000X1.800000*%
%ADD14C,1.800000*%
%ADD15R,0.700000X1.300000*%
%ADD16R,1.300000X0.700000*%
%ADD17R,2.032000X2.032000*%
%ADD18O,2.032000X2.032000*%
%ADD19R,1.727200X1.727200*%
%ADD20O,1.727200X1.727200*%
%ADD21R,0.590000X0.450000*%
%ADD22R,1.250000X1.000000*%
%ADD23R,0.450000X0.590000*%
%ADD24C,1.500000*%
%ADD25C,1.000000*%
%ADD26C,0.508000*%
%ADD27C,1.500000*%
%ADD28C,1.016000*%
%ADD29C,0.254000*%
G04 APERTURE END LIST*
D10*
D11*
X132096000Y-145288000D03*
X134096000Y-145288000D03*
X135144000Y-127000000D03*
X137144000Y-127000000D03*
X135144000Y-136144000D03*
X137144000Y-136144000D03*
X135144000Y-118364000D03*
X137144000Y-118364000D03*
X135144000Y-109220000D03*
X137144000Y-109220000D03*
D12*
X120182000Y-117856000D03*
X117562000Y-117856000D03*
D13*
X119888000Y-110022000D03*
X119888000Y-107402000D03*
D14*
X131826000Y-142748000D03*
X129286000Y-142748000D03*
X134366000Y-142748000D03*
X136906000Y-142748000D03*
X134874000Y-124460000D03*
X132334000Y-124460000D03*
X137414000Y-124460000D03*
X139954000Y-124460000D03*
X134874000Y-133604000D03*
X132334000Y-133604000D03*
X137414000Y-133604000D03*
X139954000Y-133604000D03*
X141478000Y-120396000D03*
X138938000Y-120396000D03*
X133858000Y-120396000D03*
X128778000Y-120396000D03*
X141478000Y-111252000D03*
X138938000Y-111252000D03*
X133858000Y-111252000D03*
X128778000Y-111252000D03*
D15*
X118430000Y-120396000D03*
X120330000Y-120396000D03*
D16*
X117348000Y-107762000D03*
X117348000Y-109662000D03*
D15*
X120330000Y-134112000D03*
X118430000Y-134112000D03*
D16*
X119380000Y-136210000D03*
X119380000Y-138110000D03*
D17*
X145288000Y-147828000D03*
D18*
X147828000Y-147828000D03*
D19*
X103886000Y-140208000D03*
D20*
X106426000Y-140208000D03*
X103886000Y-142748000D03*
X106426000Y-142748000D03*
X103886000Y-145288000D03*
X106426000Y-145288000D03*
X103886000Y-147828000D03*
X106426000Y-147828000D03*
D17*
X145288000Y-145288000D03*
D18*
X147828000Y-145288000D03*
D21*
X125437000Y-135636000D03*
X127547000Y-135636000D03*
X129501000Y-127508000D03*
X131611000Y-127508000D03*
D11*
X136160000Y-145288000D03*
X138160000Y-145288000D03*
X139224000Y-127000000D03*
X141224000Y-127000000D03*
X139224000Y-136144000D03*
X141224000Y-136144000D03*
X141192000Y-118364000D03*
X139192000Y-118364000D03*
X141192000Y-109220000D03*
X139192000Y-109220000D03*
X122460000Y-129032000D03*
X124460000Y-129032000D03*
D22*
X121666000Y-136176000D03*
X121666000Y-138176000D03*
D11*
X118396000Y-122428000D03*
X120396000Y-122428000D03*
D22*
X115062000Y-110268000D03*
X115062000Y-112268000D03*
D23*
X113284000Y-115531000D03*
X113284000Y-117641000D03*
X111760000Y-106133000D03*
X111760000Y-108243000D03*
X111252000Y-117563000D03*
X111252000Y-119673000D03*
X111760000Y-109142000D03*
X111760000Y-111252000D03*
D24*
X144272000Y-107696000D03*
X144272000Y-116840000D03*
X144272000Y-128016000D03*
X144272000Y-137160000D03*
X116332000Y-147320000D03*
X114808000Y-140208000D03*
D25*
X128524000Y-127508000D03*
X113284000Y-115570000D03*
X119380000Y-138684000D03*
X122460000Y-129032000D03*
X111252000Y-119673000D03*
X117348000Y-120396000D03*
X111712504Y-111204504D03*
X116840000Y-110236000D03*
X124460000Y-129032000D03*
D24*
X105156000Y-133604000D03*
D25*
X120904000Y-134112000D03*
X125476000Y-135636000D03*
X111760000Y-106133000D03*
D24*
X115697000Y-108585000D03*
X118298000Y-112202000D03*
D25*
X113284000Y-117641000D03*
X117282000Y-117324002D03*
X120904000Y-136652000D03*
D26*
X139446000Y-107696000D02*
X139192000Y-107950000D01*
X139192000Y-107950000D02*
X139192000Y-109220000D01*
X144272000Y-107696000D02*
X139446000Y-107696000D01*
X139192000Y-109220000D02*
X137144000Y-109220000D01*
X137144000Y-109220000D02*
X137144000Y-109458000D01*
X137144000Y-109458000D02*
X138938000Y-111252000D01*
X138938000Y-111252000D02*
X138938000Y-109474000D01*
X138938000Y-109474000D02*
X139192000Y-109220000D01*
X139446000Y-116840000D02*
X139192000Y-117094000D01*
X139192000Y-117094000D02*
X139192000Y-118364000D01*
X144272000Y-116840000D02*
X139446000Y-116840000D01*
X137144000Y-118364000D02*
X137144000Y-118602000D01*
X137144000Y-118602000D02*
X138938000Y-120396000D01*
X138938000Y-120396000D02*
X138938000Y-118618000D01*
X138938000Y-118618000D02*
X139192000Y-118364000D01*
X138160000Y-145288000D02*
X141732000Y-145288000D01*
X141732000Y-145288000D02*
X144272000Y-142748000D01*
X138160000Y-145288000D02*
X138160000Y-144002000D01*
X138160000Y-144002000D02*
X136906000Y-142748000D01*
X137922000Y-146812000D02*
X138160000Y-146574000D01*
X138160000Y-146574000D02*
X138160000Y-145288000D01*
X134487000Y-146812000D02*
X137922000Y-146812000D01*
X134096000Y-145288000D02*
X134096000Y-146421000D01*
X134096000Y-146421000D02*
X134487000Y-146812000D01*
X141224000Y-136144000D02*
X143256000Y-136144000D01*
X143256000Y-136144000D02*
X144272000Y-137160000D01*
X139954000Y-133604000D02*
X141224000Y-134874000D01*
X141224000Y-134874000D02*
X141224000Y-136144000D01*
X140970000Y-137668000D02*
X141224000Y-137414000D01*
X141224000Y-137414000D02*
X141224000Y-136144000D01*
X137535000Y-137668000D02*
X140970000Y-137668000D01*
X137144000Y-136144000D02*
X137144000Y-137277000D01*
X137144000Y-137277000D02*
X137535000Y-137668000D01*
X139954000Y-124460000D02*
X141224000Y-125730000D01*
X141224000Y-125730000D02*
X141224000Y-127000000D01*
X141224000Y-127000000D02*
X143256000Y-127000000D01*
X143256000Y-127000000D02*
X144272000Y-128016000D01*
X140970000Y-128524000D02*
X141224000Y-128270000D01*
X141224000Y-128270000D02*
X141224000Y-127000000D01*
X137535000Y-128524000D02*
X140970000Y-128524000D01*
X137144000Y-127000000D02*
X137144000Y-128133000D01*
X137144000Y-128133000D02*
X137535000Y-128524000D01*
D27*
X144272000Y-107696000D02*
X144272000Y-116840000D01*
X144272000Y-116840000D02*
X144272000Y-128016000D01*
X144272000Y-137160000D02*
X144272000Y-142748000D01*
X146304000Y-142748000D02*
X144272000Y-142748000D01*
X147828000Y-144272000D02*
X146304000Y-142748000D01*
X147828000Y-145288000D02*
X147828000Y-144272000D01*
X147828000Y-147828000D02*
X147828000Y-145288000D01*
D26*
X138938000Y-120142000D02*
X138938000Y-120396000D01*
D28*
X137144000Y-118364000D02*
X137160000Y-118364000D01*
D27*
X144272000Y-137160000D02*
X144272000Y-128016000D01*
X116332000Y-141732000D02*
X116332000Y-147320000D01*
X114808000Y-140208000D02*
X116332000Y-141732000D01*
D28*
X132096000Y-143018000D02*
X131826000Y-142748000D01*
X132096000Y-145288000D02*
X132096000Y-143018000D01*
X128524000Y-127508000D02*
X129501000Y-127508000D01*
D26*
X119380000Y-138110000D02*
X121600000Y-138110000D01*
X121600000Y-138110000D02*
X121666000Y-138176000D01*
X119380000Y-138684000D02*
X121158000Y-138684000D01*
X121158000Y-138684000D02*
X121666000Y-138176000D01*
D28*
X135144000Y-133874000D02*
X134874000Y-133604000D01*
X135144000Y-136144000D02*
X135144000Y-133874000D01*
X132842000Y-135636000D02*
X134874000Y-133604000D01*
X134636000Y-135636000D02*
X132842000Y-135636000D01*
X135144000Y-136144000D02*
X134636000Y-135636000D01*
D26*
X119380000Y-138110000D02*
X119380000Y-138684000D01*
D28*
X127547000Y-135636000D02*
X132842000Y-135636000D01*
X134366000Y-142748000D02*
X136160000Y-144542000D01*
X136160000Y-144542000D02*
X136160000Y-145288000D01*
X137414000Y-124460000D02*
X139224000Y-126270000D01*
X139224000Y-126270000D02*
X139224000Y-127000000D01*
X137414000Y-133604000D02*
X139224000Y-135414000D01*
X139224000Y-135414000D02*
X139224000Y-136144000D01*
X141192000Y-118364000D02*
X141192000Y-120110000D01*
X141192000Y-120110000D02*
X141478000Y-120396000D01*
X141192000Y-109220000D02*
X141192000Y-110966000D01*
X141192000Y-110966000D02*
X141478000Y-111252000D01*
D26*
X118430000Y-120396000D02*
X118430000Y-121666000D01*
X118430000Y-121666000D02*
X118430000Y-122394000D01*
X117348000Y-120396000D02*
X118430000Y-121478000D01*
X118430000Y-121478000D02*
X118430000Y-121666000D01*
X118430000Y-122394000D02*
X118396000Y-122428000D01*
X117348000Y-120396000D02*
X118430000Y-120396000D01*
X115062000Y-110268000D02*
X116808000Y-110268000D01*
X116808000Y-110268000D02*
X116840000Y-110236000D01*
X116840000Y-110170000D02*
X116840000Y-110236000D01*
X117348000Y-109662000D02*
X116840000Y-110170000D01*
D28*
X131826000Y-127508000D02*
X132334000Y-127000000D01*
X131611000Y-127508000D02*
X131826000Y-127508000D01*
X133350000Y-127000000D02*
X132334000Y-127000000D01*
X134112000Y-126238000D02*
X133350000Y-127000000D01*
X134112000Y-126238000D02*
X134382000Y-126238000D01*
X134874000Y-125476000D02*
X134112000Y-126238000D01*
D27*
X102616000Y-145288000D02*
X103886000Y-145288000D01*
X101600000Y-144272000D02*
X102616000Y-145288000D01*
X101600000Y-137160000D02*
X101600000Y-144272000D01*
X105156000Y-133604000D02*
X101600000Y-137160000D01*
D28*
X135144000Y-125476000D02*
X135144000Y-124730000D01*
X135144000Y-127000000D02*
X135144000Y-125476000D01*
X135144000Y-124730000D02*
X134874000Y-124460000D01*
X132334000Y-127000000D02*
X134874000Y-124460000D01*
X135144000Y-127000000D02*
X133350000Y-127000000D01*
X135144000Y-125476000D02*
X134874000Y-125476000D01*
X134382000Y-126238000D02*
X135144000Y-127000000D01*
D26*
X120330000Y-134112000D02*
X120904000Y-134112000D01*
D28*
X125476000Y-135636000D02*
X125437000Y-135636000D01*
D29*
X113870000Y-109142000D02*
X114427000Y-108585000D01*
X114427000Y-108585000D02*
X115697000Y-108585000D01*
X111760000Y-109142000D02*
X113870000Y-109142000D01*
X111760000Y-108243000D02*
X115355000Y-108243000D01*
X115355000Y-108243000D02*
X115697000Y-108585000D01*
D26*
X120396000Y-122428000D02*
X120396000Y-120462000D01*
X120396000Y-120462000D02*
X120330000Y-120396000D01*
X111760000Y-109142000D02*
X111838000Y-109142000D01*
X111760000Y-108243000D02*
X111799000Y-108243000D01*
D27*
X109220000Y-136906000D02*
X109220000Y-122936000D01*
X109220000Y-122936000D02*
X109220000Y-121412000D01*
D26*
X116840000Y-115570000D02*
X109474000Y-122936000D01*
X109474000Y-122936000D02*
X109220000Y-122936000D01*
X119126000Y-115570000D02*
X116840000Y-115570000D01*
D27*
X117348000Y-107762000D02*
X119528000Y-107762000D01*
X115697000Y-108585000D02*
X116520000Y-107762000D01*
X116520000Y-107762000D02*
X117348000Y-107762000D01*
X119888000Y-107402000D02*
X120610000Y-107402000D01*
X120610000Y-107402000D02*
X121920000Y-108712000D01*
X121920000Y-108712000D02*
X121920000Y-114808000D01*
X121920000Y-114808000D02*
X121412000Y-115316000D01*
X121412000Y-115316000D02*
X120396000Y-116332000D01*
X120396000Y-116332000D02*
X120142000Y-116586000D01*
X120142000Y-116586000D02*
X120182000Y-116626000D01*
X119528000Y-107762000D02*
X119888000Y-107402000D01*
X106426000Y-145288000D02*
X108458000Y-145288000D01*
X108458000Y-145288000D02*
X110490000Y-143256000D01*
X110490000Y-143256000D02*
X110490000Y-138176000D01*
X110490000Y-138176000D02*
X109220000Y-136906000D01*
X119126000Y-115570000D02*
X120182000Y-116626000D01*
X120182000Y-116626000D02*
X120182000Y-117856000D01*
X119528000Y-107762000D02*
X119888000Y-107402000D01*
X120330000Y-118004000D02*
X120330000Y-120396000D01*
X120182000Y-117856000D02*
X120330000Y-118004000D01*
X120690000Y-118364000D02*
X120182000Y-117856000D01*
X131572000Y-120396000D02*
X129540000Y-118364000D01*
X129540000Y-118364000D02*
X120690000Y-118364000D01*
X133858000Y-120396000D02*
X131572000Y-120396000D01*
D28*
X133858000Y-119650000D02*
X135144000Y-118364000D01*
X133858000Y-120396000D02*
X133858000Y-119650000D01*
D27*
X118298000Y-112202000D02*
X112842000Y-112202000D01*
X108458000Y-141478000D02*
X107188000Y-142748000D01*
X112842000Y-112202000D02*
X107188000Y-117856000D01*
X107188000Y-117856000D02*
X107188000Y-137668000D01*
X107188000Y-137668000D02*
X108458000Y-138938000D01*
X108458000Y-138938000D02*
X108458000Y-141478000D01*
X107188000Y-142748000D02*
X106426000Y-142748000D01*
X118298000Y-112202000D02*
X119888000Y-110612000D01*
X119888000Y-110612000D02*
X119888000Y-110022000D01*
D28*
X133858000Y-110506000D02*
X135144000Y-109220000D01*
X133858000Y-111252000D02*
X133858000Y-110506000D01*
D26*
X111252000Y-117563000D02*
X113206000Y-117563000D01*
X113206000Y-117563000D02*
X113284000Y-117641000D01*
D27*
X112776000Y-144780000D02*
X112776000Y-137668000D01*
X106426000Y-147828000D02*
X109728000Y-147828000D01*
X109728000Y-147828000D02*
X112776000Y-144780000D01*
X111252000Y-124166000D02*
X117562000Y-117856000D01*
X111252000Y-136144000D02*
X111252000Y-124166000D01*
X112776000Y-137668000D02*
X111252000Y-136144000D01*
X117282000Y-117576000D02*
X117562000Y-117856000D01*
X117282000Y-117324002D02*
X117282000Y-117576000D01*
D26*
X121666000Y-136176000D02*
X121380000Y-136176000D01*
X121380000Y-136176000D02*
X120904000Y-136652000D01*
X119380000Y-136210000D02*
X120462000Y-136210000D01*
X120462000Y-136210000D02*
X120904000Y-136652000D01*
X118430000Y-135260000D02*
X119380000Y-136210000D01*
X118430000Y-134112000D02*
X118430000Y-135260000D01*
D29*
G36*
X149175000Y-144340991D02*
X149165188Y-144319621D01*
X148692818Y-143881615D01*
X148210944Y-143682025D01*
X147955000Y-143801164D01*
X147955000Y-145161000D01*
X147975000Y-145161000D01*
X147975000Y-145415000D01*
X147955000Y-145415000D01*
X147955000Y-147701000D01*
X147975000Y-147701000D01*
X147975000Y-147955000D01*
X147955000Y-147955000D01*
X147955000Y-147975000D01*
X147701000Y-147975000D01*
X147701000Y-147955000D01*
X147681000Y-147955000D01*
X147681000Y-147701000D01*
X147701000Y-147701000D01*
X147701000Y-145415000D01*
X147681000Y-145415000D01*
X147681000Y-145161000D01*
X147701000Y-145161000D01*
X147701000Y-143801164D01*
X147445056Y-143682025D01*
X146963182Y-143881615D01*
X146865602Y-143972097D01*
X146768090Y-143820559D01*
X146555890Y-143675569D01*
X146304000Y-143624560D01*
X144272000Y-143624560D01*
X144036683Y-143668838D01*
X143820559Y-143807910D01*
X143675569Y-144020110D01*
X143624560Y-144272000D01*
X143624560Y-146304000D01*
X143668838Y-146539317D01*
X143678993Y-146555099D01*
X143675569Y-146560110D01*
X143624560Y-146812000D01*
X143624560Y-148844000D01*
X143668838Y-149079317D01*
X143730408Y-149175000D01*
X126619000Y-149175000D01*
X126619000Y-143051991D01*
X127750735Y-143051991D01*
X127983932Y-143616371D01*
X128415357Y-144048551D01*
X128979330Y-144282733D01*
X129589991Y-144283265D01*
X130154371Y-144050068D01*
X130556323Y-143648818D01*
X130953000Y-144046190D01*
X130953000Y-144641075D01*
X130948560Y-144663000D01*
X130948560Y-145913000D01*
X130992838Y-146148317D01*
X131131910Y-146364441D01*
X131344110Y-146509431D01*
X131596000Y-146560440D01*
X132596000Y-146560440D01*
X132831317Y-146516162D01*
X133047441Y-146377090D01*
X133093969Y-146308994D01*
X133236302Y-146451327D01*
X133469691Y-146548000D01*
X133810250Y-146548000D01*
X133969000Y-146389250D01*
X133969000Y-145415000D01*
X133949000Y-145415000D01*
X133949000Y-145161000D01*
X133969000Y-145161000D01*
X133969000Y-145141000D01*
X134223000Y-145141000D01*
X134223000Y-145161000D01*
X134243000Y-145161000D01*
X134243000Y-145415000D01*
X134223000Y-145415000D01*
X134223000Y-146389250D01*
X134381750Y-146548000D01*
X134722309Y-146548000D01*
X134955698Y-146451327D01*
X135134327Y-146272699D01*
X135135325Y-146270289D01*
X135195910Y-146364441D01*
X135408110Y-146509431D01*
X135660000Y-146560440D01*
X136660000Y-146560440D01*
X136895317Y-146516162D01*
X137111441Y-146377090D01*
X137157969Y-146308994D01*
X137300302Y-146451327D01*
X137533691Y-146548000D01*
X137874250Y-146548000D01*
X138033000Y-146389250D01*
X138033000Y-145415000D01*
X138287000Y-145415000D01*
X138287000Y-146389250D01*
X138445750Y-146548000D01*
X138786309Y-146548000D01*
X139019698Y-146451327D01*
X139198327Y-146272699D01*
X139295000Y-146039310D01*
X139295000Y-145573750D01*
X139136250Y-145415000D01*
X138287000Y-145415000D01*
X138033000Y-145415000D01*
X138013000Y-145415000D01*
X138013000Y-145161000D01*
X138033000Y-145161000D01*
X138033000Y-144186750D01*
X138287000Y-144186750D01*
X138287000Y-145161000D01*
X139136250Y-145161000D01*
X139295000Y-145002250D01*
X139295000Y-144536690D01*
X139198327Y-144303301D01*
X139019698Y-144124673D01*
X138786309Y-144028000D01*
X138445750Y-144028000D01*
X138287000Y-144186750D01*
X138033000Y-144186750D01*
X137874250Y-144028000D01*
X137739230Y-144028000D01*
X137806554Y-143828159D01*
X136906000Y-142927605D01*
X136891858Y-142941748D01*
X136712253Y-142762143D01*
X136726395Y-142748000D01*
X137085605Y-142748000D01*
X137986159Y-143648554D01*
X138242643Y-143562148D01*
X138452458Y-142988664D01*
X138426839Y-142378540D01*
X138242643Y-141933852D01*
X137986159Y-141847446D01*
X137085605Y-142748000D01*
X136726395Y-142748000D01*
X135825841Y-141847446D01*
X135675673Y-141898035D01*
X135668068Y-141879629D01*
X135456650Y-141667841D01*
X136005446Y-141667841D01*
X136906000Y-142568395D01*
X137806554Y-141667841D01*
X137720148Y-141411357D01*
X137146664Y-141201542D01*
X136536540Y-141227161D01*
X136091852Y-141411357D01*
X136005446Y-141667841D01*
X135456650Y-141667841D01*
X135236643Y-141447449D01*
X134672670Y-141213267D01*
X134062009Y-141212735D01*
X133497629Y-141445932D01*
X133095677Y-141847182D01*
X132696643Y-141447449D01*
X132132670Y-141213267D01*
X131522009Y-141212735D01*
X130957629Y-141445932D01*
X130555677Y-141847182D01*
X130156643Y-141447449D01*
X129592670Y-141213267D01*
X128982009Y-141212735D01*
X128417629Y-141445932D01*
X127985449Y-141877357D01*
X127751267Y-142441330D01*
X127750735Y-143051991D01*
X126619000Y-143051991D01*
X126619000Y-139827000D01*
X129286000Y-139827000D01*
X129335410Y-139816994D01*
X129377035Y-139788553D01*
X129404315Y-139746159D01*
X129413000Y-139700000D01*
X129413000Y-136779000D01*
X133998442Y-136779000D01*
X134040838Y-137004317D01*
X134179910Y-137220441D01*
X134392110Y-137365431D01*
X134644000Y-137416440D01*
X135644000Y-137416440D01*
X135879317Y-137372162D01*
X136095441Y-137233090D01*
X136141969Y-137164994D01*
X136284302Y-137307327D01*
X136517691Y-137404000D01*
X136858250Y-137404000D01*
X137017000Y-137245250D01*
X137017000Y-136271000D01*
X136997000Y-136271000D01*
X136997000Y-136017000D01*
X137017000Y-136017000D01*
X137017000Y-135997000D01*
X137271000Y-135997000D01*
X137271000Y-136017000D01*
X137291000Y-136017000D01*
X137291000Y-136271000D01*
X137271000Y-136271000D01*
X137271000Y-137245250D01*
X137429750Y-137404000D01*
X137770309Y-137404000D01*
X138003698Y-137307327D01*
X138182327Y-137128699D01*
X138189591Y-137111162D01*
X138259910Y-137220441D01*
X138472110Y-137365431D01*
X138724000Y-137416440D01*
X139724000Y-137416440D01*
X139959317Y-137372162D01*
X140175441Y-137233090D01*
X140221969Y-137164994D01*
X140364302Y-137307327D01*
X140597691Y-137404000D01*
X140938250Y-137404000D01*
X141097000Y-137245250D01*
X141097000Y-136271000D01*
X141351000Y-136271000D01*
X141351000Y-137245250D01*
X141509750Y-137404000D01*
X141850309Y-137404000D01*
X142083698Y-137307327D01*
X142262327Y-137128699D01*
X142359000Y-136895310D01*
X142359000Y-136429750D01*
X142200250Y-136271000D01*
X141351000Y-136271000D01*
X141097000Y-136271000D01*
X141077000Y-136271000D01*
X141077000Y-136017000D01*
X141097000Y-136017000D01*
X141097000Y-135042750D01*
X141351000Y-135042750D01*
X141351000Y-136017000D01*
X142200250Y-136017000D01*
X142359000Y-135858250D01*
X142359000Y-135392690D01*
X142262327Y-135159301D01*
X142083698Y-134980673D01*
X141850309Y-134884000D01*
X141509750Y-134884000D01*
X141351000Y-135042750D01*
X141097000Y-135042750D01*
X140938250Y-134884000D01*
X140787230Y-134884000D01*
X140854554Y-134684159D01*
X139954000Y-133783605D01*
X139939858Y-133797748D01*
X139760253Y-133618143D01*
X139774395Y-133604000D01*
X140133605Y-133604000D01*
X141034159Y-134504554D01*
X141290643Y-134418148D01*
X141500458Y-133844664D01*
X141474839Y-133234540D01*
X141290643Y-132789852D01*
X141034159Y-132703446D01*
X140133605Y-133604000D01*
X139774395Y-133604000D01*
X138873841Y-132703446D01*
X138723673Y-132754035D01*
X138716068Y-132735629D01*
X138504650Y-132523841D01*
X139053446Y-132523841D01*
X139954000Y-133424395D01*
X140854554Y-132523841D01*
X140768148Y-132267357D01*
X140194664Y-132057542D01*
X139584540Y-132083161D01*
X139139852Y-132267357D01*
X139053446Y-132523841D01*
X138504650Y-132523841D01*
X138284643Y-132303449D01*
X137720670Y-132069267D01*
X137110009Y-132068735D01*
X136545629Y-132301932D01*
X136143677Y-132703182D01*
X135744643Y-132303449D01*
X135180670Y-132069267D01*
X134570009Y-132068735D01*
X134005629Y-132301932D01*
X133603677Y-132703182D01*
X133204643Y-132303449D01*
X132640670Y-132069267D01*
X132030009Y-132068735D01*
X131465629Y-132301932D01*
X131033449Y-132733357D01*
X130799267Y-133297330D01*
X130798735Y-133907991D01*
X131031932Y-134472371D01*
X131052525Y-134493000D01*
X129413000Y-134493000D01*
X129413000Y-128651000D01*
X129501000Y-128651000D01*
X129938407Y-128563994D01*
X130309223Y-128316223D01*
X130556000Y-127946895D01*
X130802777Y-128316223D01*
X131173593Y-128563994D01*
X131611000Y-128651000D01*
X131826000Y-128651000D01*
X132263407Y-128563994D01*
X132634223Y-128316223D01*
X132807446Y-128143000D01*
X134277322Y-128143000D01*
X134392110Y-128221431D01*
X134644000Y-128272440D01*
X135644000Y-128272440D01*
X135879317Y-128228162D01*
X136095441Y-128089090D01*
X136141969Y-128020994D01*
X136284302Y-128163327D01*
X136517691Y-128260000D01*
X136858250Y-128260000D01*
X137017000Y-128101250D01*
X137017000Y-127127000D01*
X136997000Y-127127000D01*
X136997000Y-126873000D01*
X137017000Y-126873000D01*
X137017000Y-126853000D01*
X137271000Y-126853000D01*
X137271000Y-126873000D01*
X137291000Y-126873000D01*
X137291000Y-127127000D01*
X137271000Y-127127000D01*
X137271000Y-128101250D01*
X137429750Y-128260000D01*
X137770309Y-128260000D01*
X138003698Y-128163327D01*
X138182327Y-127984699D01*
X138189591Y-127967162D01*
X138259910Y-128076441D01*
X138472110Y-128221431D01*
X138724000Y-128272440D01*
X139724000Y-128272440D01*
X139959317Y-128228162D01*
X140175441Y-128089090D01*
X140221969Y-128020994D01*
X140364302Y-128163327D01*
X140597691Y-128260000D01*
X140938250Y-128260000D01*
X141097000Y-128101250D01*
X141097000Y-127127000D01*
X141351000Y-127127000D01*
X141351000Y-128101250D01*
X141509750Y-128260000D01*
X141850309Y-128260000D01*
X142083698Y-128163327D01*
X142262327Y-127984699D01*
X142359000Y-127751310D01*
X142359000Y-127285750D01*
X142200250Y-127127000D01*
X141351000Y-127127000D01*
X141097000Y-127127000D01*
X141077000Y-127127000D01*
X141077000Y-126873000D01*
X141097000Y-126873000D01*
X141097000Y-125898750D01*
X141351000Y-125898750D01*
X141351000Y-126873000D01*
X142200250Y-126873000D01*
X142359000Y-126714250D01*
X142359000Y-126248690D01*
X142262327Y-126015301D01*
X142083698Y-125836673D01*
X141850309Y-125740000D01*
X141509750Y-125740000D01*
X141351000Y-125898750D01*
X141097000Y-125898750D01*
X140938250Y-125740000D01*
X140787230Y-125740000D01*
X140854554Y-125540159D01*
X139954000Y-124639605D01*
X139939858Y-124653748D01*
X139760253Y-124474143D01*
X139774395Y-124460000D01*
X140133605Y-124460000D01*
X141034159Y-125360554D01*
X141290643Y-125274148D01*
X141500458Y-124700664D01*
X141474839Y-124090540D01*
X141290643Y-123645852D01*
X141034159Y-123559446D01*
X140133605Y-124460000D01*
X139774395Y-124460000D01*
X138873841Y-123559446D01*
X138723673Y-123610035D01*
X138716068Y-123591629D01*
X138504650Y-123379841D01*
X139053446Y-123379841D01*
X139954000Y-124280395D01*
X140854554Y-123379841D01*
X140768148Y-123123357D01*
X140194664Y-122913542D01*
X139584540Y-122939161D01*
X139139852Y-123123357D01*
X139053446Y-123379841D01*
X138504650Y-123379841D01*
X138284643Y-123159449D01*
X137720670Y-122925267D01*
X137110009Y-122924735D01*
X136545629Y-123157932D01*
X136143677Y-123559182D01*
X135744643Y-123159449D01*
X135180670Y-122925267D01*
X134570009Y-122924735D01*
X134005629Y-123157932D01*
X133603677Y-123559182D01*
X133204643Y-123159449D01*
X132640670Y-122925267D01*
X132030009Y-122924735D01*
X131465629Y-123157932D01*
X131033449Y-123589357D01*
X130799267Y-124153330D01*
X130798735Y-124763991D01*
X131031932Y-125328371D01*
X131463357Y-125760551D01*
X131812165Y-125905389D01*
X131288381Y-126429173D01*
X131173593Y-126452006D01*
X130802777Y-126699777D01*
X130556000Y-127069105D01*
X130309223Y-126699777D01*
X129938407Y-126452006D01*
X129501000Y-126365000D01*
X129413000Y-126365000D01*
X129413000Y-122682000D01*
X129402994Y-122632590D01*
X129374553Y-122590965D01*
X129332159Y-122563685D01*
X129286000Y-122555000D01*
X124079000Y-122555000D01*
X124079000Y-119749000D01*
X127384584Y-119749000D01*
X127243267Y-120089330D01*
X127242735Y-120699991D01*
X127475932Y-121264371D01*
X127907357Y-121696551D01*
X128471330Y-121930733D01*
X129081991Y-121931265D01*
X129646371Y-121698068D01*
X130078551Y-121266643D01*
X130197499Y-120980185D01*
X130592657Y-121375343D01*
X131041983Y-121675573D01*
X131572000Y-121781000D01*
X133190733Y-121781000D01*
X133551330Y-121930733D01*
X134161991Y-121931265D01*
X134726371Y-121698068D01*
X134948668Y-121476159D01*
X138037446Y-121476159D01*
X138123852Y-121732643D01*
X138697336Y-121942458D01*
X139307460Y-121916839D01*
X139752148Y-121732643D01*
X139838554Y-121476159D01*
X138938000Y-120575605D01*
X138037446Y-121476159D01*
X134948668Y-121476159D01*
X135158551Y-121266643D01*
X135392733Y-120702670D01*
X135393265Y-120092009D01*
X135287765Y-119836681D01*
X135488006Y-119636440D01*
X135644000Y-119636440D01*
X135879317Y-119592162D01*
X136095441Y-119453090D01*
X136141969Y-119384994D01*
X136284302Y-119527327D01*
X136517691Y-119624000D01*
X136858250Y-119624000D01*
X137017000Y-119465250D01*
X137017000Y-118491000D01*
X137271000Y-118491000D01*
X137271000Y-119465250D01*
X137429750Y-119624000D01*
X137585937Y-119624000D01*
X137391542Y-120155336D01*
X137417161Y-120765460D01*
X137601357Y-121210148D01*
X137857841Y-121296554D01*
X138758395Y-120396000D01*
X138744253Y-120381858D01*
X138923858Y-120202253D01*
X138938000Y-120216395D01*
X138952143Y-120202253D01*
X139131748Y-120381858D01*
X139117605Y-120396000D01*
X140018159Y-121296554D01*
X140168327Y-121245965D01*
X140175932Y-121264371D01*
X140607357Y-121696551D01*
X141171330Y-121930733D01*
X141781991Y-121931265D01*
X142346371Y-121698068D01*
X142778551Y-121266643D01*
X143012733Y-120702670D01*
X143013265Y-120092009D01*
X142780068Y-119527629D01*
X142348643Y-119095449D01*
X142335000Y-119089784D01*
X142335000Y-119010925D01*
X142339440Y-118989000D01*
X142339440Y-117739000D01*
X142295162Y-117503683D01*
X142156090Y-117287559D01*
X141943890Y-117142569D01*
X141692000Y-117091560D01*
X140692000Y-117091560D01*
X140456683Y-117135838D01*
X140240559Y-117274910D01*
X140194031Y-117343006D01*
X140051698Y-117200673D01*
X139818309Y-117104000D01*
X139477750Y-117104000D01*
X139319000Y-117262750D01*
X139319000Y-118237000D01*
X139339000Y-118237000D01*
X139339000Y-118491000D01*
X139319000Y-118491000D01*
X139319000Y-118511000D01*
X139065000Y-118511000D01*
X139065000Y-118491000D01*
X138215750Y-118491000D01*
X138168000Y-118538750D01*
X138120250Y-118491000D01*
X137271000Y-118491000D01*
X137017000Y-118491000D01*
X136997000Y-118491000D01*
X136997000Y-118237000D01*
X137017000Y-118237000D01*
X137017000Y-117262750D01*
X137271000Y-117262750D01*
X137271000Y-118237000D01*
X138120250Y-118237000D01*
X138168000Y-118189250D01*
X138215750Y-118237000D01*
X139065000Y-118237000D01*
X139065000Y-117262750D01*
X138906250Y-117104000D01*
X138565691Y-117104000D01*
X138332302Y-117200673D01*
X138168000Y-117364974D01*
X138003698Y-117200673D01*
X137770309Y-117104000D01*
X137429750Y-117104000D01*
X137271000Y-117262750D01*
X137017000Y-117262750D01*
X136858250Y-117104000D01*
X136517691Y-117104000D01*
X136284302Y-117200673D01*
X136143064Y-117341910D01*
X136108090Y-117287559D01*
X135895890Y-117142569D01*
X135644000Y-117091560D01*
X134644000Y-117091560D01*
X134408683Y-117135838D01*
X134192559Y-117274910D01*
X134047569Y-117487110D01*
X133996560Y-117739000D01*
X133996560Y-117894994D01*
X133049777Y-118841777D01*
X132936706Y-119011000D01*
X132145686Y-119011000D01*
X130519343Y-117384657D01*
X130511327Y-117379301D01*
X130070017Y-117084427D01*
X129540000Y-116979000D01*
X124079000Y-116979000D01*
X124079000Y-111555991D01*
X127242735Y-111555991D01*
X127475932Y-112120371D01*
X127907357Y-112552551D01*
X128471330Y-112786733D01*
X129081991Y-112787265D01*
X129646371Y-112554068D01*
X130078551Y-112122643D01*
X130312733Y-111558670D01*
X130312735Y-111555991D01*
X132322735Y-111555991D01*
X132555932Y-112120371D01*
X132987357Y-112552551D01*
X133551330Y-112786733D01*
X134161991Y-112787265D01*
X134726371Y-112554068D01*
X134948668Y-112332159D01*
X138037446Y-112332159D01*
X138123852Y-112588643D01*
X138697336Y-112798458D01*
X139307460Y-112772839D01*
X139752148Y-112588643D01*
X139838554Y-112332159D01*
X138938000Y-111431605D01*
X138037446Y-112332159D01*
X134948668Y-112332159D01*
X135158551Y-112122643D01*
X135392733Y-111558670D01*
X135393265Y-110948009D01*
X135287765Y-110692681D01*
X135488006Y-110492440D01*
X135644000Y-110492440D01*
X135879317Y-110448162D01*
X136095441Y-110309090D01*
X136141969Y-110240994D01*
X136284302Y-110383327D01*
X136517691Y-110480000D01*
X136858250Y-110480000D01*
X137017000Y-110321250D01*
X137017000Y-109347000D01*
X137271000Y-109347000D01*
X137271000Y-110321250D01*
X137429750Y-110480000D01*
X137585937Y-110480000D01*
X137391542Y-111011336D01*
X137417161Y-111621460D01*
X137601357Y-112066148D01*
X137857841Y-112152554D01*
X138758395Y-111252000D01*
X138744253Y-111237858D01*
X138923858Y-111058253D01*
X138938000Y-111072395D01*
X138952143Y-111058253D01*
X139131748Y-111237858D01*
X139117605Y-111252000D01*
X140018159Y-112152554D01*
X140168327Y-112101965D01*
X140175932Y-112120371D01*
X140607357Y-112552551D01*
X141171330Y-112786733D01*
X141781991Y-112787265D01*
X142346371Y-112554068D01*
X142778551Y-112122643D01*
X143012733Y-111558670D01*
X143013265Y-110948009D01*
X142780068Y-110383629D01*
X142348643Y-109951449D01*
X142335000Y-109945784D01*
X142335000Y-109866925D01*
X142339440Y-109845000D01*
X142339440Y-108595000D01*
X142295162Y-108359683D01*
X142156090Y-108143559D01*
X141943890Y-107998569D01*
X141692000Y-107947560D01*
X140692000Y-107947560D01*
X140456683Y-107991838D01*
X140240559Y-108130910D01*
X140194031Y-108199006D01*
X140051698Y-108056673D01*
X139818309Y-107960000D01*
X139477750Y-107960000D01*
X139319000Y-108118750D01*
X139319000Y-109093000D01*
X139339000Y-109093000D01*
X139339000Y-109347000D01*
X139319000Y-109347000D01*
X139319000Y-109367000D01*
X139065000Y-109367000D01*
X139065000Y-109347000D01*
X138215750Y-109347000D01*
X138168000Y-109394750D01*
X138120250Y-109347000D01*
X137271000Y-109347000D01*
X137017000Y-109347000D01*
X136997000Y-109347000D01*
X136997000Y-109093000D01*
X137017000Y-109093000D01*
X137017000Y-108118750D01*
X137271000Y-108118750D01*
X137271000Y-109093000D01*
X138120250Y-109093000D01*
X138168000Y-109045250D01*
X138215750Y-109093000D01*
X139065000Y-109093000D01*
X139065000Y-108118750D01*
X138906250Y-107960000D01*
X138565691Y-107960000D01*
X138332302Y-108056673D01*
X138168000Y-108220974D01*
X138003698Y-108056673D01*
X137770309Y-107960000D01*
X137429750Y-107960000D01*
X137271000Y-108118750D01*
X137017000Y-108118750D01*
X136858250Y-107960000D01*
X136517691Y-107960000D01*
X136284302Y-108056673D01*
X136143064Y-108197910D01*
X136108090Y-108143559D01*
X135895890Y-107998569D01*
X135644000Y-107947560D01*
X134644000Y-107947560D01*
X134408683Y-107991838D01*
X134192559Y-108130910D01*
X134047569Y-108343110D01*
X133996560Y-108595000D01*
X133996560Y-108750994D01*
X133049777Y-109697777D01*
X132802006Y-110068593D01*
X132784971Y-110154232D01*
X132557449Y-110381357D01*
X132323267Y-110945330D01*
X132322735Y-111555991D01*
X130312735Y-111555991D01*
X130313265Y-110948009D01*
X130080068Y-110383629D01*
X129648643Y-109951449D01*
X129084670Y-109717267D01*
X128474009Y-109716735D01*
X127909629Y-109949932D01*
X127477449Y-110381357D01*
X127243267Y-110945330D01*
X127242735Y-111555991D01*
X124079000Y-111555991D01*
X124079000Y-100761000D01*
X149175000Y-100761000D01*
X149175000Y-144340991D01*
X149175000Y-144340991D01*
G37*
X149175000Y-144340991D02*
X149165188Y-144319621D01*
X148692818Y-143881615D01*
X148210944Y-143682025D01*
X147955000Y-143801164D01*
X147955000Y-145161000D01*
X147975000Y-145161000D01*
X147975000Y-145415000D01*
X147955000Y-145415000D01*
X147955000Y-147701000D01*
X147975000Y-147701000D01*
X147975000Y-147955000D01*
X147955000Y-147955000D01*
X147955000Y-147975000D01*
X147701000Y-147975000D01*
X147701000Y-147955000D01*
X147681000Y-147955000D01*
X147681000Y-147701000D01*
X147701000Y-147701000D01*
X147701000Y-145415000D01*
X147681000Y-145415000D01*
X147681000Y-145161000D01*
X147701000Y-145161000D01*
X147701000Y-143801164D01*
X147445056Y-143682025D01*
X146963182Y-143881615D01*
X146865602Y-143972097D01*
X146768090Y-143820559D01*
X146555890Y-143675569D01*
X146304000Y-143624560D01*
X144272000Y-143624560D01*
X144036683Y-143668838D01*
X143820559Y-143807910D01*
X143675569Y-144020110D01*
X143624560Y-144272000D01*
X143624560Y-146304000D01*
X143668838Y-146539317D01*
X143678993Y-146555099D01*
X143675569Y-146560110D01*
X143624560Y-146812000D01*
X143624560Y-148844000D01*
X143668838Y-149079317D01*
X143730408Y-149175000D01*
X126619000Y-149175000D01*
X126619000Y-143051991D01*
X127750735Y-143051991D01*
X127983932Y-143616371D01*
X128415357Y-144048551D01*
X128979330Y-144282733D01*
X129589991Y-144283265D01*
X130154371Y-144050068D01*
X130556323Y-143648818D01*
X130953000Y-144046190D01*
X130953000Y-144641075D01*
X130948560Y-144663000D01*
X130948560Y-145913000D01*
X130992838Y-146148317D01*
X131131910Y-146364441D01*
X131344110Y-146509431D01*
X131596000Y-146560440D01*
X132596000Y-146560440D01*
X132831317Y-146516162D01*
X133047441Y-146377090D01*
X133093969Y-146308994D01*
X133236302Y-146451327D01*
X133469691Y-146548000D01*
X133810250Y-146548000D01*
X133969000Y-146389250D01*
X133969000Y-145415000D01*
X133949000Y-145415000D01*
X133949000Y-145161000D01*
X133969000Y-145161000D01*
X133969000Y-145141000D01*
X134223000Y-145141000D01*
X134223000Y-145161000D01*
X134243000Y-145161000D01*
X134243000Y-145415000D01*
X134223000Y-145415000D01*
X134223000Y-146389250D01*
X134381750Y-146548000D01*
X134722309Y-146548000D01*
X134955698Y-146451327D01*
X135134327Y-146272699D01*
X135135325Y-146270289D01*
X135195910Y-146364441D01*
X135408110Y-146509431D01*
X135660000Y-146560440D01*
X136660000Y-146560440D01*
X136895317Y-146516162D01*
X137111441Y-146377090D01*
X137157969Y-146308994D01*
X137300302Y-146451327D01*
X137533691Y-146548000D01*
X137874250Y-146548000D01*
X138033000Y-146389250D01*
X138033000Y-145415000D01*
X138287000Y-145415000D01*
X138287000Y-146389250D01*
X138445750Y-146548000D01*
X138786309Y-146548000D01*
X139019698Y-146451327D01*
X139198327Y-146272699D01*
X139295000Y-146039310D01*
X139295000Y-145573750D01*
X139136250Y-145415000D01*
X138287000Y-145415000D01*
X138033000Y-145415000D01*
X138013000Y-145415000D01*
X138013000Y-145161000D01*
X138033000Y-145161000D01*
X138033000Y-144186750D01*
X138287000Y-144186750D01*
X138287000Y-145161000D01*
X139136250Y-145161000D01*
X139295000Y-145002250D01*
X139295000Y-144536690D01*
X139198327Y-144303301D01*
X139019698Y-144124673D01*
X138786309Y-144028000D01*
X138445750Y-144028000D01*
X138287000Y-144186750D01*
X138033000Y-144186750D01*
X137874250Y-144028000D01*
X137739230Y-144028000D01*
X137806554Y-143828159D01*
X136906000Y-142927605D01*
X136891858Y-142941748D01*
X136712253Y-142762143D01*
X136726395Y-142748000D01*
X137085605Y-142748000D01*
X137986159Y-143648554D01*
X138242643Y-143562148D01*
X138452458Y-142988664D01*
X138426839Y-142378540D01*
X138242643Y-141933852D01*
X137986159Y-141847446D01*
X137085605Y-142748000D01*
X136726395Y-142748000D01*
X135825841Y-141847446D01*
X135675673Y-141898035D01*
X135668068Y-141879629D01*
X135456650Y-141667841D01*
X136005446Y-141667841D01*
X136906000Y-142568395D01*
X137806554Y-141667841D01*
X137720148Y-141411357D01*
X137146664Y-141201542D01*
X136536540Y-141227161D01*
X136091852Y-141411357D01*
X136005446Y-141667841D01*
X135456650Y-141667841D01*
X135236643Y-141447449D01*
X134672670Y-141213267D01*
X134062009Y-141212735D01*
X133497629Y-141445932D01*
X133095677Y-141847182D01*
X132696643Y-141447449D01*
X132132670Y-141213267D01*
X131522009Y-141212735D01*
X130957629Y-141445932D01*
X130555677Y-141847182D01*
X130156643Y-141447449D01*
X129592670Y-141213267D01*
X128982009Y-141212735D01*
X128417629Y-141445932D01*
X127985449Y-141877357D01*
X127751267Y-142441330D01*
X127750735Y-143051991D01*
X126619000Y-143051991D01*
X126619000Y-139827000D01*
X129286000Y-139827000D01*
X129335410Y-139816994D01*
X129377035Y-139788553D01*
X129404315Y-139746159D01*
X129413000Y-139700000D01*
X129413000Y-136779000D01*
X133998442Y-136779000D01*
X134040838Y-137004317D01*
X134179910Y-137220441D01*
X134392110Y-137365431D01*
X134644000Y-137416440D01*
X135644000Y-137416440D01*
X135879317Y-137372162D01*
X136095441Y-137233090D01*
X136141969Y-137164994D01*
X136284302Y-137307327D01*
X136517691Y-137404000D01*
X136858250Y-137404000D01*
X137017000Y-137245250D01*
X137017000Y-136271000D01*
X136997000Y-136271000D01*
X136997000Y-136017000D01*
X137017000Y-136017000D01*
X137017000Y-135997000D01*
X137271000Y-135997000D01*
X137271000Y-136017000D01*
X137291000Y-136017000D01*
X137291000Y-136271000D01*
X137271000Y-136271000D01*
X137271000Y-137245250D01*
X137429750Y-137404000D01*
X137770309Y-137404000D01*
X138003698Y-137307327D01*
X138182327Y-137128699D01*
X138189591Y-137111162D01*
X138259910Y-137220441D01*
X138472110Y-137365431D01*
X138724000Y-137416440D01*
X139724000Y-137416440D01*
X139959317Y-137372162D01*
X140175441Y-137233090D01*
X140221969Y-137164994D01*
X140364302Y-137307327D01*
X140597691Y-137404000D01*
X140938250Y-137404000D01*
X141097000Y-137245250D01*
X141097000Y-136271000D01*
X141351000Y-136271000D01*
X141351000Y-137245250D01*
X141509750Y-137404000D01*
X141850309Y-137404000D01*
X142083698Y-137307327D01*
X142262327Y-137128699D01*
X142359000Y-136895310D01*
X142359000Y-136429750D01*
X142200250Y-136271000D01*
X141351000Y-136271000D01*
X141097000Y-136271000D01*
X141077000Y-136271000D01*
X141077000Y-136017000D01*
X141097000Y-136017000D01*
X141097000Y-135042750D01*
X141351000Y-135042750D01*
X141351000Y-136017000D01*
X142200250Y-136017000D01*
X142359000Y-135858250D01*
X142359000Y-135392690D01*
X142262327Y-135159301D01*
X142083698Y-134980673D01*
X141850309Y-134884000D01*
X141509750Y-134884000D01*
X141351000Y-135042750D01*
X141097000Y-135042750D01*
X140938250Y-134884000D01*
X140787230Y-134884000D01*
X140854554Y-134684159D01*
X139954000Y-133783605D01*
X139939858Y-133797748D01*
X139760253Y-133618143D01*
X139774395Y-133604000D01*
X140133605Y-133604000D01*
X141034159Y-134504554D01*
X141290643Y-134418148D01*
X141500458Y-133844664D01*
X141474839Y-133234540D01*
X141290643Y-132789852D01*
X141034159Y-132703446D01*
X140133605Y-133604000D01*
X139774395Y-133604000D01*
X138873841Y-132703446D01*
X138723673Y-132754035D01*
X138716068Y-132735629D01*
X138504650Y-132523841D01*
X139053446Y-132523841D01*
X139954000Y-133424395D01*
X140854554Y-132523841D01*
X140768148Y-132267357D01*
X140194664Y-132057542D01*
X139584540Y-132083161D01*
X139139852Y-132267357D01*
X139053446Y-132523841D01*
X138504650Y-132523841D01*
X138284643Y-132303449D01*
X137720670Y-132069267D01*
X137110009Y-132068735D01*
X136545629Y-132301932D01*
X136143677Y-132703182D01*
X135744643Y-132303449D01*
X135180670Y-132069267D01*
X134570009Y-132068735D01*
X134005629Y-132301932D01*
X133603677Y-132703182D01*
X133204643Y-132303449D01*
X132640670Y-132069267D01*
X132030009Y-132068735D01*
X131465629Y-132301932D01*
X131033449Y-132733357D01*
X130799267Y-133297330D01*
X130798735Y-133907991D01*
X131031932Y-134472371D01*
X131052525Y-134493000D01*
X129413000Y-134493000D01*
X129413000Y-128651000D01*
X129501000Y-128651000D01*
X129938407Y-128563994D01*
X130309223Y-128316223D01*
X130556000Y-127946895D01*
X130802777Y-128316223D01*
X131173593Y-128563994D01*
X131611000Y-128651000D01*
X131826000Y-128651000D01*
X132263407Y-128563994D01*
X132634223Y-128316223D01*
X132807446Y-128143000D01*
X134277322Y-128143000D01*
X134392110Y-128221431D01*
X134644000Y-128272440D01*
X135644000Y-128272440D01*
X135879317Y-128228162D01*
X136095441Y-128089090D01*
X136141969Y-128020994D01*
X136284302Y-128163327D01*
X136517691Y-128260000D01*
X136858250Y-128260000D01*
X137017000Y-128101250D01*
X137017000Y-127127000D01*
X136997000Y-127127000D01*
X136997000Y-126873000D01*
X137017000Y-126873000D01*
X137017000Y-126853000D01*
X137271000Y-126853000D01*
X137271000Y-126873000D01*
X137291000Y-126873000D01*
X137291000Y-127127000D01*
X137271000Y-127127000D01*
X137271000Y-128101250D01*
X137429750Y-128260000D01*
X137770309Y-128260000D01*
X138003698Y-128163327D01*
X138182327Y-127984699D01*
X138189591Y-127967162D01*
X138259910Y-128076441D01*
X138472110Y-128221431D01*
X138724000Y-128272440D01*
X139724000Y-128272440D01*
X139959317Y-128228162D01*
X140175441Y-128089090D01*
X140221969Y-128020994D01*
X140364302Y-128163327D01*
X140597691Y-128260000D01*
X140938250Y-128260000D01*
X141097000Y-128101250D01*
X141097000Y-127127000D01*
X141351000Y-127127000D01*
X141351000Y-128101250D01*
X141509750Y-128260000D01*
X141850309Y-128260000D01*
X142083698Y-128163327D01*
X142262327Y-127984699D01*
X142359000Y-127751310D01*
X142359000Y-127285750D01*
X142200250Y-127127000D01*
X141351000Y-127127000D01*
X141097000Y-127127000D01*
X141077000Y-127127000D01*
X141077000Y-126873000D01*
X141097000Y-126873000D01*
X141097000Y-125898750D01*
X141351000Y-125898750D01*
X141351000Y-126873000D01*
X142200250Y-126873000D01*
X142359000Y-126714250D01*
X142359000Y-126248690D01*
X142262327Y-126015301D01*
X142083698Y-125836673D01*
X141850309Y-125740000D01*
X141509750Y-125740000D01*
X141351000Y-125898750D01*
X141097000Y-125898750D01*
X140938250Y-125740000D01*
X140787230Y-125740000D01*
X140854554Y-125540159D01*
X139954000Y-124639605D01*
X139939858Y-124653748D01*
X139760253Y-124474143D01*
X139774395Y-124460000D01*
X140133605Y-124460000D01*
X141034159Y-125360554D01*
X141290643Y-125274148D01*
X141500458Y-124700664D01*
X141474839Y-124090540D01*
X141290643Y-123645852D01*
X141034159Y-123559446D01*
X140133605Y-124460000D01*
X139774395Y-124460000D01*
X138873841Y-123559446D01*
X138723673Y-123610035D01*
X138716068Y-123591629D01*
X138504650Y-123379841D01*
X139053446Y-123379841D01*
X139954000Y-124280395D01*
X140854554Y-123379841D01*
X140768148Y-123123357D01*
X140194664Y-122913542D01*
X139584540Y-122939161D01*
X139139852Y-123123357D01*
X139053446Y-123379841D01*
X138504650Y-123379841D01*
X138284643Y-123159449D01*
X137720670Y-122925267D01*
X137110009Y-122924735D01*
X136545629Y-123157932D01*
X136143677Y-123559182D01*
X135744643Y-123159449D01*
X135180670Y-122925267D01*
X134570009Y-122924735D01*
X134005629Y-123157932D01*
X133603677Y-123559182D01*
X133204643Y-123159449D01*
X132640670Y-122925267D01*
X132030009Y-122924735D01*
X131465629Y-123157932D01*
X131033449Y-123589357D01*
X130799267Y-124153330D01*
X130798735Y-124763991D01*
X131031932Y-125328371D01*
X131463357Y-125760551D01*
X131812165Y-125905389D01*
X131288381Y-126429173D01*
X131173593Y-126452006D01*
X130802777Y-126699777D01*
X130556000Y-127069105D01*
X130309223Y-126699777D01*
X129938407Y-126452006D01*
X129501000Y-126365000D01*
X129413000Y-126365000D01*
X129413000Y-122682000D01*
X129402994Y-122632590D01*
X129374553Y-122590965D01*
X129332159Y-122563685D01*
X129286000Y-122555000D01*
X124079000Y-122555000D01*
X124079000Y-119749000D01*
X127384584Y-119749000D01*
X127243267Y-120089330D01*
X127242735Y-120699991D01*
X127475932Y-121264371D01*
X127907357Y-121696551D01*
X128471330Y-121930733D01*
X129081991Y-121931265D01*
X129646371Y-121698068D01*
X130078551Y-121266643D01*
X130197499Y-120980185D01*
X130592657Y-121375343D01*
X131041983Y-121675573D01*
X131572000Y-121781000D01*
X133190733Y-121781000D01*
X133551330Y-121930733D01*
X134161991Y-121931265D01*
X134726371Y-121698068D01*
X134948668Y-121476159D01*
X138037446Y-121476159D01*
X138123852Y-121732643D01*
X138697336Y-121942458D01*
X139307460Y-121916839D01*
X139752148Y-121732643D01*
X139838554Y-121476159D01*
X138938000Y-120575605D01*
X138037446Y-121476159D01*
X134948668Y-121476159D01*
X135158551Y-121266643D01*
X135392733Y-120702670D01*
X135393265Y-120092009D01*
X135287765Y-119836681D01*
X135488006Y-119636440D01*
X135644000Y-119636440D01*
X135879317Y-119592162D01*
X136095441Y-119453090D01*
X136141969Y-119384994D01*
X136284302Y-119527327D01*
X136517691Y-119624000D01*
X136858250Y-119624000D01*
X137017000Y-119465250D01*
X137017000Y-118491000D01*
X137271000Y-118491000D01*
X137271000Y-119465250D01*
X137429750Y-119624000D01*
X137585937Y-119624000D01*
X137391542Y-120155336D01*
X137417161Y-120765460D01*
X137601357Y-121210148D01*
X137857841Y-121296554D01*
X138758395Y-120396000D01*
X138744253Y-120381858D01*
X138923858Y-120202253D01*
X138938000Y-120216395D01*
X138952143Y-120202253D01*
X139131748Y-120381858D01*
X139117605Y-120396000D01*
X140018159Y-121296554D01*
X140168327Y-121245965D01*
X140175932Y-121264371D01*
X140607357Y-121696551D01*
X141171330Y-121930733D01*
X141781991Y-121931265D01*
X142346371Y-121698068D01*
X142778551Y-121266643D01*
X143012733Y-120702670D01*
X143013265Y-120092009D01*
X142780068Y-119527629D01*
X142348643Y-119095449D01*
X142335000Y-119089784D01*
X142335000Y-119010925D01*
X142339440Y-118989000D01*
X142339440Y-117739000D01*
X142295162Y-117503683D01*
X142156090Y-117287559D01*
X141943890Y-117142569D01*
X141692000Y-117091560D01*
X140692000Y-117091560D01*
X140456683Y-117135838D01*
X140240559Y-117274910D01*
X140194031Y-117343006D01*
X140051698Y-117200673D01*
X139818309Y-117104000D01*
X139477750Y-117104000D01*
X139319000Y-117262750D01*
X139319000Y-118237000D01*
X139339000Y-118237000D01*
X139339000Y-118491000D01*
X139319000Y-118491000D01*
X139319000Y-118511000D01*
X139065000Y-118511000D01*
X139065000Y-118491000D01*
X138215750Y-118491000D01*
X138168000Y-118538750D01*
X138120250Y-118491000D01*
X137271000Y-118491000D01*
X137017000Y-118491000D01*
X136997000Y-118491000D01*
X136997000Y-118237000D01*
X137017000Y-118237000D01*
X137017000Y-117262750D01*
X137271000Y-117262750D01*
X137271000Y-118237000D01*
X138120250Y-118237000D01*
X138168000Y-118189250D01*
X138215750Y-118237000D01*
X139065000Y-118237000D01*
X139065000Y-117262750D01*
X138906250Y-117104000D01*
X138565691Y-117104000D01*
X138332302Y-117200673D01*
X138168000Y-117364974D01*
X138003698Y-117200673D01*
X137770309Y-117104000D01*
X137429750Y-117104000D01*
X137271000Y-117262750D01*
X137017000Y-117262750D01*
X136858250Y-117104000D01*
X136517691Y-117104000D01*
X136284302Y-117200673D01*
X136143064Y-117341910D01*
X136108090Y-117287559D01*
X135895890Y-117142569D01*
X135644000Y-117091560D01*
X134644000Y-117091560D01*
X134408683Y-117135838D01*
X134192559Y-117274910D01*
X134047569Y-117487110D01*
X133996560Y-117739000D01*
X133996560Y-117894994D01*
X133049777Y-118841777D01*
X132936706Y-119011000D01*
X132145686Y-119011000D01*
X130519343Y-117384657D01*
X130511327Y-117379301D01*
X130070017Y-117084427D01*
X129540000Y-116979000D01*
X124079000Y-116979000D01*
X124079000Y-111555991D01*
X127242735Y-111555991D01*
X127475932Y-112120371D01*
X127907357Y-112552551D01*
X128471330Y-112786733D01*
X129081991Y-112787265D01*
X129646371Y-112554068D01*
X130078551Y-112122643D01*
X130312733Y-111558670D01*
X130312735Y-111555991D01*
X132322735Y-111555991D01*
X132555932Y-112120371D01*
X132987357Y-112552551D01*
X133551330Y-112786733D01*
X134161991Y-112787265D01*
X134726371Y-112554068D01*
X134948668Y-112332159D01*
X138037446Y-112332159D01*
X138123852Y-112588643D01*
X138697336Y-112798458D01*
X139307460Y-112772839D01*
X139752148Y-112588643D01*
X139838554Y-112332159D01*
X138938000Y-111431605D01*
X138037446Y-112332159D01*
X134948668Y-112332159D01*
X135158551Y-112122643D01*
X135392733Y-111558670D01*
X135393265Y-110948009D01*
X135287765Y-110692681D01*
X135488006Y-110492440D01*
X135644000Y-110492440D01*
X135879317Y-110448162D01*
X136095441Y-110309090D01*
X136141969Y-110240994D01*
X136284302Y-110383327D01*
X136517691Y-110480000D01*
X136858250Y-110480000D01*
X137017000Y-110321250D01*
X137017000Y-109347000D01*
X137271000Y-109347000D01*
X137271000Y-110321250D01*
X137429750Y-110480000D01*
X137585937Y-110480000D01*
X137391542Y-111011336D01*
X137417161Y-111621460D01*
X137601357Y-112066148D01*
X137857841Y-112152554D01*
X138758395Y-111252000D01*
X138744253Y-111237858D01*
X138923858Y-111058253D01*
X138938000Y-111072395D01*
X138952143Y-111058253D01*
X139131748Y-111237858D01*
X139117605Y-111252000D01*
X140018159Y-112152554D01*
X140168327Y-112101965D01*
X140175932Y-112120371D01*
X140607357Y-112552551D01*
X141171330Y-112786733D01*
X141781991Y-112787265D01*
X142346371Y-112554068D01*
X142778551Y-112122643D01*
X143012733Y-111558670D01*
X143013265Y-110948009D01*
X142780068Y-110383629D01*
X142348643Y-109951449D01*
X142335000Y-109945784D01*
X142335000Y-109866925D01*
X142339440Y-109845000D01*
X142339440Y-108595000D01*
X142295162Y-108359683D01*
X142156090Y-108143559D01*
X141943890Y-107998569D01*
X141692000Y-107947560D01*
X140692000Y-107947560D01*
X140456683Y-107991838D01*
X140240559Y-108130910D01*
X140194031Y-108199006D01*
X140051698Y-108056673D01*
X139818309Y-107960000D01*
X139477750Y-107960000D01*
X139319000Y-108118750D01*
X139319000Y-109093000D01*
X139339000Y-109093000D01*
X139339000Y-109347000D01*
X139319000Y-109347000D01*
X139319000Y-109367000D01*
X139065000Y-109367000D01*
X139065000Y-109347000D01*
X138215750Y-109347000D01*
X138168000Y-109394750D01*
X138120250Y-109347000D01*
X137271000Y-109347000D01*
X137017000Y-109347000D01*
X136997000Y-109347000D01*
X136997000Y-109093000D01*
X137017000Y-109093000D01*
X137017000Y-108118750D01*
X137271000Y-108118750D01*
X137271000Y-109093000D01*
X138120250Y-109093000D01*
X138168000Y-109045250D01*
X138215750Y-109093000D01*
X139065000Y-109093000D01*
X139065000Y-108118750D01*
X138906250Y-107960000D01*
X138565691Y-107960000D01*
X138332302Y-108056673D01*
X138168000Y-108220974D01*
X138003698Y-108056673D01*
X137770309Y-107960000D01*
X137429750Y-107960000D01*
X137271000Y-108118750D01*
X137017000Y-108118750D01*
X136858250Y-107960000D01*
X136517691Y-107960000D01*
X136284302Y-108056673D01*
X136143064Y-108197910D01*
X136108090Y-108143559D01*
X135895890Y-107998569D01*
X135644000Y-107947560D01*
X134644000Y-107947560D01*
X134408683Y-107991838D01*
X134192559Y-108130910D01*
X134047569Y-108343110D01*
X133996560Y-108595000D01*
X133996560Y-108750994D01*
X133049777Y-109697777D01*
X132802006Y-110068593D01*
X132784971Y-110154232D01*
X132557449Y-110381357D01*
X132323267Y-110945330D01*
X132322735Y-111555991D01*
X130312735Y-111555991D01*
X130313265Y-110948009D01*
X130080068Y-110383629D01*
X129648643Y-109951449D01*
X129084670Y-109717267D01*
X128474009Y-109716735D01*
X127909629Y-109949932D01*
X127477449Y-110381357D01*
X127243267Y-110945330D01*
X127242735Y-111555991D01*
X124079000Y-111555991D01*
X124079000Y-100761000D01*
X149175000Y-100761000D01*
X149175000Y-144340991D01*
G36*
X122809000Y-122555000D02*
X120249000Y-122555000D01*
X120249000Y-122301000D01*
X120269000Y-122301000D01*
X120269000Y-121326750D01*
X120203000Y-121260750D01*
X120203000Y-120523000D01*
X120457000Y-120523000D01*
X120457000Y-121522250D01*
X120523000Y-121588250D01*
X120523000Y-122301000D01*
X121372250Y-122301000D01*
X121531000Y-122142250D01*
X121531000Y-121676690D01*
X121434327Y-121443301D01*
X121270578Y-121279553D01*
X121315000Y-121172310D01*
X121315000Y-120681750D01*
X121156250Y-120523000D01*
X120457000Y-120523000D01*
X120203000Y-120523000D01*
X120183000Y-120523000D01*
X120183000Y-120269000D01*
X120203000Y-120269000D01*
X120203000Y-119269750D01*
X120457000Y-119269750D01*
X120457000Y-120269000D01*
X121156250Y-120269000D01*
X121315000Y-120110250D01*
X121315000Y-119619690D01*
X121218327Y-119386301D01*
X121039698Y-119207673D01*
X120806309Y-119111000D01*
X120615750Y-119111000D01*
X120457000Y-119269750D01*
X120203000Y-119269750D01*
X120044250Y-119111000D01*
X119853691Y-119111000D01*
X119620302Y-119207673D01*
X119441673Y-119386301D01*
X119385346Y-119522287D01*
X119383162Y-119510683D01*
X119244090Y-119294559D01*
X119031890Y-119149569D01*
X118780000Y-119098560D01*
X118567653Y-119098560D01*
X118697317Y-119074162D01*
X118873662Y-118960687D01*
X118922302Y-119009327D01*
X119155691Y-119106000D01*
X119896250Y-119106000D01*
X120055000Y-118947250D01*
X120055000Y-117983000D01*
X120309000Y-117983000D01*
X120309000Y-118947250D01*
X120467750Y-119106000D01*
X121208309Y-119106000D01*
X121441698Y-119009327D01*
X121620327Y-118830699D01*
X121717000Y-118597310D01*
X121717000Y-118141750D01*
X121558250Y-117983000D01*
X120309000Y-117983000D01*
X120055000Y-117983000D01*
X120035000Y-117983000D01*
X120035000Y-117729000D01*
X120055000Y-117729000D01*
X120055000Y-116764750D01*
X120309000Y-116764750D01*
X120309000Y-117729000D01*
X121558250Y-117729000D01*
X121717000Y-117570250D01*
X121717000Y-117114690D01*
X121620327Y-116881301D01*
X121441698Y-116702673D01*
X121208309Y-116606000D01*
X120467750Y-116606000D01*
X120309000Y-116764750D01*
X120055000Y-116764750D01*
X119896250Y-116606000D01*
X119155691Y-116606000D01*
X118922302Y-116702673D01*
X118872222Y-116752753D01*
X118713890Y-116644569D01*
X118462000Y-116593560D01*
X118427653Y-116593560D01*
X118261343Y-116344659D01*
X117812017Y-116044429D01*
X117282000Y-115939002D01*
X116751983Y-116044429D01*
X116302657Y-116344659D01*
X116002427Y-116793985D01*
X115897000Y-117324002D01*
X115897000Y-117562314D01*
X110904314Y-122555000D01*
X108573000Y-122555000D01*
X108573000Y-119897775D01*
X110116803Y-119897775D01*
X110289233Y-120315086D01*
X110608235Y-120634645D01*
X111025244Y-120807803D01*
X111476775Y-120808197D01*
X111894086Y-120635767D01*
X112213645Y-120316765D01*
X112386803Y-119899756D01*
X112387197Y-119448225D01*
X112214767Y-119030914D01*
X111895765Y-118711355D01*
X111478756Y-118538197D01*
X111027225Y-118537803D01*
X110609914Y-118710233D01*
X110290355Y-119029235D01*
X110117197Y-119446244D01*
X110116803Y-119897775D01*
X108573000Y-119897775D01*
X108573000Y-118429686D01*
X109439686Y-117563000D01*
X110363000Y-117563000D01*
X110379560Y-117646253D01*
X110379560Y-117858000D01*
X110423838Y-118093317D01*
X110562910Y-118309441D01*
X110775110Y-118454431D01*
X111027000Y-118505440D01*
X111477000Y-118505440D01*
X111712317Y-118461162D01*
X111726555Y-118452000D01*
X112489853Y-118452000D01*
X112640235Y-118602645D01*
X113057244Y-118775803D01*
X113508775Y-118776197D01*
X113926086Y-118603767D01*
X114245645Y-118284765D01*
X114418803Y-117867756D01*
X114419197Y-117416225D01*
X114246767Y-116998914D01*
X113927765Y-116679355D01*
X113749981Y-116605532D01*
X113926086Y-116532767D01*
X114245645Y-116213765D01*
X114418803Y-115796756D01*
X114419197Y-115345225D01*
X114246767Y-114927914D01*
X113927765Y-114608355D01*
X113510756Y-114435197D01*
X113059225Y-114434803D01*
X112641914Y-114607233D01*
X112322355Y-114926235D01*
X112149197Y-115343244D01*
X112148803Y-115794775D01*
X112321233Y-116212086D01*
X112640235Y-116531645D01*
X112818019Y-116605468D01*
X112652159Y-116674000D01*
X111732448Y-116674000D01*
X111728890Y-116671569D01*
X111477000Y-116620560D01*
X111027000Y-116620560D01*
X110791683Y-116664838D01*
X110575559Y-116803910D01*
X110430569Y-117016110D01*
X110379560Y-117268000D01*
X110379560Y-117479747D01*
X110363000Y-117563000D01*
X109439686Y-117563000D01*
X113415686Y-113587000D01*
X118297364Y-113587000D01*
X118572285Y-113587240D01*
X119081515Y-113376831D01*
X119471461Y-112987564D01*
X119471702Y-112986984D01*
X120867343Y-111591343D01*
X121167574Y-111142016D01*
X121273000Y-110612000D01*
X121273000Y-110022000D01*
X121167573Y-109491983D01*
X121150440Y-109466342D01*
X121150440Y-109122000D01*
X121106162Y-108886683D01*
X120992687Y-108710338D01*
X121041327Y-108661698D01*
X121138000Y-108428309D01*
X121138000Y-107687750D01*
X120979250Y-107529000D01*
X120015000Y-107529000D01*
X120015000Y-107549000D01*
X119761000Y-107549000D01*
X119761000Y-107529000D01*
X118796750Y-107529000D01*
X118638000Y-107687750D01*
X118638000Y-108428309D01*
X118734673Y-108661698D01*
X118784753Y-108711778D01*
X118676569Y-108870110D01*
X118625560Y-109122000D01*
X118625560Y-109206347D01*
X118601162Y-109076683D01*
X118462090Y-108860559D01*
X118249890Y-108715569D01*
X118216510Y-108708809D01*
X118357699Y-108650327D01*
X118536327Y-108471698D01*
X118633000Y-108238309D01*
X118633000Y-108047750D01*
X118474250Y-107889000D01*
X117475000Y-107889000D01*
X117475000Y-107909000D01*
X117221000Y-107909000D01*
X117221000Y-107889000D01*
X116221750Y-107889000D01*
X116063000Y-108047750D01*
X116063000Y-108238309D01*
X116159673Y-108471698D01*
X116338301Y-108650327D01*
X116474287Y-108706654D01*
X116462683Y-108708838D01*
X116246559Y-108847910D01*
X116101569Y-109060110D01*
X116061968Y-109255665D01*
X115938890Y-109171569D01*
X115687000Y-109120560D01*
X114437000Y-109120560D01*
X114201683Y-109164838D01*
X113985559Y-109303910D01*
X113840569Y-109516110D01*
X113789560Y-109768000D01*
X113789560Y-110768000D01*
X113798780Y-110817000D01*
X112842000Y-110817000D01*
X112785136Y-110828311D01*
X112675271Y-110562418D01*
X112356269Y-110242859D01*
X111939260Y-110069701D01*
X111887002Y-110069655D01*
X111887002Y-109927752D01*
X112031250Y-110072000D01*
X112111310Y-110072000D01*
X112344699Y-109975327D01*
X112523327Y-109796698D01*
X112620000Y-109563309D01*
X112620000Y-109427750D01*
X112461250Y-109269000D01*
X111872500Y-109269000D01*
X111872500Y-109289000D01*
X111647500Y-109289000D01*
X111647500Y-109269000D01*
X111058750Y-109269000D01*
X110900000Y-109427750D01*
X110900000Y-109563309D01*
X110996673Y-109796698D01*
X111175301Y-109975327D01*
X111408690Y-110072000D01*
X111481211Y-110072000D01*
X111070418Y-110241737D01*
X110750859Y-110560739D01*
X110577701Y-110977748D01*
X110577307Y-111429279D01*
X110749737Y-111846590D01*
X110994017Y-112091297D01*
X106208657Y-116876657D01*
X105908427Y-117325983D01*
X105803000Y-117856000D01*
X105803000Y-122555000D01*
X100761000Y-122555000D01*
X100761000Y-108528750D01*
X110900000Y-108528750D01*
X110900000Y-108664309D01*
X110911677Y-108692500D01*
X110900000Y-108720691D01*
X110900000Y-108856250D01*
X111058750Y-109015000D01*
X111113974Y-109015000D01*
X111175301Y-109076327D01*
X111408690Y-109173000D01*
X111488750Y-109173000D01*
X111646750Y-109015000D01*
X111647500Y-109015000D01*
X111647500Y-108370000D01*
X111872500Y-108370000D01*
X111872500Y-109015000D01*
X111873250Y-109015000D01*
X112031250Y-109173000D01*
X112111310Y-109173000D01*
X112344699Y-109076327D01*
X112406026Y-109015000D01*
X112461250Y-109015000D01*
X112620000Y-108856250D01*
X112620000Y-108720691D01*
X112608323Y-108692500D01*
X112620000Y-108664309D01*
X112620000Y-108528750D01*
X112461250Y-108370000D01*
X112406026Y-108370000D01*
X112344699Y-108308673D01*
X112111310Y-108212000D01*
X112031250Y-108212000D01*
X111873250Y-108370000D01*
X111872500Y-108370000D01*
X111647500Y-108370000D01*
X111646750Y-108370000D01*
X111488750Y-108212000D01*
X111408690Y-108212000D01*
X111175301Y-108308673D01*
X111113974Y-108370000D01*
X111058750Y-108370000D01*
X110900000Y-108528750D01*
X100761000Y-108528750D01*
X100761000Y-107821691D01*
X110900000Y-107821691D01*
X110900000Y-107957250D01*
X111058750Y-108116000D01*
X111647500Y-108116000D01*
X111647500Y-107471750D01*
X111872500Y-107471750D01*
X111872500Y-108116000D01*
X112461250Y-108116000D01*
X112620000Y-107957250D01*
X112620000Y-107821691D01*
X112523327Y-107588302D01*
X112344699Y-107409673D01*
X112111310Y-107313000D01*
X112031250Y-107313000D01*
X111872500Y-107471750D01*
X111647500Y-107471750D01*
X111488750Y-107313000D01*
X111408690Y-107313000D01*
X111175301Y-107409673D01*
X110996673Y-107588302D01*
X110900000Y-107821691D01*
X100761000Y-107821691D01*
X100761000Y-107285691D01*
X116063000Y-107285691D01*
X116063000Y-107476250D01*
X116221750Y-107635000D01*
X117221000Y-107635000D01*
X117221000Y-106935750D01*
X117475000Y-106935750D01*
X117475000Y-107635000D01*
X118474250Y-107635000D01*
X118633000Y-107476250D01*
X118633000Y-107285691D01*
X118536327Y-107052302D01*
X118357699Y-106873673D01*
X118124310Y-106777000D01*
X117633750Y-106777000D01*
X117475000Y-106935750D01*
X117221000Y-106935750D01*
X117062250Y-106777000D01*
X116571690Y-106777000D01*
X116338301Y-106873673D01*
X116159673Y-107052302D01*
X116063000Y-107285691D01*
X100761000Y-107285691D01*
X100761000Y-106357775D01*
X110624803Y-106357775D01*
X110797233Y-106775086D01*
X111116235Y-107094645D01*
X111533244Y-107267803D01*
X111984775Y-107268197D01*
X112402086Y-107095767D01*
X112721645Y-106776765D01*
X112888186Y-106375691D01*
X118638000Y-106375691D01*
X118638000Y-107116250D01*
X118796750Y-107275000D01*
X119761000Y-107275000D01*
X119761000Y-106025750D01*
X120015000Y-106025750D01*
X120015000Y-107275000D01*
X120979250Y-107275000D01*
X121138000Y-107116250D01*
X121138000Y-106375691D01*
X121041327Y-106142302D01*
X120862699Y-105963673D01*
X120629310Y-105867000D01*
X120173750Y-105867000D01*
X120015000Y-106025750D01*
X119761000Y-106025750D01*
X119602250Y-105867000D01*
X119146690Y-105867000D01*
X118913301Y-105963673D01*
X118734673Y-106142302D01*
X118638000Y-106375691D01*
X112888186Y-106375691D01*
X112894803Y-106359756D01*
X112895197Y-105908225D01*
X112722767Y-105490914D01*
X112403765Y-105171355D01*
X111986756Y-104998197D01*
X111535225Y-104997803D01*
X111117914Y-105170233D01*
X110798355Y-105489235D01*
X110625197Y-105906244D01*
X110624803Y-106357775D01*
X100761000Y-106357775D01*
X100761000Y-100761000D01*
X122809000Y-100761000D01*
X122809000Y-122555000D01*
X122809000Y-122555000D01*
G37*
X122809000Y-122555000D02*
X120249000Y-122555000D01*
X120249000Y-122301000D01*
X120269000Y-122301000D01*
X120269000Y-121326750D01*
X120203000Y-121260750D01*
X120203000Y-120523000D01*
X120457000Y-120523000D01*
X120457000Y-121522250D01*
X120523000Y-121588250D01*
X120523000Y-122301000D01*
X121372250Y-122301000D01*
X121531000Y-122142250D01*
X121531000Y-121676690D01*
X121434327Y-121443301D01*
X121270578Y-121279553D01*
X121315000Y-121172310D01*
X121315000Y-120681750D01*
X121156250Y-120523000D01*
X120457000Y-120523000D01*
X120203000Y-120523000D01*
X120183000Y-120523000D01*
X120183000Y-120269000D01*
X120203000Y-120269000D01*
X120203000Y-119269750D01*
X120457000Y-119269750D01*
X120457000Y-120269000D01*
X121156250Y-120269000D01*
X121315000Y-120110250D01*
X121315000Y-119619690D01*
X121218327Y-119386301D01*
X121039698Y-119207673D01*
X120806309Y-119111000D01*
X120615750Y-119111000D01*
X120457000Y-119269750D01*
X120203000Y-119269750D01*
X120044250Y-119111000D01*
X119853691Y-119111000D01*
X119620302Y-119207673D01*
X119441673Y-119386301D01*
X119385346Y-119522287D01*
X119383162Y-119510683D01*
X119244090Y-119294559D01*
X119031890Y-119149569D01*
X118780000Y-119098560D01*
X118567653Y-119098560D01*
X118697317Y-119074162D01*
X118873662Y-118960687D01*
X118922302Y-119009327D01*
X119155691Y-119106000D01*
X119896250Y-119106000D01*
X120055000Y-118947250D01*
X120055000Y-117983000D01*
X120309000Y-117983000D01*
X120309000Y-118947250D01*
X120467750Y-119106000D01*
X121208309Y-119106000D01*
X121441698Y-119009327D01*
X121620327Y-118830699D01*
X121717000Y-118597310D01*
X121717000Y-118141750D01*
X121558250Y-117983000D01*
X120309000Y-117983000D01*
X120055000Y-117983000D01*
X120035000Y-117983000D01*
X120035000Y-117729000D01*
X120055000Y-117729000D01*
X120055000Y-116764750D01*
X120309000Y-116764750D01*
X120309000Y-117729000D01*
X121558250Y-117729000D01*
X121717000Y-117570250D01*
X121717000Y-117114690D01*
X121620327Y-116881301D01*
X121441698Y-116702673D01*
X121208309Y-116606000D01*
X120467750Y-116606000D01*
X120309000Y-116764750D01*
X120055000Y-116764750D01*
X119896250Y-116606000D01*
X119155691Y-116606000D01*
X118922302Y-116702673D01*
X118872222Y-116752753D01*
X118713890Y-116644569D01*
X118462000Y-116593560D01*
X118427653Y-116593560D01*
X118261343Y-116344659D01*
X117812017Y-116044429D01*
X117282000Y-115939002D01*
X116751983Y-116044429D01*
X116302657Y-116344659D01*
X116002427Y-116793985D01*
X115897000Y-117324002D01*
X115897000Y-117562314D01*
X110904314Y-122555000D01*
X108573000Y-122555000D01*
X108573000Y-119897775D01*
X110116803Y-119897775D01*
X110289233Y-120315086D01*
X110608235Y-120634645D01*
X111025244Y-120807803D01*
X111476775Y-120808197D01*
X111894086Y-120635767D01*
X112213645Y-120316765D01*
X112386803Y-119899756D01*
X112387197Y-119448225D01*
X112214767Y-119030914D01*
X111895765Y-118711355D01*
X111478756Y-118538197D01*
X111027225Y-118537803D01*
X110609914Y-118710233D01*
X110290355Y-119029235D01*
X110117197Y-119446244D01*
X110116803Y-119897775D01*
X108573000Y-119897775D01*
X108573000Y-118429686D01*
X109439686Y-117563000D01*
X110363000Y-117563000D01*
X110379560Y-117646253D01*
X110379560Y-117858000D01*
X110423838Y-118093317D01*
X110562910Y-118309441D01*
X110775110Y-118454431D01*
X111027000Y-118505440D01*
X111477000Y-118505440D01*
X111712317Y-118461162D01*
X111726555Y-118452000D01*
X112489853Y-118452000D01*
X112640235Y-118602645D01*
X113057244Y-118775803D01*
X113508775Y-118776197D01*
X113926086Y-118603767D01*
X114245645Y-118284765D01*
X114418803Y-117867756D01*
X114419197Y-117416225D01*
X114246767Y-116998914D01*
X113927765Y-116679355D01*
X113749981Y-116605532D01*
X113926086Y-116532767D01*
X114245645Y-116213765D01*
X114418803Y-115796756D01*
X114419197Y-115345225D01*
X114246767Y-114927914D01*
X113927765Y-114608355D01*
X113510756Y-114435197D01*
X113059225Y-114434803D01*
X112641914Y-114607233D01*
X112322355Y-114926235D01*
X112149197Y-115343244D01*
X112148803Y-115794775D01*
X112321233Y-116212086D01*
X112640235Y-116531645D01*
X112818019Y-116605468D01*
X112652159Y-116674000D01*
X111732448Y-116674000D01*
X111728890Y-116671569D01*
X111477000Y-116620560D01*
X111027000Y-116620560D01*
X110791683Y-116664838D01*
X110575559Y-116803910D01*
X110430569Y-117016110D01*
X110379560Y-117268000D01*
X110379560Y-117479747D01*
X110363000Y-117563000D01*
X109439686Y-117563000D01*
X113415686Y-113587000D01*
X118297364Y-113587000D01*
X118572285Y-113587240D01*
X119081515Y-113376831D01*
X119471461Y-112987564D01*
X119471702Y-112986984D01*
X120867343Y-111591343D01*
X121167574Y-111142016D01*
X121273000Y-110612000D01*
X121273000Y-110022000D01*
X121167573Y-109491983D01*
X121150440Y-109466342D01*
X121150440Y-109122000D01*
X121106162Y-108886683D01*
X120992687Y-108710338D01*
X121041327Y-108661698D01*
X121138000Y-108428309D01*
X121138000Y-107687750D01*
X120979250Y-107529000D01*
X120015000Y-107529000D01*
X120015000Y-107549000D01*
X119761000Y-107549000D01*
X119761000Y-107529000D01*
X118796750Y-107529000D01*
X118638000Y-107687750D01*
X118638000Y-108428309D01*
X118734673Y-108661698D01*
X118784753Y-108711778D01*
X118676569Y-108870110D01*
X118625560Y-109122000D01*
X118625560Y-109206347D01*
X118601162Y-109076683D01*
X118462090Y-108860559D01*
X118249890Y-108715569D01*
X118216510Y-108708809D01*
X118357699Y-108650327D01*
X118536327Y-108471698D01*
X118633000Y-108238309D01*
X118633000Y-108047750D01*
X118474250Y-107889000D01*
X117475000Y-107889000D01*
X117475000Y-107909000D01*
X117221000Y-107909000D01*
X117221000Y-107889000D01*
X116221750Y-107889000D01*
X116063000Y-108047750D01*
X116063000Y-108238309D01*
X116159673Y-108471698D01*
X116338301Y-108650327D01*
X116474287Y-108706654D01*
X116462683Y-108708838D01*
X116246559Y-108847910D01*
X116101569Y-109060110D01*
X116061968Y-109255665D01*
X115938890Y-109171569D01*
X115687000Y-109120560D01*
X114437000Y-109120560D01*
X114201683Y-109164838D01*
X113985559Y-109303910D01*
X113840569Y-109516110D01*
X113789560Y-109768000D01*
X113789560Y-110768000D01*
X113798780Y-110817000D01*
X112842000Y-110817000D01*
X112785136Y-110828311D01*
X112675271Y-110562418D01*
X112356269Y-110242859D01*
X111939260Y-110069701D01*
X111887002Y-110069655D01*
X111887002Y-109927752D01*
X112031250Y-110072000D01*
X112111310Y-110072000D01*
X112344699Y-109975327D01*
X112523327Y-109796698D01*
X112620000Y-109563309D01*
X112620000Y-109427750D01*
X112461250Y-109269000D01*
X111872500Y-109269000D01*
X111872500Y-109289000D01*
X111647500Y-109289000D01*
X111647500Y-109269000D01*
X111058750Y-109269000D01*
X110900000Y-109427750D01*
X110900000Y-109563309D01*
X110996673Y-109796698D01*
X111175301Y-109975327D01*
X111408690Y-110072000D01*
X111481211Y-110072000D01*
X111070418Y-110241737D01*
X110750859Y-110560739D01*
X110577701Y-110977748D01*
X110577307Y-111429279D01*
X110749737Y-111846590D01*
X110994017Y-112091297D01*
X106208657Y-116876657D01*
X105908427Y-117325983D01*
X105803000Y-117856000D01*
X105803000Y-122555000D01*
X100761000Y-122555000D01*
X100761000Y-108528750D01*
X110900000Y-108528750D01*
X110900000Y-108664309D01*
X110911677Y-108692500D01*
X110900000Y-108720691D01*
X110900000Y-108856250D01*
X111058750Y-109015000D01*
X111113974Y-109015000D01*
X111175301Y-109076327D01*
X111408690Y-109173000D01*
X111488750Y-109173000D01*
X111646750Y-109015000D01*
X111647500Y-109015000D01*
X111647500Y-108370000D01*
X111872500Y-108370000D01*
X111872500Y-109015000D01*
X111873250Y-109015000D01*
X112031250Y-109173000D01*
X112111310Y-109173000D01*
X112344699Y-109076327D01*
X112406026Y-109015000D01*
X112461250Y-109015000D01*
X112620000Y-108856250D01*
X112620000Y-108720691D01*
X112608323Y-108692500D01*
X112620000Y-108664309D01*
X112620000Y-108528750D01*
X112461250Y-108370000D01*
X112406026Y-108370000D01*
X112344699Y-108308673D01*
X112111310Y-108212000D01*
X112031250Y-108212000D01*
X111873250Y-108370000D01*
X111872500Y-108370000D01*
X111647500Y-108370000D01*
X111646750Y-108370000D01*
X111488750Y-108212000D01*
X111408690Y-108212000D01*
X111175301Y-108308673D01*
X111113974Y-108370000D01*
X111058750Y-108370000D01*
X110900000Y-108528750D01*
X100761000Y-108528750D01*
X100761000Y-107821691D01*
X110900000Y-107821691D01*
X110900000Y-107957250D01*
X111058750Y-108116000D01*
X111647500Y-108116000D01*
X111647500Y-107471750D01*
X111872500Y-107471750D01*
X111872500Y-108116000D01*
X112461250Y-108116000D01*
X112620000Y-107957250D01*
X112620000Y-107821691D01*
X112523327Y-107588302D01*
X112344699Y-107409673D01*
X112111310Y-107313000D01*
X112031250Y-107313000D01*
X111872500Y-107471750D01*
X111647500Y-107471750D01*
X111488750Y-107313000D01*
X111408690Y-107313000D01*
X111175301Y-107409673D01*
X110996673Y-107588302D01*
X110900000Y-107821691D01*
X100761000Y-107821691D01*
X100761000Y-107285691D01*
X116063000Y-107285691D01*
X116063000Y-107476250D01*
X116221750Y-107635000D01*
X117221000Y-107635000D01*
X117221000Y-106935750D01*
X117475000Y-106935750D01*
X117475000Y-107635000D01*
X118474250Y-107635000D01*
X118633000Y-107476250D01*
X118633000Y-107285691D01*
X118536327Y-107052302D01*
X118357699Y-106873673D01*
X118124310Y-106777000D01*
X117633750Y-106777000D01*
X117475000Y-106935750D01*
X117221000Y-106935750D01*
X117062250Y-106777000D01*
X116571690Y-106777000D01*
X116338301Y-106873673D01*
X116159673Y-107052302D01*
X116063000Y-107285691D01*
X100761000Y-107285691D01*
X100761000Y-106357775D01*
X110624803Y-106357775D01*
X110797233Y-106775086D01*
X111116235Y-107094645D01*
X111533244Y-107267803D01*
X111984775Y-107268197D01*
X112402086Y-107095767D01*
X112721645Y-106776765D01*
X112888186Y-106375691D01*
X118638000Y-106375691D01*
X118638000Y-107116250D01*
X118796750Y-107275000D01*
X119761000Y-107275000D01*
X119761000Y-106025750D01*
X120015000Y-106025750D01*
X120015000Y-107275000D01*
X120979250Y-107275000D01*
X121138000Y-107116250D01*
X121138000Y-106375691D01*
X121041327Y-106142302D01*
X120862699Y-105963673D01*
X120629310Y-105867000D01*
X120173750Y-105867000D01*
X120015000Y-106025750D01*
X119761000Y-106025750D01*
X119602250Y-105867000D01*
X119146690Y-105867000D01*
X118913301Y-105963673D01*
X118734673Y-106142302D01*
X118638000Y-106375691D01*
X112888186Y-106375691D01*
X112894803Y-106359756D01*
X112895197Y-105908225D01*
X112722767Y-105490914D01*
X112403765Y-105171355D01*
X111986756Y-104998197D01*
X111535225Y-104997803D01*
X111117914Y-105170233D01*
X110798355Y-105489235D01*
X110625197Y-105906244D01*
X110624803Y-106357775D01*
X100761000Y-106357775D01*
X100761000Y-100761000D01*
X122809000Y-100761000D01*
X122809000Y-122555000D01*
G36*
X128143000Y-126437354D02*
X128126984Y-126443972D01*
X128086593Y-126452006D01*
X128052650Y-126474686D01*
X127881914Y-126545233D01*
X127750022Y-126676896D01*
X127715777Y-126699777D01*
X127693095Y-126733723D01*
X127562355Y-126864235D01*
X127490886Y-127036350D01*
X127468006Y-127070593D01*
X127460042Y-127110631D01*
X127389197Y-127281244D01*
X127389034Y-127467609D01*
X127381000Y-127508000D01*
X127388964Y-127548039D01*
X127388803Y-127732775D01*
X127459972Y-127905016D01*
X127468006Y-127945407D01*
X127490686Y-127979350D01*
X127561233Y-128150086D01*
X127692896Y-128281978D01*
X127715777Y-128316223D01*
X127749723Y-128338905D01*
X127880235Y-128469645D01*
X128052350Y-128541114D01*
X128086593Y-128563994D01*
X128126631Y-128571958D01*
X128143000Y-128578755D01*
X128143000Y-134493000D01*
X127547000Y-134493000D01*
X127109593Y-134580006D01*
X126738777Y-134827777D01*
X126511500Y-135167922D01*
X126509314Y-135164650D01*
X126438767Y-134993914D01*
X126307104Y-134862022D01*
X126284223Y-134827777D01*
X126250277Y-134805095D01*
X126119765Y-134674355D01*
X125947650Y-134602886D01*
X125913407Y-134580006D01*
X125873369Y-134572042D01*
X125702756Y-134501197D01*
X125516391Y-134501034D01*
X125476000Y-134493000D01*
X125437000Y-134493000D01*
X125397132Y-134500930D01*
X125251225Y-134500803D01*
X125115188Y-134557013D01*
X124999593Y-134580006D01*
X124902452Y-134644914D01*
X124833914Y-134673233D01*
X124780969Y-134726086D01*
X124628777Y-134827777D01*
X124527974Y-134978640D01*
X124514355Y-134992235D01*
X124506910Y-135010163D01*
X124381006Y-135198593D01*
X124294000Y-135636000D01*
X124381006Y-136073407D01*
X124505884Y-136260301D01*
X124513233Y-136278086D01*
X124526948Y-136291825D01*
X124628777Y-136444223D01*
X124779844Y-136545163D01*
X124832235Y-136597645D01*
X124901326Y-136626334D01*
X124999593Y-136691994D01*
X125114492Y-136714849D01*
X125249244Y-136770803D01*
X125396437Y-136770931D01*
X125437000Y-136779000D01*
X125476000Y-136779000D01*
X125516039Y-136771036D01*
X125700775Y-136771197D01*
X125873016Y-136700028D01*
X125913407Y-136691994D01*
X125947350Y-136669314D01*
X126118086Y-136598767D01*
X126249978Y-136467104D01*
X126284223Y-136444223D01*
X126306905Y-136410277D01*
X126437645Y-136279765D01*
X126509114Y-136107650D01*
X126511500Y-136104078D01*
X126738777Y-136444223D01*
X127109593Y-136691994D01*
X127547000Y-136779000D01*
X128143000Y-136779000D01*
X128143000Y-138557000D01*
X122938440Y-138557000D01*
X122938440Y-137676000D01*
X122894162Y-137440683D01*
X122755090Y-137224559D01*
X122685289Y-137176866D01*
X122742441Y-137140090D01*
X122887431Y-136927890D01*
X122938440Y-136676000D01*
X122938440Y-135676000D01*
X122894162Y-135440683D01*
X122755090Y-135224559D01*
X122542890Y-135079569D01*
X122291000Y-135028560D01*
X121256906Y-135028560D01*
X121315000Y-134888310D01*
X121315000Y-134397750D01*
X121156250Y-134239000D01*
X120457000Y-134239000D01*
X120457000Y-134259000D01*
X120203000Y-134259000D01*
X120203000Y-134239000D01*
X120183000Y-134239000D01*
X120183000Y-133985000D01*
X120203000Y-133985000D01*
X120203000Y-132985750D01*
X120457000Y-132985750D01*
X120457000Y-133985000D01*
X121156250Y-133985000D01*
X121315000Y-133826250D01*
X121315000Y-133335690D01*
X121218327Y-133102301D01*
X121039698Y-132923673D01*
X120806309Y-132827000D01*
X120615750Y-132827000D01*
X120457000Y-132985750D01*
X120203000Y-132985750D01*
X120044250Y-132827000D01*
X119853691Y-132827000D01*
X119620302Y-132923673D01*
X119441673Y-133102301D01*
X119385346Y-133238287D01*
X119383162Y-133226683D01*
X119244090Y-133010559D01*
X119031890Y-132865569D01*
X118780000Y-132814560D01*
X118080000Y-132814560D01*
X117844683Y-132858838D01*
X117628559Y-132997910D01*
X117483569Y-133210110D01*
X117432560Y-133462000D01*
X117432560Y-134762000D01*
X117476838Y-134997317D01*
X117541000Y-135097028D01*
X117541000Y-135260000D01*
X117608671Y-135600206D01*
X117632588Y-135636000D01*
X117801382Y-135888618D01*
X118082560Y-136169796D01*
X118082560Y-136560000D01*
X118126838Y-136795317D01*
X118265910Y-137011441D01*
X118478110Y-137156431D01*
X118491197Y-137159081D01*
X118278559Y-137295910D01*
X118133569Y-137508110D01*
X118082560Y-137760000D01*
X118082560Y-138460000D01*
X118100812Y-138557000D01*
X114161000Y-138557000D01*
X114161000Y-137668000D01*
X114055573Y-137137983D01*
X113755343Y-136688657D01*
X112637000Y-135570314D01*
X112637000Y-128407000D01*
X121312560Y-128407000D01*
X121312560Y-129657000D01*
X121356838Y-129892317D01*
X121495910Y-130108441D01*
X121708110Y-130253431D01*
X121960000Y-130304440D01*
X122960000Y-130304440D01*
X123195317Y-130260162D01*
X123411441Y-130121090D01*
X123457969Y-130052994D01*
X123600302Y-130195327D01*
X123833691Y-130292000D01*
X124174250Y-130292000D01*
X124333000Y-130133250D01*
X124333000Y-129159000D01*
X124587000Y-129159000D01*
X124587000Y-130133250D01*
X124745750Y-130292000D01*
X125086309Y-130292000D01*
X125319698Y-130195327D01*
X125498327Y-130016699D01*
X125595000Y-129783310D01*
X125595000Y-129317750D01*
X125436250Y-129159000D01*
X124587000Y-129159000D01*
X124333000Y-129159000D01*
X124313000Y-129159000D01*
X124313000Y-128905000D01*
X124333000Y-128905000D01*
X124333000Y-127930750D01*
X124587000Y-127930750D01*
X124587000Y-128905000D01*
X125436250Y-128905000D01*
X125595000Y-128746250D01*
X125595000Y-128280690D01*
X125498327Y-128047301D01*
X125319698Y-127868673D01*
X125086309Y-127772000D01*
X124745750Y-127772000D01*
X124587000Y-127930750D01*
X124333000Y-127930750D01*
X124174250Y-127772000D01*
X123833691Y-127772000D01*
X123600302Y-127868673D01*
X123459064Y-128009910D01*
X123424090Y-127955559D01*
X123211890Y-127810569D01*
X122960000Y-127759560D01*
X121960000Y-127759560D01*
X121724683Y-127803838D01*
X121508559Y-127942910D01*
X121363569Y-128155110D01*
X121312560Y-128407000D01*
X112637000Y-128407000D01*
X112637000Y-124739686D01*
X113551686Y-123825000D01*
X128143000Y-123825000D01*
X128143000Y-126437354D01*
X128143000Y-126437354D01*
G37*
X128143000Y-126437354D02*
X128126984Y-126443972D01*
X128086593Y-126452006D01*
X128052650Y-126474686D01*
X127881914Y-126545233D01*
X127750022Y-126676896D01*
X127715777Y-126699777D01*
X127693095Y-126733723D01*
X127562355Y-126864235D01*
X127490886Y-127036350D01*
X127468006Y-127070593D01*
X127460042Y-127110631D01*
X127389197Y-127281244D01*
X127389034Y-127467609D01*
X127381000Y-127508000D01*
X127388964Y-127548039D01*
X127388803Y-127732775D01*
X127459972Y-127905016D01*
X127468006Y-127945407D01*
X127490686Y-127979350D01*
X127561233Y-128150086D01*
X127692896Y-128281978D01*
X127715777Y-128316223D01*
X127749723Y-128338905D01*
X127880235Y-128469645D01*
X128052350Y-128541114D01*
X128086593Y-128563994D01*
X128126631Y-128571958D01*
X128143000Y-128578755D01*
X128143000Y-134493000D01*
X127547000Y-134493000D01*
X127109593Y-134580006D01*
X126738777Y-134827777D01*
X126511500Y-135167922D01*
X126509314Y-135164650D01*
X126438767Y-134993914D01*
X126307104Y-134862022D01*
X126284223Y-134827777D01*
X126250277Y-134805095D01*
X126119765Y-134674355D01*
X125947650Y-134602886D01*
X125913407Y-134580006D01*
X125873369Y-134572042D01*
X125702756Y-134501197D01*
X125516391Y-134501034D01*
X125476000Y-134493000D01*
X125437000Y-134493000D01*
X125397132Y-134500930D01*
X125251225Y-134500803D01*
X125115188Y-134557013D01*
X124999593Y-134580006D01*
X124902452Y-134644914D01*
X124833914Y-134673233D01*
X124780969Y-134726086D01*
X124628777Y-134827777D01*
X124527974Y-134978640D01*
X124514355Y-134992235D01*
X124506910Y-135010163D01*
X124381006Y-135198593D01*
X124294000Y-135636000D01*
X124381006Y-136073407D01*
X124505884Y-136260301D01*
X124513233Y-136278086D01*
X124526948Y-136291825D01*
X124628777Y-136444223D01*
X124779844Y-136545163D01*
X124832235Y-136597645D01*
X124901326Y-136626334D01*
X124999593Y-136691994D01*
X125114492Y-136714849D01*
X125249244Y-136770803D01*
X125396437Y-136770931D01*
X125437000Y-136779000D01*
X125476000Y-136779000D01*
X125516039Y-136771036D01*
X125700775Y-136771197D01*
X125873016Y-136700028D01*
X125913407Y-136691994D01*
X125947350Y-136669314D01*
X126118086Y-136598767D01*
X126249978Y-136467104D01*
X126284223Y-136444223D01*
X126306905Y-136410277D01*
X126437645Y-136279765D01*
X126509114Y-136107650D01*
X126511500Y-136104078D01*
X126738777Y-136444223D01*
X127109593Y-136691994D01*
X127547000Y-136779000D01*
X128143000Y-136779000D01*
X128143000Y-138557000D01*
X122938440Y-138557000D01*
X122938440Y-137676000D01*
X122894162Y-137440683D01*
X122755090Y-137224559D01*
X122685289Y-137176866D01*
X122742441Y-137140090D01*
X122887431Y-136927890D01*
X122938440Y-136676000D01*
X122938440Y-135676000D01*
X122894162Y-135440683D01*
X122755090Y-135224559D01*
X122542890Y-135079569D01*
X122291000Y-135028560D01*
X121256906Y-135028560D01*
X121315000Y-134888310D01*
X121315000Y-134397750D01*
X121156250Y-134239000D01*
X120457000Y-134239000D01*
X120457000Y-134259000D01*
X120203000Y-134259000D01*
X120203000Y-134239000D01*
X120183000Y-134239000D01*
X120183000Y-133985000D01*
X120203000Y-133985000D01*
X120203000Y-132985750D01*
X120457000Y-132985750D01*
X120457000Y-133985000D01*
X121156250Y-133985000D01*
X121315000Y-133826250D01*
X121315000Y-133335690D01*
X121218327Y-133102301D01*
X121039698Y-132923673D01*
X120806309Y-132827000D01*
X120615750Y-132827000D01*
X120457000Y-132985750D01*
X120203000Y-132985750D01*
X120044250Y-132827000D01*
X119853691Y-132827000D01*
X119620302Y-132923673D01*
X119441673Y-133102301D01*
X119385346Y-133238287D01*
X119383162Y-133226683D01*
X119244090Y-133010559D01*
X119031890Y-132865569D01*
X118780000Y-132814560D01*
X118080000Y-132814560D01*
X117844683Y-132858838D01*
X117628559Y-132997910D01*
X117483569Y-133210110D01*
X117432560Y-133462000D01*
X117432560Y-134762000D01*
X117476838Y-134997317D01*
X117541000Y-135097028D01*
X117541000Y-135260000D01*
X117608671Y-135600206D01*
X117632588Y-135636000D01*
X117801382Y-135888618D01*
X118082560Y-136169796D01*
X118082560Y-136560000D01*
X118126838Y-136795317D01*
X118265910Y-137011441D01*
X118478110Y-137156431D01*
X118491197Y-137159081D01*
X118278559Y-137295910D01*
X118133569Y-137508110D01*
X118082560Y-137760000D01*
X118082560Y-138460000D01*
X118100812Y-138557000D01*
X114161000Y-138557000D01*
X114161000Y-137668000D01*
X114055573Y-137137983D01*
X113755343Y-136688657D01*
X112637000Y-135570314D01*
X112637000Y-128407000D01*
X121312560Y-128407000D01*
X121312560Y-129657000D01*
X121356838Y-129892317D01*
X121495910Y-130108441D01*
X121708110Y-130253431D01*
X121960000Y-130304440D01*
X122960000Y-130304440D01*
X123195317Y-130260162D01*
X123411441Y-130121090D01*
X123457969Y-130052994D01*
X123600302Y-130195327D01*
X123833691Y-130292000D01*
X124174250Y-130292000D01*
X124333000Y-130133250D01*
X124333000Y-129159000D01*
X124587000Y-129159000D01*
X124587000Y-130133250D01*
X124745750Y-130292000D01*
X125086309Y-130292000D01*
X125319698Y-130195327D01*
X125498327Y-130016699D01*
X125595000Y-129783310D01*
X125595000Y-129317750D01*
X125436250Y-129159000D01*
X124587000Y-129159000D01*
X124333000Y-129159000D01*
X124313000Y-129159000D01*
X124313000Y-128905000D01*
X124333000Y-128905000D01*
X124333000Y-127930750D01*
X124587000Y-127930750D01*
X124587000Y-128905000D01*
X125436250Y-128905000D01*
X125595000Y-128746250D01*
X125595000Y-128280690D01*
X125498327Y-128047301D01*
X125319698Y-127868673D01*
X125086309Y-127772000D01*
X124745750Y-127772000D01*
X124587000Y-127930750D01*
X124333000Y-127930750D01*
X124174250Y-127772000D01*
X123833691Y-127772000D01*
X123600302Y-127868673D01*
X123459064Y-128009910D01*
X123424090Y-127955559D01*
X123211890Y-127810569D01*
X122960000Y-127759560D01*
X121960000Y-127759560D01*
X121724683Y-127803838D01*
X121508559Y-127942910D01*
X121363569Y-128155110D01*
X121312560Y-128407000D01*
X112637000Y-128407000D01*
X112637000Y-124739686D01*
X113551686Y-123825000D01*
X128143000Y-123825000D01*
X128143000Y-126437354D01*
G36*
X105803000Y-137668000D02*
X105908427Y-138198017D01*
X106121034Y-138516206D01*
X106148292Y-138557000D01*
X100761000Y-138557000D01*
X100761000Y-123825000D01*
X105803000Y-123825000D01*
X105803000Y-137668000D01*
X105803000Y-137668000D01*
G37*
X105803000Y-137668000D02*
X105908427Y-138198017D01*
X106121034Y-138516206D01*
X106148292Y-138557000D01*
X100761000Y-138557000D01*
X100761000Y-123825000D01*
X105803000Y-123825000D01*
X105803000Y-137668000D01*
G36*
X125349000Y-149175000D02*
X109919039Y-149175000D01*
X110258017Y-149107573D01*
X110707343Y-148807343D01*
X113755343Y-145759343D01*
X114050667Y-145317359D01*
X114055573Y-145310017D01*
X114161000Y-144780000D01*
X114161000Y-139827000D01*
X125349000Y-139827000D01*
X125349000Y-149175000D01*
X125349000Y-149175000D01*
G37*
X125349000Y-149175000D02*
X109919039Y-149175000D01*
X110258017Y-149107573D01*
X110707343Y-148807343D01*
X113755343Y-145759343D01*
X114050667Y-145317359D01*
X114055573Y-145310017D01*
X114161000Y-144780000D01*
X114161000Y-139827000D01*
X125349000Y-139827000D01*
X125349000Y-149175000D01*
G36*
X104013000Y-140081000D02*
X104033000Y-140081000D01*
X104033000Y-140335000D01*
X104013000Y-140335000D01*
X104013000Y-140355000D01*
X103759000Y-140355000D01*
X103759000Y-140335000D01*
X103739000Y-140335000D01*
X103739000Y-140081000D01*
X103759000Y-140081000D01*
X103759000Y-140061000D01*
X104013000Y-140061000D01*
X104013000Y-140081000D01*
X104013000Y-140081000D01*
G37*
X104013000Y-140081000D02*
X104033000Y-140081000D01*
X104033000Y-140335000D01*
X104013000Y-140335000D01*
X104013000Y-140355000D01*
X103759000Y-140355000D01*
X103759000Y-140335000D01*
X103739000Y-140335000D01*
X103739000Y-140081000D01*
X103759000Y-140081000D01*
X103759000Y-140061000D01*
X104013000Y-140061000D01*
X104013000Y-140081000D01*
M02*
